<svg height="512pt" viewBox="0 0 512 511" width="512pt" xmlns="http://www.w3.org/2000/svg"><path d="m168.183594 56.6875c4.519531 5.78125 5.035156 15.199219 1.175781 21.441406l-9.199219 14.871094h35.25c9.9375-16.921875 8.519532-39.292969-3.589844-54.785156l-1.160156-1.488282c-4.519531-5.78125-5.035156-15.199218-1.175781-21.441406l9.148437-14.785156h-35.25c-9.878906 16.914062-8.449218 39.234375 3.640626 54.703125zm0 0" fill="#96e8ff"/><path d="m259.410156 93h-35.25l9.203125-14.871094c3.859375-6.238281 3.339844-15.660156-1.179687-21.4375l-1.160156-1.492187c-12.089844-15.460938-13.519532-37.789063-3.640626-54.699219h35.25l-9.152343 14.789062c-3.859375 6.242188-3.339844 15.652344 1.179687 21.441407l1.160156 1.480469c12.113282 15.5 13.523438 37.867187 3.589844 54.789062zm0 0" fill="#96e8ff"/><path d="m259.410156 93h-20.25l9.203125-14.871094c3.859375-6.238281 3.339844-15.660156-1.179687-21.4375l-1.160156-1.492187c-12.089844-15.460938-13.519532-37.789063-3.640626-54.699219h20.25l-9.152343 14.789062c-3.859375 6.242188-3.339844 15.652344 1.179687 21.441407l1.160156 1.480469c12.113282 15.5 13.523438 37.867187 3.589844 54.789062zm0 0" fill="#19cffb"/><path d="m296.183594 56.6875c4.519531 5.78125 5.035156 15.199219 1.175781 21.441406l-9.199219 14.871094h35.25c9.9375-16.921875 8.519532-39.292969-3.589844-54.785156l-1.160156-1.488282c-4.519531-5.78125-5.035156-15.199218-1.175781-21.441406l9.148437-14.785156h-35.25c-9.878906 16.914062-8.449218 39.234375 3.640626 54.703125zm0 0" fill="#19cffb"/><path d="m457.269531 325.273438h-54.199219v-30h54.199219c8.273438 0 15-6.730469 15-15v-64.65625c0-8.273438-6.730469-15-15-15h-46.710937v-30h46.710937c24.816407 0 45 20.1875 45 45v64.65625c0 24.8125-20.1875 45-45 45zm0 0" fill="#ff1760"/><path d="m418.070312 133.078125v181.640625l-82.839843 127.453125h-189.058594l-82.84375-127.453125v-181.640625zm0 0" fill="#ff4a4a"/><path d="m512 412.171875v41.898437c0 31.800782-25.878906 57.679688-57.679688 57.679688h-396.640624c-31.800782 0-57.679688-25.878906-57.679688-57.679688v-41.898437zm0 0" fill="#96e8ff"/><path d="m175.722656 133.082031h30v79.109375h-30zm0 0" fill="#f7b800"/><path d="m190.945312 191.734375-52.472656 19.558594v100.367187h104.949219v-100.367187zm0 0" fill="#ffed4a"/><path d="m418.070312 133.078125v181.640625l-82.839843 127.453125h-77.960938v-309.09375zm0 0" fill="#ff1760"/><path d="m512 412.171875v41.898437c0 31.800782-25.878906 57.679688-57.679688 57.679688h-197.050781v-99.578125zm0 0" fill="#19cffb"/></svg>