<svg id="Capa_1" enable-background="new 0 0 512 512" height="512" viewBox="0 0 512 512" width="512" xmlns="http://www.w3.org/2000/svg"><g><g><path clip-rule="evenodd" d="m382.12 87.734h73.409v101.461c0 17.605-11.074 32.857-26.565 39.065 5.296 12.275 9.573 25.684 12.008 40.341 32.824-11.453 56.529-42.807 56.529-79.406v-113.396c0-16.556-13.509-30.078-30.021-30.078h-84.85c1.303 13.975.141 29.596-.51 42.013z" fill="#dfedff" fill-rule="evenodd"/></g><g><path clip-rule="evenodd" d="m290.5 386.844 74.91-83.176c22.94 20.695 24.781 56.103 4.078 79.065-20.674 22.963-56.047 24.806-78.988 4.111zm54.462 66.819c34.127 0 33.787 2.892 52.508-25.883 42.34-65.089 50.469-117.223 43.502-159.18-2.436-14.656-6.712-28.066-12.008-40.341-6.797-15.734-15.294-29.596-23.762-41.872-14.444-20.922-20.023-31.467-22.147-45.755-44.748 13.948-89.042 12.332-126.625 0-37.611-12.36-81.254-13.976-126.002 0-1.643 6.379-4.475 13.069-8.638 20.383-22.459 39.547-39.027 77.535-45.654 115.069 40.046-12.842 90.43.936 126.993 38.611 39.961 41.191 50.893 98.059 30.219 138.967h111.614zm-36.081-203.433c-19.882 23.7-55.142 26.761-78.818 6.889-23.648-19.873-26.735-55.196-6.854-78.867z" fill="#fff3da" fill-rule="evenodd"/></g><g><path clip-rule="evenodd" d="m230.063 257.119c23.677 19.873 58.937 16.811 78.818-6.889l-85.672-71.978c-19.882 23.672-16.795 58.994 6.854 78.867z" fill="#ffda8f" fill-rule="evenodd"/></g><g><path clip-rule="evenodd" d="m290.5 386.844c22.94 20.695 58.314 18.852 78.988-4.111 20.703-22.963 18.862-58.371-4.078-79.065z" fill="#ffda8f" fill-rule="evenodd"/></g><g><path clip-rule="evenodd" d="m229.921 490.743c10.507-10.206 11.782-26.223 3.427-37.081 20.675-40.908 9.743-97.776-30.219-138.967-36.563-37.676-86.947-51.453-126.993-38.611-3.738 1.219-7.364 2.636-10.904 4.281-10.592-8.675-26.622-7.853-37.129 2.325-10.479 10.206-11.753 26.223-3.399 37.081-20.675 40.908-9.743 97.776 30.191 138.967 39.961 41.191 96.406 53.806 137.897 34.331 10.592 8.702 26.622 7.88 37.129-2.326z" fill="#ffda8f" fill-rule="evenodd"/></g><g><path clip-rule="evenodd" d="m130.428 140.633c44.748-13.976 88.391-12.36 126.002 0 37.582 12.332 81.877 13.948 126.625 0-1.529-10.291-1.303-22.481-1.303-41.872 0-3.203.17-6.946.368-11.028.651-12.417 1.813-28.037.51-42.013-1.784-19.447-8.326-35.72-27.472-35.72h-26.877-44.946-44.804-.057-44.861-44.974-42.68c-25.093 0-34.807 17.718-16.115 37.988 11.81 12.814 24.271 28.746 33.334 47.173 5.44 11.06 9.634 23.052 8.841 35.546-.213 3.35-.762 6.674-1.591 9.926z" fill="#dfedff" fill-rule="evenodd"/></g><g><path d="m467.481 35.72h-76.09c-1.839-10.038-5.315-19.036-11.566-25.641-6.328-6.688-14.628-10.079-24.667-10.079h-71.822c-5.523 0-10.001 4.477-10.001 10.001s4.478 10.001 10.001 10.001h71.822c5.844 0 8.586 2.183 10.139 3.824 9.765 10.32 8.157 39.458 7.091 58.739-.327 5.93-.637 11.532-.637 16.197 0 2.382-.004 4.655-.007 6.829-.018 11.297-.028 20.135.481 27.779-37.999 10.283-76.787 9.538-112.673-2.237-37.537-12.336-77.864-13.691-117.5-4.084-.109-11.419-3.415-23.096-9.9-36.301-8.126-16.52-19.886-33.186-34.956-49.538-6.739-7.307-7.87-12.807-6.682-15.519 1.514-3.456 7.577-5.689 15.444-5.689h87.655c5.523 0 10.001-4.477 10.001-10.001s-4.478-10.001-10-10.001h-87.655c-16.54 0-28.847 6.438-33.764 17.664-4.896 11.175-1.143 24.698 10.296 37.103 13.767 14.937 24.437 30.013 31.712 44.803 3.526 7.18 6.606 14.783 7.594 22.776.862 6.978-.128 13.936-2.48 20.538-1.634 4.587-3.818 8.965-6.221 13.193-24.282 42.755-38.898 78.702-45.711 112.523-.37.143-.747.271-1.115.418-14.23-7.948-32.656-5.589-45.143 6.507-12.434 12.11-15.323 30.468-7.792 44.947-9.106 21.002-11.268 45.879-6.05 70.73 5.75 27.384 19.731 53.144 40.432 74.498 20.715 21.352 46.028 36.108 73.205 42.673 10.038 2.425 20.115 3.626 29.972 3.626 14.358 0 28.248-2.55 40.851-7.582 14.234 7.978 32.665 5.62 45.144-6.502h-.001c9.54-9.265 13.471-22.198 11.413-34.253h96.661c3.072 0 5.863.024 8.411.045 2.09.018 4.056.034 5.914.034 10.517 0 17.606-.533 24.411-4.428 7.88-4.511 13.283-12.445 22.155-26.082 34.974-53.77 50.697-105.021 46.731-152.329-.168-2.008-.382-3.988-.617-5.954 33.529-15.097 55.535-48.576 55.535-85.756v-113.393c0-22.1-17.954-40.079-40.021-40.079zm-34.073 178.45c-6.53-13.187-13.718-24.395-19.975-33.462-21.756-31.523-21.749-35.645-21.687-75.086.003-2.184.007-4.468.007-6.86 0-.33.005-.681.009-1.027h53.767v91.46c-.001 9.741-4.638 18.936-12.121 24.975zm-210.454 269.399c-6.785 6.589-17.023 7.353-23.812 1.772-2.981-2.448-7.103-2.966-10.598-1.326-38.507 18.075-90.515 4.818-126.467-32.239-35.948-37.08-47.645-89.507-28.445-127.495 1.735-3.434 1.347-7.56-1-10.61-5.373-6.983-4.321-17.223 2.431-23.798 3.749-3.631 8.549-5.489 13.243-5.489 3.809 0 7.547 1.224 10.593 3.719 2.981 2.442 7.098 2.953 10.589 1.315 3.107-1.46 6.31-2.693 9.577-3.748.188-.058.377-.115.561-.184 37.124-11.699 83.435 2.269 116.327 36.174 35.966 37.072 47.674 89.499 28.472 127.493-1.712 3.39-1.318 7.6 1 10.61 5.372 6.984 4.31 17.219-2.471 23.806zm166.134-61.242c-7.003 10.764-11.529 17.457-15.325 19.63-3.178 1.819-8.49 1.855-20.22 1.752-2.599-.022-5.446-.046-8.58-.046h-96.765c6.079-18.868 7.038-40.157 2.567-61.433-5.754-27.387-19.744-53.147-40.457-74.497-20.714-21.352-46.031-36.107-73.216-42.673-16.241-3.923-32.583-4.623-47.923-2.233 7.125-28.941 20.467-60.157 41.317-96.869 3.396-5.976 6.033-11.684 7.933-17.268 38.683-11.058 78.297-10.582 114.893 1.446 21.198 6.956 43.277 10.432 65.631 10.432 18.818 0 37.829-2.476 56.656-7.406 3.368 10.968 9.651 21.925 21.372 38.908 34.008 49.275 63.844 119.979-7.883 230.257zm98.412-233.132c0 27.569-15.375 52.563-39.232 65.312-1.846-7.589-4.124-14.794-6.69-21.598 14.632-9.53 23.951-26.061 23.951-43.713v-101.462c0-5.523-4.478-10.001-10.001-10.001h-62.85c.368-7.142.659-14.62.517-22.012h74.285c11.039 0 20.02 9.007 20.02 20.078z"/><path d="m271.764 279.977c17.545-1.53 33.448-9.812 44.778-23.32 3.548-4.229 2.998-10.533-1.229-14.084l-85.672-71.978c-2.031-1.706-4.655-2.539-7.299-2.306-2.643.23-5.085 1.5-6.791 3.531-23.395 27.853-19.772 69.553 8.082 92.959 11.998 10.07 26.831 15.452 42.296 15.452 1.936.001 3.884-.084 5.835-.254zm-35.268-30.514c-16.778-14.1-20.94-37.729-11.223-56.415l68.696 57.715c-6.87 5.288-15.107 8.518-23.943 9.288-12.21 1.066-24.126-2.695-33.53-10.588z"/><path d="m372.109 296.242c-1.97-1.777-4.565-2.703-7.216-2.561-2.651.137-5.138 1.322-6.914 3.294l-74.91 83.176c-3.695 4.102-3.366 10.421.732 14.119 12.209 11.014 27.737 16.969 44.058 16.969 1.164 0 2.334-.03 3.505-.091 17.59-.916 33.77-8.63 45.552-21.717 24.359-27.019 22.203-68.823-4.807-93.189zm-10.052 79.8c-8.211 9.12-19.48 14.494-31.732 15.131-8.87.459-17.454-1.591-24.981-5.868l60.065-66.692c12.194 17.171 11.326 41.148-3.352 57.429z"/><path d="m84.249 310.229c-3.939 3.872-3.992 10.204-.12 14.143l.028.029c1.954 1.988 4.531 2.983 7.111 2.983 2.531 0 5.067-.958 7.017-2.876 3.939-3.872 3.979-10.218.106-14.157-3.87-3.939-10.201-3.995-14.142-.122z"/><path d="m113.917 343.307c-5.523 0-10.001 4.477-10.001 10.001s4.478 10.001 10.001 10.001h.028c5.523 0 9.987-4.477 9.987-10.001s-4.492-10.001-10.015-10.001z"/><path d="m67.526 342.626c-5.523 0-10.001 4.477-10.001 10.001s4.478 10.001 10.001 10.001h.028c5.523 0 9.986-4.477 9.986-10.001s-4.491-10.001-10.014-10.001z"/><path d="m137.31 313.682c-5.523 0-10.001 4.477-10.001 10.001s4.478 10.001 10.001 10.001h.028c5.523 0 9.986-4.477 9.986-10.001s-4.491-10.001-10.014-10.001z"/><path d="m157.929 209.754c-5.523 0-10.001 4.477-10.001 10.001v.057c0 5.523 4.478 9.972 10.001 9.972s10.001-4.506 10.001-10.029c-.001-5.523-4.479-10.001-10.001-10.001z"/><path d="m326.157 215.78c5.523 0 10.001-4.506 10.001-10.029s-4.478-10.001-10.001-10.001-10.001 4.477-10.001 10.001v.057c0 5.523 4.478 9.972 10.001 9.972z"/><path d="m284.528 320.508c0-5.523-4.478-10.001-10.001-10.001s-10.001 4.477-10.001 10.001v.057c0 5.523 4.478 9.972 10.001 9.972s10.001-4.506 10.001-10.029z"/><path d="m378.523 267.574c5.523 0 10.001-4.506 10.001-10.029s-4.478-10.001-10.001-10.001-10.001 4.477-10.001 10.001v.057c.001 5.523 4.479 9.972 10.001 9.972z"/><path d="m238.474 20.001h.057c5.523 0 9.972-4.477 9.972-10.001s-4.506-10-10.029-10-10.001 4.477-10.001 10.001 4.478 10 10.001 10z"/></g></g></svg>