<svg height="512" viewBox="0 0 59 58" width="512" xmlns="http://www.w3.org/2000/svg"><g id="Page-1" fill="none" fill-rule="evenodd"><g id="018---Old-Kettle" fill-rule="nonzero"><path id="Shape" d="m11 39.97c0 .33.01.66.04.98-4.57324274-.4906115-8.04068811-4.3505165-8.04-8.95v-6.54c-.0001473-1.6228088-.33016191-3.2286531-.97-4.72l-1.95-4.35c-.13074515-.3086973-.09810735-.6623717.08692312-.9419286.18503046-.2795569.4978333-.4477983.83307688-.4480714h3.11c.37655821.0011413.72054976.2137203.89.55l1.73 3.92c.83759617 1.6624284 1.27263259 3.4984876 1.27 5.36v2.17c0 2.209139 1.790861 4 4 4h2.29c-2.1061167 2.5166023-3.2694799 5.6884465-3.29 8.97z" fill="#3b96d2"/><path id="Shape" d="m11.341 37.95c-.0397733.0001315-.0795164-.0022064-.119-.007-2.13503121-.2464014-3.98966378-1.5821153-4.9-3.529-.22864588-.5028553-.00635525-1.0958541.49650001-1.3245s1.0958541-.0063553 1.32449999.4965c.6197819 1.3128601 1.8761133 2.2103478 3.319 2.371.5253904.0624908.9111794.5234208.8801721 1.0516052-.0310073.5281843-.4680787.9408079-.9971721.9413948z" fill="#2980b9"/><path id="Shape" d="m49 39.97c-.1037453 4.740837-2.4484087 9.1519205-6.32 11.89-1.0985515.8289935-2.2858403 1.5333174-3.54 2.1-2.8650001 1.3210905-5.9851281 1.9970045-9.14 1.98-3.1564519.0115797-6.2779801-.660487-9.15-1.97-1.2493161-.5739735-2.432869-1.281423-3.53-2.11-3.5816831-2.5491048-5.874629-6.5325505-6.28-10.91-.03-.32-.04-.65-.04-.98.0205201-3.2815535 1.1838833-6.4533977 3.29-8.97 1.1365406-1.3956175 2.4825153-2.6066574 3.99-3.59 1.4006825-.8740217 2.3557552-2.3102761 2.62-3.94.0688066-.4869403.1022274-.9782275.1-1.47-.0615038-1.3869338-.4015933-2.7472919-1-4h20c-.5984067 1.2527081-.9384962 2.6130662-1 4 .0248086.6882928.122011 1.3720613.29 2.04.3493229 1.3927105 1.2189106 2.598682 2.43 3.37 4.44 2.92 7.28 7.46 7.28 12.56z" fill="#2980b9"/><path id="Shape" d="m46 39.97c.0021517 4.5408026-1.9340884 8.8666-5.322 11.89-.9066334.8160383-1.9073693 1.5210183-2.981 2.1-2.3547211 1.3058709-5.0044261 1.9874892-7.697 1.98-2.6915078.00143-5.3398841-.6761416-7.7-1.97-4.7992683-2.6414565-7.9154115-7.5527487-8.261-13.02-.026-.32-.034-.65-.034-.98.0069311-4.9059186 2.267375-9.5366762 6.131-12.56 1.2315283-.9664313 2.0257577-2.3849552 2.206-3.94.0562777-.4879312.0826603-.9788477.079-1.47-.0473691-1.3719769-.3322548-2.7253532-.842-4h16.842c-.5097452 1.2746468-.7946309 2.6280231-.842 4 .0204125.68591.1020705 1.3686244.244 2.04.2570171 1.3318739.9829129 2.5275087 2.046 3.37 3.8739312 3.0149705 6.1369946 7.6510944 6.131 12.56z" fill="#3b96d2"/><path id="Shape" d="m15.876 45c-.3939868.0003602-.7514655-.2306501-.913-.59-.6332674-1.3946192-.9615808-2.9083381-.963-4.44 0-3.91 2.16-7.576 5.928-10.058.4607382-.2926417 1.0710241-.1617756 1.371266.2940463.300242.4558219.1795143 1.0681941-.271266 1.3759537-3.196 2.105-5.028 5.162-5.028 8.388.0020076 1.2488931.2703068 2.4830012.787 3.62.139017.3092566.1118574.6678899-.0721477.9526836-.1840051.2847938-.4997871.4569484-.8388523.4573164z" fill="#fff"/><path id="Shape" d="m44 16c-.0081672 1.1011688-.8988312 1.9918328-2 2h-24c-1.1032019-.0032948-1.9967052-.8967981-2-2 .0081672-1.1011688.8988312-1.9918328 2-2h24c1.1032019.0032948 1.9967052.8967981 2 2z" fill="#bcc2c6"/><path id="Shape" d="m41 12c-.0081672 1.1011688-.8988312 1.9918328-2 2h-18c-1.1032019-.0032948-1.9967052-.8967981-2-2 .0081672-1.1011688.8988312-1.9918328 2-2h18c1.1032019.0032948 1.9967052.8967981 2 2z" fill="#efc319"/><path id="Shape" d="m38 10h-16c.0049563-3.31165334 2.6883467-5.99504366 6-6h4c3.3137085 0 6 2.6862915 6 6z" fill="#2980b9"/><path id="Shape" d="m36 10h-12c-.0278736-1.51857484.4350683-3.00560042 1.32-4.24.7168829-1.06217849 1.8992739-1.7165836 3.18-1.76h3c2.482 0 4.5 2.69 4.5 6z" fill="#3b96d2"/><path id="Shape" d="m34 2c.0028231.53059053-.2101411 1.0395388-.59 1.41-.3704612.3798589-.8794095.59282307-1.41.59h-4c-1.1032019-.0032948-1.9967052-.89679813-2-2-.0028231-.53059053.2101411-1.0395388.59-1.41.3704612-.3798589.8794095-.59282307 1.41-.59h4c1.1032019.0032948 1.9967052.89679813 2 2z" fill="#efc319"/><path id="Shape" d="m20.85 53.97-3.44 3.44c-.5037445.5037445-1.2379681.7004791-1.9260958.5160958-.6881278-.1843833-1.2256167-.7218722-1.41-1.41-.1843833-.6881277.0123513-1.4223513.5160958-1.9260958l2.73-2.73c1.097131.828577 2.2806839 1.5360265 3.53 2.11z" fill="#b08f46"/><path id="Shape" d="m20.86 53.96-.01.01" fill="#efc319"/><path id="Shape" d="m45.41 57.41c-.3720993.3774338-.8799866.5899281-1.41.5899281s-1.0379007-.2124943-1.41-.5899281l-3.45-3.45c1.2541597-.5666826 2.4414485-1.2710065 3.54-2.1l2.73 2.73c.3789438.3712876.5924878.8794787.5924878 1.41s-.213544 1.0387124-.5924878 1.41z" fill="#b08f46"/><path id="Shape" d="m53 47c-.0815835-.0001699-.1628446-.0102436-.242-.03-1.646-.411-4.758-2.4-4.758-7 0-5.227 1.539-7.994 5.219-12.595 2.4733666-3.2745818 3.8018728-7.271344 3.781-11.375-.0005264-2.707854-1.8147366-5.0797828-4.4279996-5.7892407-2.6132629-.7094579-5.3778778.4193951-6.747682 2.755227-1.3698042 2.3358318-1.0052898 5.2997032.8896816 7.2340137.2561473.2539118.3557194.6260832.2605819.973979-.0951375.3478959-.370242.6176061-.7199533.7058366-.3497114.0882305-.7198383-.0186911-.9686286-.2798156-2.5270773-2.5789242-3.0134644-6.5309698-1.1871154-9.64568 1.8263489-3.11471008 5.5127175-4.62000861 8.9972472-3.67395245s5.9034734 4.10895805 5.9038682 7.71963245c.0176279 4.5573577-1.4649591 8.9938736-4.219 12.625-3.528 4.41-4.781 6.787-4.781 11.345 0 4.148 3.117 5.027 3.25 5.062.4870977.1262772.8044924.594832.7410793 1.0940202-.0634132.4991883-.4878797.8735025-.9910793.8739798z" fill="#547580"/><circle id="Oval" cx="18" cy="47" fill="#fff" r="1"/></g></g></svg>