<svg height="512" viewBox="0 0 60 59" width="512" xmlns="http://www.w3.org/2000/svg"><g id="Page-1" fill="none" fill-rule="evenodd"><g id="005---Cocktails" fill-rule="nonzero"><path id="Shape" d="m32 36.3v15.15l9 6.55h-22l9-6.55v-15.15z" fill="#2fa8cc"/><path id="Shape" d="m20.02 29.52c-3.5479594 3.7843498-9.2575748 4.5756526-13.70099501 1.8988382-4.44342025-2.6768144-6.41282717-8.0941296-4.72585849-12.9995812 1.68696869-4.9054516 6.57175824-7.9656313 11.7217137-7.3433153 5.1499555.6223161 9.1652071 4.7579687 9.6351398 9.9240583z" fill="#e57e25"/><path id="Shape" d="m47.28 21h-34.56c-.4186996-.0000322-.7930899.2607843-.9381468.6535538-.1450569.3927694-.0300649.8343237.2881468 1.1064462l4.99 4.24 11.64 9.9c.7522338.6298417 1.8477662.6298417 2.6 0l11.64-9.9 4.99-4.24c.3182117-.2721225.4332037-.7136768.2881468-1.1064462-.1450569-.3927695-.5194472-.653586-.9381468-.6535538z" fill="#894b9d"/><path id="Shape" d="m47.93 22.76-4.99 4.24h-25.88l-4.99-4.24c-.3182117-.2721225-.4332037-.7136768-.2881468-1.1064462.1450569-.3927695.5194472-.653586.9381468-.6535538h34.56c.4186996-.0000322.7930899.2607843.9381468.6535538.1450569.3927694.0300649.8343237-.2881468 1.1064462z" fill="#2fa8cc"/><g fill="#f0c419"><path id="Shape" d="m12 17c-.5522847 0-1-.4477153-1-1v-2c0-.5522847.4477153-1 1-1s1 .4477153 1 1v2c0 .5522847-.4477153 1-1 1z"/><path id="Shape" d="m12 30c-.5522847 0-1-.4477153-1-1v-2c0-.5522847.4477153-1 1-1s1 .4477153 1 1v2c0 .5522847-.4477153 1-1 1z"/><path id="Shape" d="m8.111 18.611c-.26519481-.0000566-.51950727-.1054506-.707-.293l-1.414-1.418c-.3397768-.3967603-.31693227-.9881942.05243678-1.3575632.36936905-.3693691.96080294-.3922136 1.35756322-.0524368l1.418 1.41c.28590792.2859943.37142191.7160366.21667798 1.0896546-.15474393.3736179-.51928208.6172591-.92367798.6173454z"/><path id="Shape" d="m6.5 22.5h-2c-.55228475 0-1-.4477153-1-1s.44771525-1 1-1h2c.55228475 0 1 .4477153 1 1s-.44771525 1-1 1z"/><path id="Shape" d="m6.7 27.8c-.40188972-.0016616-.76373692-.2437563-.91862095-.6146054s-.07270769-.7983888.20862095-1.0853946l1.41-1.418c.2533013-.2533013.622496-.3522267.96851202-.259512s.61628529.362984.709.709-.00621071.7152107-.25951202.968512l-1.418 1.41c-.18626064.1847442-.43766012.2888954-.7.29z"/><path id="Shape" d="m15.889 18.611c-.4043959-.0000863-.7689341-.2437275-.923678-.6173454-.1547439-.373618-.0692299-.8036603.216678-1.0896546l1.418-1.414c.3967603-.3397768.9881942-.3169323 1.3575632.0524368.3693691.369369.3922136.9608029.0524368 1.3575632l-1.41 1.418c-.1884717.1885324-.4444197.2940075-.711.293z"/></g><path id="Shape" d="m27.9999915 21 .0000085-13c-.0015621-.53034006.2112047-1.0388166.59-1.41l6-6c.7787215-.7787215 2.0412785-.7787215 2.82 0s.7787215 2.0412785 0 2.82l-5.41 5.42v12.17z" fill="#ff5364"/><path id="Shape" d="m47.376 1.38c.432493 1.67308684.708349 3.38279159.824 5.107.0520666.2882805-.0976149.57524596-.3638238.69751361-.266209.12226764-.581423.048825-.7661762-.17851361-1.2307055-1.2132353-2.3455364-2.53864538-3.33-3.959-.5489546-1.03902582-.1569136-2.32633154.878-2.883 1.0972831-.42126328 2.3289025.12175674 2.758 1.216z" fill="#f0c419"/><path id="Shape" d="m54.435 16.778c-.9858511-1.4204123-2.1023791-2.7455152-3.335-3.958-.1839249-.2288955-.4998602-.3035501-.766786-.1811895-.2669258.1223607-.4165792.4104445-.363214.6991895.1154763 1.7242973.3916747 3.434049.825 5.107.2381648.7390855.8800091 1.2754184 1.6496521 1.3784694s1.5299735-.2455384 1.9541824-.8959357c.424209-.6503972.4367238-1.4867348.0321655-2.1495337z" fill="#894b9d"/><path id="Shape" d="m40.555 11.624c1.6730548-.4328305 3.38276-.7090214 5.107-.825.288745-.0533652.5768288.0962882.6991895.363214.1223606.2669258.047706.5828611-.1811895.766786-1.2126643 1.2312312-2.5377614 2.3464152-3.958 3.331-1.0393206.5490409-2.3269349.1570418-2.884-.878-.4205658-1.0975474.1227713-2.3288735 1.217-2.758z" fill="#ff5364"/><path id="Shape" d="m55.953 4.565c-1.4205714.98604667-2.7459886 2.10255754-3.959 3.335-.2273386.18475316-.3007812.49996723-.1785136.76617616s.4092331.41589043.6975136.36382384c1.7244557-.11711451 3.4342097-.3949872 5.107-.83 1.0942433-.42909748 1.6372633-1.6607169 1.216-2.758-.5570204-1.03454252-1.8442373-1.42611006-2.883-.877z" fill="#24ae5f"/><path id="Shape" d="m49.275 33.255c-.3022732 1.7014708-.7626006 3.3710363-1.375 4.987-.0726454.2841909-.3286712.4830031-.622.4830031s-.5493546-.1988122-.622-.4830031c-.6134209-1.6158627-1.0747533-3.2854304-1.378-4.987-.0913897-.7710355.2685773-1.5259399.9252048-1.9402925s1.4929629-.4143526 2.1495904 0 1.0165945 1.169257.9252048 1.9402925z" fill="#f0c419"/><path id="Shape" d="m49.275 50.194c-.3023053-1.7011379-.7626327-3.3703685-1.375-4.986-.0726454-.2841909-.3286712-.4830031-.622-.4830031s-.5493546.1988122-.622.4830031c-.6133889 1.6155304-1.0747212 3.2847633-1.378 4.986-.0948523.7730179.2642625 1.5314848.9223344 1.9480123.6580719.4165274 1.4972593.4165274 2.1553312 0 .6580719-.4165275 1.0171867-1.1749944.9223344-1.9480123z" fill="#894b9d"/><path id="Shape" d="m38.806 39.725c1.7011379.3023053 3.3703685.7626327 4.986 1.375.2841909.0726454.4830031.3286712.4830031.622s-.1988122.5493546-.4830031.622c-1.6155304.6133889-3.2847633 1.0747212-4.986 1.378-.7730179.0948523-1.5314848-.2642625-1.9480123-.9223344-.4165274-.6580719-.4165274-1.4972593 0-2.1553312.4165275-.6580719 1.1749944-1.0171867 1.9480123-.9223344z" fill="#ff5364"/><path id="Shape" d="m55.745 39.725c-1.7014708.3022732-3.3710363.7626006-4.987 1.375-.2841909.0726454-.4830031.3286712-.4830031.622s.1988122.5493546.4830031.622c1.6158627.6134209 3.2854304 1.0747533 4.987 1.378.7710355.0913897 1.5259399-.2685773 1.9402925-.9252048s.4143526-1.4929629 0-2.1495904-1.169257-1.0165945-1.9402925-.9252048z" fill="#24ae5f"/><path id="Shape" d="m4 59h-3c-.55228475 0-1-.4477153-1-1s.44771525-1 1-1h3c.55228475 0 1 .4477153 1 1s-.44771525 1-1 1z" fill="#3d324c"/><path id="Shape" d="m59 59h-51c-.55228475 0-1-.4477153-1-1s.44771525-1 1-1h51c.5522847 0 1 .4477153 1 1s-.4477153 1-1 1z" fill="#3d324c"/></g></g></svg>