<?xml version="1.0" encoding="iso-8859-1"?>
<!-- Generator: Adobe Illustrator 19.0.0, SVG Export Plug-In . SVG Version: 6.00 Build 0)  -->
<svg version="1.1" id="Layer_1" xmlns="http://www.w3.org/2000/svg" xmlns:xlink="http://www.w3.org/1999/xlink" x="0px" y="0px"
	 viewBox="0 0 512 512" style="enable-background:new 0 0 512 512;" xml:space="preserve">
<path style="fill:#485D6D;" d="M222.879,236.756c-0.15,0.06-0.291,0.12-0.441,0.17c-1.733,0.661-3.527,0.972-5.29,0.972
	c-5.902,0-11.503-3.497-13.897-9.288l-48.696-117.793c-3.116-7.545,0.341-16.152,7.745-19.469c0.13-0.06,0.271-0.11,0.401-0.17
	c7.675-3.166,16.463,0.481,19.629,8.156l48.696,117.793C234.201,224.792,230.554,233.579,222.879,236.756z"/>
<path style="fill:#3B5260;" d="M222.879,236.756c-0.15,0.06-0.291,0.12-0.441,0.17L162.299,91.348c0.13-0.06,0.271-0.11,0.401-0.17
	c7.675-3.166,16.463,0.481,19.629,8.156l48.696,117.793C234.201,224.792,230.554,233.579,222.879,236.756z"/>
<path style="fill:#B3DD6B;" d="M255.623,42.672c-0.541,8.817-4.91,16.853-12.004,22.094l-70.079,54.598l-78.135,60.88l-0.22,0.16
	c-5.14,3.707-11.212,5.641-17.394,5.641c-2.535,0-5.09-0.321-7.605-0.992c-8.597-2.254-15.641-8.166-19.328-16.222
	c-11.002-23.947-9.609-51.732,4.028-80.349c10.581-22.214,28.506-43.877,47.975-57.945c1.784-1.293,3.607-2.545,5.471-3.767
	C127.72,14.005,151.036,4.897,173.29,1.5c30.31-4.629,55.55,1.503,72.994,17.725C252.768,25.257,256.174,33.804,255.623,42.672z"/>
<path style="fill:#485D6D;" d="M456.34,29.987l-51.472,10.11l-64.397,182.521c-2.184,6.172-7.986,10.03-14.178,10.03
	c-1.613,0-3.256-0.261-4.86-0.812c-0.05-0.02-0.09-0.03-0.14-0.05c-7.825-2.755-11.934-11.342-9.168-19.168l67.253-190.607
	c0.04-0.13,0.09-0.24,0.14-0.361c0.1-0.261,0.21-0.531,0.321-0.782c0.1-0.22,0.21-0.441,0.311-0.651
	c0.11-0.21,0.22-0.421,0.341-0.621c0.13-0.24,0.271-0.471,0.421-0.701c0.11-0.17,0.22-0.341,0.341-0.511
	c0.16-0.23,0.331-0.461,0.511-0.691c0.12-0.15,0.251-0.311,0.381-0.461c0.18-0.21,0.371-0.411,0.561-0.611
	c0.15-0.16,0.301-0.311,0.461-0.471c0.18-0.17,0.371-0.341,0.561-0.501c0.19-0.17,0.381-0.321,0.581-0.481
	c0.17-0.13,0.341-0.261,0.521-0.391c0.23-0.16,0.461-0.321,0.701-0.471c0.16-0.1,0.331-0.2,0.501-0.301
	c0.25-0.15,0.511-0.281,0.772-0.411c0.17-0.09,0.351-0.18,0.531-0.261c0.261-0.11,0.511-0.22,0.772-0.321
	c0.21-0.09,0.431-0.16,0.651-0.23c0.23-0.08,0.461-0.16,0.701-0.23c0.261-0.07,0.531-0.13,0.802-0.19c0.13-0.03,0.25-0.08,0.391-0.1
	l59.898-11.773c7.876-1.543,15.521,3.367,17.465,11.062c0.07,0.261,0.13,0.521,0.18,0.792
	C469.797,20.488,464.487,28.383,456.34,29.987z"/>
<path style="fill:#3B5260;" d="M456.34,29.987l-51.472,10.11l-64.397,182.521c-2.184,6.172-7.986,10.03-14.178,10.03
	c-1.613,0-3.256-0.261-4.86-0.812l71.592-204.765l74.988-15.521c0.07,0.261,0.13,0.521,0.18,0.792
	C469.797,20.488,464.487,28.383,456.34,29.987z"/>
<path style="fill:#FF9248;" d="M321.404,47.782L289.28,225.533c-1.313,7.264-7.645,12.364-14.779,12.364
	c-0.882,0-1.784-0.08-2.685-0.24c-0.1-0.02-0.2-0.04-0.291-0.06c-8.006-1.613-13.286-9.338-11.833-17.404l32.134-177.762
	c1.473-8.166,9.288-13.597,17.465-12.114c0.15,0.03,0.291,0.05,0.431,0.09C317.646,32.071,322.846,39.766,321.404,47.782z"/>
<path style="fill:#F47B2A;" d="M321.404,47.782L289.28,225.533c-1.313,7.264-7.645,12.364-14.779,12.364
	c-0.882,0-1.784-0.08-2.685-0.24c-0.1-0.02-0.2-0.04-0.291-0.06l38.196-207.19C317.646,32.071,322.846,39.766,321.404,47.782z"/>
<path style="fill:#B3DD6B;" d="M439.197,292.266v55.019c0,43.837-17.174,85.148-48.376,116.34
	c-30.721,30.721-71.251,47.845-114.326,48.366c-0.671,0.01-1.333,0.01-2.004,0.01c-16.122,0-31.913-2.325-46.983-6.823
	c-10.401-3.096-20.46-7.234-30.059-12.364c-14.268-7.605-27.514-17.394-39.298-29.188c-31.192-31.192-48.376-72.503-48.376-116.34
	v-55.019c0-46.552,37.875-84.427,84.437-84.427h160.548C401.322,207.838,439.197,245.713,439.197,292.266z"/>
<g>
	<path style="fill:#A2C65C;" d="M439.197,292.266v55.019c0,43.837-17.174,85.148-48.376,116.34
		c-30.721,30.721-71.251,47.845-114.326,48.366V207.839h78.265C401.322,207.838,439.197,245.713,439.197,292.266z"/>
	<path style="fill:#A2C65C;" d="M227.508,413.636v91.541c-10.401-3.096-20.46-7.234-30.059-12.364v-79.177
		c0-8.296,6.723-15.03,15.03-15.03C220.774,398.606,227.508,405.339,227.508,413.636z"/>
	<path style="fill:#A2C65C;" d="M209.47,342.38c-8.3,0-15.03-6.729-15.03-15.03v-49.983c0-8.3,6.729-15.03,15.03-15.03
		c8.3,0,15.03,6.729,15.03,15.03v49.983C224.5,335.651,217.771,342.38,209.47,342.38z"/>
</g>
<path style="fill:#97B254;" d="M316.571,448.048c-8.3,0-15.03-6.729-15.03-15.03v-37.7c0-8.3,6.729-15.03,15.03-15.03
	s15.03,6.729,15.03,15.03v37.7C331.601,441.319,324.871,448.048,316.571,448.048z"/>
<path style="fill:#A2C65C;" d="M291.524,327.736v40.39c0,8.296-6.733,15.03-15.03,15.03c-8.306,0-15.03-6.733-15.03-15.03v-40.39
	c0-8.306,6.723-15.03,15.03-15.03C284.791,312.706,291.524,319.429,291.524,327.736z"/>
<g>
	<path style="fill:#97B254;" d="M291.524,327.736v40.39c0,8.296-6.733,15.03-15.03,15.03v-70.449
		C284.791,312.706,291.524,319.429,291.524,327.736z"/>
	<path style="fill:#97B254;" d="M345.893,347.758c-8.3,0-15.03-6.729-15.03-15.03v-40.39c0-8.3,6.729-15.03,15.03-15.03
		s15.03,6.729,15.03,15.03v40.39C360.923,341.029,354.193,347.758,345.893,347.758z"/>
</g>
<path style="fill:#A2C65C;" d="M255.623,42.672c-0.541,8.817-4.91,16.853-12.004,22.094l-70.079,54.598L108.332,26.77
	C127.72,14.005,151.036,4.897,173.29,1.5c30.31-4.629,55.55,1.503,72.994,17.725C252.768,25.257,256.174,33.804,255.623,42.672z"/>
<g>
</g>
<g>
</g>
<g>
</g>
<g>
</g>
<g>
</g>
<g>
</g>
<g>
</g>
<g>
</g>
<g>
</g>
<g>
</g>
<g>
</g>
<g>
</g>
<g>
</g>
<g>
</g>
<g>
</g>
</svg>
