<svg height="480pt" viewBox="-40 0 480 480.09836" width="480pt" xmlns="http://www.w3.org/2000/svg"><path d="m386.398438 168.097656 5.597656-64h-16c0 26.511719-21.488282 48-48 48-26.507813 0-48-21.488281-48-48h-176l-28.460938 40.65625 2.0625 23.34375zm0 0" fill="#e6e7e8"/><path d="m359.996094 152.097656c10.34375-.007812 20.398437-3.378906 28.65625-9.597656l3.34375-38.402344h-16c-.019532 20.324219-12.835938 38.433594-32 45.207032 5.136718 1.839843 10.546875 2.78125 16 2.792968zm0 0" fill="#bcbec0"/><path d="m135.996094 104.097656h-32l-28.460938 40.65625 2.03125 23.34375h32l-2.03125-23.34375zm0 0" fill="#bcbec0"/><path d="m99.839844 424.097656h-.019532l4.175782 48h256l4.179687-48zm0 0" fill="#d1d3d4"/><path d="m99.839844 424.097656h-.019532l4.175782 48h32l-4.175782-48zm0 0" fill="#a7a9ac"/><path d="m386.398438 168.097656h-308.800782l22.257813 256h264.320312zm-170.402344 216-61.8125-16.566406 16.558594-61.816406 61.824218 16.566406zm16-135.421875 55.425781-32 32 55.421875-55.425781 32zm104 143.421875h-64v-64h64zm0 0" fill="#ffb655"/><path d="m77.597656 168.097656h-.03125l22.253906 256h32l-22.253906-256zm0 0" fill="#ee8700"/><path d="m231.996094 248.675781 55.425781-32 32 55.421875-55.425781 32zm0 0" fill="#e6e7e8"/><path d="m262.925781 244.675781 30.496094-17.601562-6-10.398438-55.425781 32 32 55.421875 18-10.398437-22-38.097657c-2.207032-3.824218-.894532-8.71875 2.929687-10.925781zm0 0" fill="#bcbec0"/><path d="m271.996094 328.097656h64v64h-64zm0 0" fill="#e6e7e8"/><path d="m271.996094 328.097656h24v64h-24zm0 0" fill="#bcbec0"/><path d="m375.996094 104.097656c0 26.511719-21.488282 48-48 48-26.507813 0-48-21.488281-48-48 0-26.507812 21.492187-48 48-48 26.511718 0 48 21.492188 48 48zm0 0" fill="#cd2a00"/><path d="m311.996094 104.097656c.023437-20.324218 12.839844-38.433594 32-45.207031-19.902344-7.113281-42.121094-.371094-54.710938 16.609375s-12.589844 40.199219 0 57.179688c12.589844 16.980468 34.808594 23.726562 54.710938 16.609374-19.15625-6.773437-31.972656-24.871093-32-45.191406zm0 0" fill="#ab2300"/><path d="m154.179688 367.53125 16.566406-61.816406 61.820312 16.5625-16.566406 61.820312zm0 0" fill="#e6e7e8"/><path d="m180.246094 359.808594 12.886718-48.09375-22.398437-6-16.558594 61.816406 61.820313 16.566406 1.601562-6-31.695312-8.496094c-4.265625-1.144531-6.796875-5.527343-5.65625-9.792968zm0 0" fill="#bcbec0"/><path d="m87.324219 9.554688c-38.238281 6.738281-68.65625 35.851562-77.0625 73.761718s6.855469 77.152344 38.664062 99.421875l26.601563-37.984375 28.46875-40.65625 55.066406-78.640625c-20.84375-14.632812-46.660156-20.359375-71.738281-15.902343zm0 0" fill="#f9ed32"/><path d="m397.894531 98.691406c-1.515625-1.652344-3.65625-2.59375-5.898437-2.59375h-8.636719c-3.480469-23.851562-21.816406-42.808594-45.539063-47.078125 3.597657-13.214843 10.410157-25.332031 19.832032-35.265625 2.082031-2.007812 2.914062-4.984375 2.183594-7.78125-.734376-2.796875-2.917969-4.980468-5.714844-5.710937-2.796875-.734375-5.769532.101562-7.777344 2.179687-12.25 12.882813-20.859375 28.78125-24.945312 46.082032-25.132813 3.03125-45.113282 22.527343-48.761719 47.574218h-153.269531l46.230468-66.054687c2.53125-3.621094 1.648438-8.605469-1.96875-11.136719-22.492187-15.757812-50.320312-21.949219-77.375-17.207031-.113281 0-.207031 0-.320312 0-.113282 0-.183594.09375-.296875.117187-56.296875 10.023438-93.882813 63.703125-84.039063 120.035156v.3125c0 .101563.097656.214844.128906.335938 4.804688 27.03125 20.140626 51.054688 42.640626 66.789062 1.339843.945313 2.941406 1.449219 4.582031 1.449219.46875 0 .933593-.042969 1.394531-.128906 2.089844-.367187 3.949219-1.550781 5.167969-3.285156l13.972656-19.960938 26.511719 305.429688c.363281 4.144531 3.839844 7.320312 8 7.304687h256c4.160156.015625 7.640625-3.160156 8-7.304687l32-368c.1875-2.238281-.574219-4.453125-2.101563-6.101563zm-69.898437-34.59375c19.003906.023438 35.375 13.390625 39.203125 32h-78.402344c3.828125-18.609375 20.199219-31.976562 39.199219-32zm39.203125 48c-3.785157 18.644532-20.179688 32.039063-39.203125 32.039063-19.019532 0-35.414063-13.394531-39.199219-32.039063zm-94.5625 0c3.910156 27.292969 27.128906 47.664063 54.695312 47.992188 27.570313.328125 51.265625-19.480469 55.824219-46.671875l-4.0625 46.679687h-294.191406l-1.144532-13.144531 24.40625-34.855469zm84.203125 304h-249.640625l-20.914063-240h291.425782zm-276.113282-304h7.902344l-7.03125 10.039063zm-33.527343 59.199219c-13.613281-11.511719-23.382813-26.910156-28-44.125l23.144531-4.082031c4.265625-.851563 7.066406-4.953125 6.3125-9.238282-.757812-4.28125-4.800781-7.175781-9.097656-6.511718l-23.136719 4.078125c-1.550781-17.75 2.359375-35.554688 11.199219-51.023438l19.367187 13.542969c3.621094 2.535156 8.613281 1.65625 11.144531-1.96875 2.53125-3.617188 1.648438-8.601562-1.96875-11.132812l-19.253906-13.480469c11.476563-13.59375 26.824219-23.363281 44-28l4.078125 23.117187c.675781 3.820313 3.988281 6.601563 7.867188 6.609375.46875 0 .9375-.042969 1.398437-.128906 2.101563-.355469 3.976563-1.535156 5.203125-3.277344 1.230469-1.742187 1.710938-3.902343 1.339844-6l-4.078125-23.105469c2.480469-.214843 4.878906-.472656 7.40625-.472656 15.292969-.011718 30.316406 3.984375 43.585938 11.585938l-47.882813 68.414062h-27.832031c-2.246094-.007812-4.394532.929688-5.917969 2.585938-1.519531 1.652344-2.277344 3.871094-2.082031 6.109375l3.28125 37.753906zm64.132812 292.800781-2.78125-32h246.894531l-2.785156 32zm0 0"/><path d="m267.996094 311.027344 55.425781-32c3.828125-2.210938 5.136719-7.101563 2.929687-10.929688l-32-55.421875c-2.210937-3.828125-7.101562-5.136719-10.929687-2.929687l-55.425781 32c-3.824219 2.210937-5.136719 7.101562-2.925782 10.929687l32 55.421875c2.207032 3.828125 7.101563 5.136719 10.925782 2.929688zm-25.070313-59.425782 41.601563-24 24 41.601563-41.601563 24zm0 0"/><path d="m335.996094 320.097656h-64c-4.417969 0-8 3.582032-8 8v64c0 4.417969 3.582031 8 8 8h64c4.421875 0 8-3.582031 8-8v-64c0-4.417968-3.578125-8-8-8zm-8 64h-48v-48h48zm0 0"/><path d="m234.628906 314.554688-61.832031-16.570313c-4.265625-1.144531-8.65625 1.390625-9.800781 5.65625l-16.558594 61.824219c-1.144531 4.269531 1.386719 8.65625 5.65625 9.800781l61.816406 16.5625c.679688.179687 1.382813.269531 2.085938.269531 3.621094-.003906 6.785156-2.433594 7.722656-5.925781l16.558594-61.824219c1.140625-4.265625-1.386719-8.644531-5.648438-9.792968zm-24.285156 59.742187-46.402344-12.414063 12.425782-46.402343 46.398437 12.417969zm0 0"/><path d="m133.679688 290.417969c-3.210938-2.960938-8.152344-2.960938-11.363282 0-.703125.777343-1.273437 1.671875-1.679687 2.640625-1.425781 3.347656-.410157 7.238281 2.46875 9.464844 2.882812 2.226562 6.902343 2.226562 9.785156 0 2.878906-2.226563 3.894531-6.117188 2.46875-9.464844-.40625-.96875-.976563-1.863282-1.679687-2.640625zm0 0"/><path d="m191.996094 272.097656c2.679687.027344 5.1875-1.296875 6.671875-3.527344 1.484375-2.226562 1.746093-5.050781.691406-7.511718-.386719-.980469-.957031-1.875-1.679687-2.640625-3.210938-2.960938-8.152344-2.960938-11.363282 0-.722656.765625-1.292968 1.660156-1.679687 2.640625-1.054688 2.460937-.792969 5.285156.691406 7.511718 1.484375 2.230469 3.992187 3.554688 6.667969 3.527344zm0 0"/><path d="m151.996094 224.097656c-.027344-2.117187-.855469-4.144531-2.316406-5.679687l-1.203126-.960938c-.445312-.300781-.929687-.542969-1.4375-.71875-.480468-.242187-.996093-.40625-1.527343-.480469-1.53125-.328124-3.125-.15625-4.554688.480469-.976562.386719-1.875.957031-2.640625 1.679688-1.464844 1.53125-2.292968 3.5625-2.320312 5.679687.042968 2.09375.871094 4.09375 2.320312 5.601563 2.28125 2.296875 5.71875 2.996093 8.710938 1.769531 2.996094-1.226562 4.957031-4.136719 4.96875-7.371094zm0 0"/><path d="m349.679688 210.417969c-2.289063-2.308594-5.746094-3-8.75-1.753907-3 1.246094-4.949219 4.183594-4.933594 7.433594 0 4.417969 3.582031 8 8 8 4.421875 0 8-3.582031 8-8-.027344-2.117187-.855469-4.144531-2.316406-5.679687zm0 0"/></svg>