<?xml version="1.0" encoding="iso-8859-1"?>
<!-- Generator: Adobe Illustrator 19.0.0, SVG Export Plug-In . SVG Version: 6.00 Build 0)  -->
<svg version="1.1" id="Capa_1" xmlns="http://www.w3.org/2000/svg" xmlns:xlink="http://www.w3.org/1999/xlink" x="0px" y="0px"
	 viewBox="0 0 512 512" style="enable-background:new 0 0 512 512;" xml:space="preserve">
<path style="fill:#B2D7F3;" d="M411.838,504.492H165.606c-32.786-32.786-51.169-51.169-83.955-83.955V218.779
	c32.786-32.786,51.169-51.169,83.955-83.955h246.232c32.786,32.786,51.169,51.169,83.955,83.955v201.758
	C463.007,453.323,444.624,471.706,411.838,504.492z"/>
<path style="fill:#78B8EA;" d="M149.583,302.01v101.336l67.315,67.315h203.711c26.288-26.288,41.027-41.027,67.315-67.315V302.01
	L149.583,302.01L149.583,302.01z"/>
<path style="fill:#AA2300;" d="M119.552,302.01v101.336l67.315,67.315h203.711c26.288-26.288,41.027-41.027,67.315-67.315V302.01
	L119.552,302.01L119.552,302.01z"/>
<rect x="175.514" y="71.755" style="fill:#FF9711;" width="226.428" height="63.066"/>
<g>
	<polygon style="fill:#CC2A00;" points="483.819,8.191 175.51,35.052 175.51,71.757 453.788,71.757 483.819,41.726 	"/>
	<polygon style="fill:#CC2A00;" points="16.21,278.889 16.21,71.757 175.51,71.757 175.51,117.806 49.836,117.806 49.836,264.96 
		33.446,278.889 	"/>
</g>
<path style="fill:#78B8EA;" d="M121.693,218.779c32.786-32.786,51.169-51.169,83.955-83.955h-40.042
	c-32.786,32.786-51.169,51.169-83.955,83.955v201.758c32.786,32.786,51.169,51.169,83.955,83.955h40.042
	c-32.786-32.786-51.169-51.169-83.955-83.955C121.693,420.537,121.693,218.779,121.693,218.779z"/>
<polygon style="fill:#781900;" points="149.583,302.01 119.552,302.01 119.552,403.347 186.866,470.662 216.898,470.662 
	149.583,403.347 "/>
<rect x="175.514" y="71.755" style="fill:#CB7400;" width="30.032" height="63.066"/>
<g>
	<polygon style="fill:#AA2300;" points="483.819,10.807 483.819,8.191 175.51,35.053 175.51,71.757 205.542,71.757 205.542,35.053 	
		"/>
	<polygon style="fill:#AA2300;" points="36.231,71.757 16.21,71.757 16.21,278.889 33.446,278.889 36.231,276.524 	"/>
</g>
<g>
	<rect x="406.908" y="326.853" style="fill:#FFFFFF;" width="15.016" height="15.016"/>
	<rect x="381.881" y="326.853" style="fill:#FFFFFF;" width="15.016" height="15.016"/>
	<rect x="279.704" y="326.853" style="fill:#FFFFFF;" width="92.157" height="15.016"/>
	<rect x="367.526" y="92.938" style="fill:#FFFFFF;" width="15.016" height="15.016"/>
	<rect x="240.333" y="92.938" style="fill:#FFFFFF;" width="92.157" height="15.016"/>
	<rect x="342.5" y="92.938" style="fill:#FFFFFF;" width="15.016" height="15.016"/>
	<rect x="271.695" y="167.816" style="fill:#FFFFFF;" width="15.016" height="15.016"/>
	<path style="fill:#FFFFFF;" d="M441.886,237.25l10.618-10.617c-26.289-26.289-30.33-30.33-56.618-56.618l-2.199-2.199h-71.938
		v15.016h65.718L441.886,237.25z"/>
	<rect x="296.722" y="167.816" style="fill:#FFFFFF;" width="15.016" height="15.016"/>
</g>
<g>
	<rect x="90.515" y="83.598" style="fill:#1D1D1F;" width="15.016" height="15.016"/>
	<rect x="65.489" y="83.598" style="fill:#1D1D1F;" width="15.016" height="15.016"/>
	<rect x="115.551" y="83.598" style="fill:#1D1D1F;" width="15.016" height="15.016"/>
	<rect x="140.578" y="83.598" style="fill:#1D1D1F;" width="15.016" height="15.016"/>
	<polygon style="fill:#1D1D1F;" points="487.27,199.64 476.652,210.258 488.284,221.888 488.284,417.427 408.728,496.984 
		168.715,496.984 89.158,417.427 89.158,285.054 74.142,285.054 74.142,423.647 162.495,512 414.948,512 503.3,423.647 
		503.3,215.668 	"/>
	<path style="fill:#1D1D1F;" d="M465.35,333.302v-0.04h0.051v-38.711l-353.361-0.05v111.958l71.695,71.695l209.95,0.02l2.202-2.202
		c26.288-26.288,41.023-41.033,67.311-67.321l2.182-2.182l0.021-58.201l-15.016-0.05v52.015
		c-19.721,19.721-33.006,33.005-50.333,50.333l-12.583,12.583H189.972l-62.916-62.916v-90.715h323.33v23.745L465.35,333.302z"/>
	<path style="fill:#1D1D1F;" d="M424.953,64.25L424.953,64.25H183.017V41.934l293.293-25.553v16.085H398.49l-0.05,14.966
		l69.015,0.04L450.677,64.25h-10.708v15.016h16.929l34.43-34.43V0L168.002,28.17v36.08H8.7v222.148h27.504l21.138-17.964v-143.12
		h15.105v-15.016H42.326v151.19l-11.641,9.893h-6.969V79.265h144.286v31.033H87.463v15.016h80.539v2.002h-5.507l-88.353,88.353
		v54.369h15.016v-48.15l79.558-79.557h240.012l57.314,57.314l10.617-10.618l-61.711-61.712h-5.508v-48.05h15.512L424.953,64.25
		 M394.424,127.316H183.017v-48.05h211.407V127.316z"/>
	<polygon style="fill:#1D1D1F;" points="112.04,231.886 112.04,273.299 127.056,273.349 127.056,231.936 	"/>
	<polygon style="fill:#1D1D1F;" points="196.898,444.259 297.104,444.309 297.104,429.343 196.898,429.293 	"/>
</g>
<g>
</g>
<g>
</g>
<g>
</g>
<g>
</g>
<g>
</g>
<g>
</g>
<g>
</g>
<g>
</g>
<g>
</g>
<g>
</g>
<g>
</g>
<g>
</g>
<g>
</g>
<g>
</g>
<g>
</g>
</svg>
