<svg height="464pt" viewBox="0 -40 464 464" width="464pt" xmlns="http://www.w3.org/2000/svg"><path d="m72 160 64 64 16-32-8-32-48-16zm0 0" fill="#edae00"/><path d="m368 80h16v80h-16zm0 0" fill="#b08149"/><path d="m368 152h40c30.929688 0 56 25.070312 56 56s-25.070312 56-56 56h-40v-32h40c13.253906 0 24-10.746094 24-24s-10.746094-24-24-24h-40zm0 0" fill="#edae00"/><path d="m112 216c0 57.4375 46.5625 104 104 104h80c57.4375 0 104-46.5625 104-104 0-70.691406-57.308594-128-128-128h-32c-70.691406 0-128 57.308594-128 128zm0 0" fill="#f19601"/><path d="m192 152h128c17.671875 0 32-14.328125 32-32v-3.832031c-22.664062-18.253907-50.898438-28.195313-80-28.167969h-32c-29.101562-.027344-57.335938 9.914062-80 28.167969v3.832031c0 17.671875 14.328125 32 32 32zm0 0" fill="#edae00"/><path d="m232 72c0-13.253906 10.746094-24 24-24s24 10.746094 24 24c0 8.835938-7.164062 16-16 16h-16c-8.835938 0-16-7.164062-16-16zm0 0" fill="#edae00"/><path d="m0 200v48c0 39.765625 32.234375 72 72 72s72-32.234375 72-72v-48zm0 0" fill="#ad2938"/><path d="m64 200v48c0 39.765625 32.234375 72 72 72s72-32.234375 72-72v-48zm0 0" fill="#e6364b"/><path d="m80 136h-16v-8c0-4.417969-3.582031-8-8-8h-24c-13.253906 0-24-10.746094-24-24s10.746094-24 24-24h72c4.417969 0 8-3.582031 8-8s-3.582031-8-8-8h-16c-13.253906 0-24-10.746094-24-24v-16h16v16c0 4.417969 3.582031 8 8 8h16c13.253906 0 24 10.746094 24 24s-10.746094 24-24 24h-72c-4.417969 0-8 3.582031-8 8s3.582031 8 8 8h24c13.253906 0 24 10.746094 24 24zm0 0" fill="#f4e5d9"/><path d="m328 0c26.507812 0 48 21.492188 48 48v40c-26.507812 0-48-21.492188-48-48zm0 0" fill="#166d4c"/><path d="m464 56c0 26.507812-21.492188 48-48 48h-40c0-26.507812 21.492188-48 48-48zm0 0" fill="#1d9166"/><path d="m16 336h432v48h-432zm0 0" fill="#b08149"/><path d="m0 320h464v32h-464zm0 0" fill="#c09a6d"/></svg>