<svg id="morning_x5F_muffin" enable-background="new 0 0 300 300" height="512" viewBox="0 0 300 300" width="512" xmlns="http://www.w3.org/2000/svg"><g><circle cx="129.712" cy="162.023" fill="#eaeaea" r="92"/><g fill="#4c241d"><path d="m77.606 74.107c-2.207 0-3.998-1.787-4-3.996l-.01-8c-.002-2.209 1.785-4.002 3.994-4.004h.006c2.207 0 3.998 1.787 4 3.996l.01 8c.002 2.209-1.785 4.002-3.994 4.004-.002 0-.004 0-.006 0z"/><path d="m77.633 98.107c-2.207 0-3.998-1.787-4-3.996l-.01-8c-.002-2.209 1.785-4.002 3.994-4.004h.006c2.207 0 3.998 1.787 4 3.996l.01 8c.002 2.209-1.785 4.002-3.994 4.004-.002 0-.004 0-.006 0z"/><path d="m61.614 82.125c-2.207 0-3.998-1.787-4-3.994-.002-2.211 1.785-4.004 3.996-4.006l8-.01h.004c2.207 0 3.998 1.787 4 3.994.002 2.211-1.785 4.004-3.996 4.006l-8 .01s-.002 0-.004 0z"/><path d="m85.614 82.098c-2.207 0-3.998-1.787-4-3.994-.002-2.211 1.785-4.004 3.996-4.006l8-.01h.004c2.207 0 3.998 1.787 4 3.994.002 2.211-1.785 4.004-3.996 4.006l-8 .01s-.002 0-.004 0z"/><path d="m211.704 70c-3.732 0-7.244-1.451-9.889-4.088-2.646-2.643-4.107-6.156-4.111-9.896s1.447-7.256 4.088-9.904c2.643-2.646 6.156-4.107 9.896-4.111h.016c3.732 0 7.244 1.451 9.889 4.088 2.646 2.643 4.107 6.156 4.111 9.896s-1.447 7.256-4.088 9.904c-2.643 2.646-6.156 4.107-9.896 4.111-.005 0-.01 0-.016 0zm0-20c-.004 0-.006 0-.008 0-1.602.002-3.107.627-4.24 1.762-1.131 1.135-1.754 2.643-1.752 4.246.002 1.602.627 3.107 1.762 4.24 1.133 1.129 2.639 1.752 4.238 1.752h.008c1.602-.002 3.107-.627 4.24-1.762 1.131-1.135 1.754-2.643 1.752-4.246-.002-1.602-.627-3.107-1.762-4.24-1.133-1.129-2.639-1.752-4.238-1.752z"/><circle cx="262.02" cy="108.493" r="4.276"/><circle cx="138.02" cy="112.493" r="4.276"/><circle cx="38.02" cy="48.493" r="4.276"/></g><g><path d="m161.704 254h-74.625c-16.223 0-29.375-13.152-29.375-29.375v-66.625h104z" fill="#fff"/><path d="m161.704 258h-74.625c-18.402 0-33.375-14.973-33.375-33.375v-66.625c0-2.209 1.791-4 4-4h104c2.209 0 4 1.791 4 4v96c0 2.209-1.791 4-4 4zm-100-96v62.625c0 13.992 11.383 25.375 25.375 25.375h70.625v-88z" fill="#4c241d"/></g><path d="m57.704 226c-13.127 0-23.807-10.68-23.807-23.807 0-13.514 10.68-24.193 23.807-24.193 2.209 0 4 1.791 4 4v40c0 2.209-1.791 4-4 4zm-4-39.488c-6.785 1.777-11.807 7.961-11.807 15.295 0 7.66 5.021 13.895 11.807 15.68z" fill="#4c241d"/><g><path d="m93.704 158h-12-12-12v34c0 3.314 2.686 6 6 6s6-2.686 6-6v-12c0 3.314 2.686 6 6 6s6-2.686 6-6v28c0 3.314 2.686 6 6 6s6-2.686 6-6v-24c0 3.314 2.686 6 6 6s6-2.686 6-6v-26z" fill="#bf7e68"/><path d="m87.704 218c-5.514 0-10-4.486-10-10v-18.201c-1.293.266-2.707.266-4 0v2.201c0 5.514-4.486 10-10 10s-10-4.486-10-10v-34c0-2.209 1.791-4 4-4h48c2.209 0 4 1.791 4 4v26c0 5.514-4.486 10-10 10-.686 0-1.354-.068-2-.201v14.201c0 5.514-4.487 10-10 10zm-2-38v28c0 1.104.896 2 2 2s2-.896 2-2v-24c0-2.209 1.791-4 4-4s4 1.791 4 4c0 1.104.896 2 2 2s2-.896 2-2v-22h-40v30c0 1.104.896 2 2 2s2-.896 2-2v-12c0-2.209 1.791-4 4-4s4 1.791 4 4c0 1.104.896 2 2 2s2-.896 2-2c0-2.209 1.791-4 4-4s4 1.791 4 4z" fill="#4c241d"/></g><g><path d="m217.939 162.004c-.467 0-.905.106-1.364.138-4.26-15.273-18.24-26.49-34.871-26.49s-30.611 11.218-34.871 26.49c-.459-.032-.897-.138-1.364-.138-10.916 0-19.765 8.849-19.765 19.765s8.849 19.765 19.765 19.765c4.161 0 8.011-1.299 11.196-3.495 6.508 6.233 15.317 10.083 25.04 10.083s18.531-3.851 25.04-10.083c3.185 2.196 7.035 3.495 11.196 3.495 10.916 0 19.765-8.849 19.765-19.765s-8.851-19.765-19.767-19.765z" fill="#d9be6f"/><path d="m181.704 212.121c-9.369 0-18.318-3.23-25.512-9.154-3.316 1.686-6.969 2.566-10.723 2.566-13.104 0-23.766-10.66-23.766-23.764 0-12.594 9.848-22.932 22.248-23.717 5.748-15.691 20.846-26.4 37.752-26.4s32.004 10.709 37.752 26.4c12.4.785 22.248 11.123 22.248 23.717 0 13.104-10.662 23.764-23.766 23.764-3.754 0-7.406-.881-10.723-2.566-7.192 5.924-16.141 9.154-25.51 9.154zm-25.041-18.082c1.004 0 2.002.377 2.77 1.111 6.039 5.785 13.949 8.971 22.271 8.971s16.232-3.186 22.271-8.971c1.371-1.309 3.473-1.486 5.037-.404 2.646 1.822 5.732 2.787 8.926 2.787 8.693 0 15.766-7.072 15.766-15.764 0-8.684-7.059-15.75-15.738-15.766-.559.074-.828.109-1.102.129-1.906.109-3.631-1.082-4.143-2.916-3.869-13.875-16.625-23.564-31.018-23.564s-27.148 9.689-31.018 23.564c-.514 1.834-2.244 3.049-4.143 2.916-.275-.021-.545-.055-.816-.094-9.119-.059-16.025 7.039-16.023 15.73 0 8.691 7.072 15.764 15.766 15.764 3.193 0 6.279-.965 8.926-2.787.688-.474 1.481-.706 2.268-.706z" fill="#4c241d"/></g><g><path d="m237.704 188c0-5.155-4.179-9.333-9.333-9.333-5.155 0-9.333 4.179-9.333 9.333 0 .688 0 .688 0 0 0-5.155-4.179-9.333-9.333-9.333s-9.333 4.179-9.333 9.333c0 .688 0 .688 0 0 0-5.155-4.179-9.333-9.333-9.333-5.155 0-9.333 4.179-9.333 9.333 0 .688 0 .688 0 0 0-5.155-4.179-9.333-9.333-9.333-5.155 0-9.333 4.179-9.333 9.333 0 .688 0 .688 0 0 0-5.155-4.179-9.333-9.333-9.333s-9.333 4.179-9.333 9.333c0 .688 0 .688 0 0 0-5.155-4.179-9.333-9.333-9.333-5.155 0-9.333 4.179-9.333 9.333 0 .688.085 1.354.227 2l13.292 64h82.471l15.783-64c.137-.646.223-1.312.223-2z" fill="#efefd2"/><path d="m221.694 258h-82.471c-1.896 0-3.531-1.33-3.916-3.188l-13.293-64c-.207-.945-.311-1.879-.311-2.812 0-7.352 5.982-13.334 13.334-13.334 3.631 0 6.926 1.459 9.332 3.82 2.406-2.361 5.703-3.82 9.334-3.82s6.928 1.459 9.334 3.82c2.406-2.361 5.701-3.82 9.332-3.82s6.928 1.459 9.334 3.82c2.406-2.361 5.703-3.82 9.334-3.82s6.926 1.459 9.332 3.82c2.406-2.361 5.703-3.82 9.334-3.82s6.928 1.459 9.334 3.82c2.406-2.361 5.701-3.82 9.332-3.82 7.352 0 13.334 5.982 13.334 13.334 0 .934-.104 1.867-.318 2.85l-15.809 64.107c-.439 1.787-2.042 3.043-3.882 3.043zm-79.217-8h76.084l15.033-60.957c.064-.311.109-.688.109-1.043 0-2.941-2.393-5.334-5.334-5.334-2.939 0-5.332 2.393-5.332 5.334v.516c0 2.209-1.791 4-4 4s-4-1.791-4-4v-.516c0-2.941-2.393-5.334-5.334-5.334s-5.334 2.393-5.334 5.334v.516c0 2.209-1.791 4-4 4s-4-1.791-4-4v-.516c0-2.941-2.393-5.334-5.332-5.334-2.941 0-5.334 2.393-5.334 5.334v.516c0 2.209-1.791 4-4 4s-4-1.791-4-4v-.516c0-2.941-2.393-5.334-5.334-5.334-2.939 0-5.332 2.393-5.332 5.334v.516c0 2.209-1.791 4-4 4s-4-1.791-4-4v-.516c0-2.941-2.393-5.334-5.334-5.334s-5.334 2.393-5.334 5.334v.516c0 2.209-1.791 4-4 4s-4-1.791-4-4v-.516c0-2.941-2.393-5.334-5.332-5.334-2.941 0-5.334 2.393-5.334 5.334 0 .355.045.732.135 1.15z" fill="#4c241d"/></g><g><path d="m206.361 253.1 7.343-43.1" fill="#efefd2"/><path d="m206.366 257.1c-.223 0-.447-.018-.676-.057-2.178-.371-3.643-2.438-3.271-4.615l7.342-43.1c.373-2.176 2.428-3.65 4.615-3.271 2.178.371 3.643 2.438 3.271 4.615l-7.342 43.1c-.332 1.949-2.025 3.328-3.939 3.328z" fill="#4c241d"/></g><g><path d="m157.046 253.1-7.342-43.1" fill="#efefd2"/><path d="m157.042 257.1c-1.914 0-3.607-1.377-3.939-3.328l-7.342-43.1c-.371-2.178 1.094-4.244 3.271-4.615 2.172-.373 4.244 1.094 4.615 3.271l7.342 43.1c.371 2.178-1.094 4.244-3.271 4.615-.227.039-.454.057-.676.057z" fill="#4c241d"/></g><g><path d="m181.704 206v48" fill="#efefd2"/><path d="m181.704 258c-2.209 0-4-1.791-4-4v-48c0-2.209 1.791-4 4-4s4 1.791 4 4v48c0 2.209-1.791 4-4 4z" fill="#4c241d"/></g><circle cx="169.731" cy="159.825" fill="#4c241d" r="4.276"/><circle cx="193.731" cy="159.797" fill="#4c241d" r="4.276"/><path d="m261.704 258h-44c-2.209 0-4-1.791-4-4s1.791-4 4-4h44c2.209 0 4 1.791 4 4s-1.791 4-4 4z" fill="#4c241d"/><path d="m101.704 258h-64c-2.209 0-4-1.791-4-4s1.791-4 4-4h64c2.209 0 4 1.791 4 4s-1.791 4-4 4z" fill="#4c241d"/></g></svg>