<svg height="512pt" viewBox="-117 0 512 512" width="512pt" xmlns="http://www.w3.org/2000/svg"><path d="m138.667969 448c-56.898438 0-117.335938 18.6875-117.335938 53.332031 0 5.890625 4.78125 10.667969 10.667969 10.667969h213.332031c5.890625 0 10.667969-4.777344 10.667969-10.667969 0-34.644531-60.4375-53.332031-117.332031-53.332031zm0 0" fill="#cfd8dc"/><path d="m249.449219 21.886719-4.605469-14.421875c-1.386719-4.433594-5.527344-7.464844-10.175781-7.464844h-190.421875c-4.4375 0-8.425782 2.753906-9.984375 6.890625-10.304688 27.308594-34.261719 94.761719-34.261719 131.777344 0 76.457031 62.207031 138.664062 138.667969 138.664062 76.457031 0 138.664062-62.207031 138.664062-138.664062 0-30.144531-16.105469-80.214844-27.882812-116.78125zm0 0" fill="#eceff1"/><path d="m138.667969 256c-53.589844 0-98.816407-36.160156-112.789063-85.332031h225.578125c-13.972656 49.171875-59.199219 85.332031-112.789062 85.332031zm0 0" fill="#f44336"/><path d="m138.667969 277.332031c-76.460938 0-138.667969-62.207031-138.667969-138.664062 0-36.972657 23.957031-104.46875 34.238281-131.757813 1.582031-4.15625 5.546875-6.910156 9.984375-6.910156h190.445313c4.671875 0 8.765625 3.03125 10.175781 7.464844l4.628906 14.421875c11.753906 36.566406 27.859375 86.636719 27.859375 116.78125 0 76.457031-62.207031 138.664062-138.664062 138.664062zm-87.019531-256c-15.105469 41.046875-30.316407 91.457031-30.316407 117.335938 0 64.703125 52.652344 117.332031 117.335938 117.332031 64.679687 0 117.332031-52.628906 117.332031-117.332031 0-26.796875-16.171875-77.015625-26.859375-110.230469l-2.261719-7.105469zm0 0"/><path d="m138.667969 469.332031c-5.890625 0-10.667969-4.777343-10.667969-10.664062v-192c0-5.890625 4.777344-10.667969 10.667969-10.667969 5.886719 0 10.664062 4.777344 10.664062 10.667969v192c0 5.886719-4.777343 10.664062-10.664062 10.664062zm0 0"/><path d="m245.332031 512h-213.332031c-5.886719 0-10.667969-4.777344-10.667969-10.667969 0-34.644531 60.460938-53.332031 117.335938-53.332031s117.332031 18.6875 117.332031 53.332031c0 5.890625-4.777344 10.667969-10.667969 10.667969zm-195.710937-21.332031h178.089844c-13.375-10.773438-45.3125-21.335938-89.042969-21.335938-43.734375 0-75.671875 10.5625-89.046875 21.335938zm0 0"/><path d="m256 170.667969h-234.667969c-5.886719 0-10.664062-4.78125-10.664062-10.667969s4.777343-10.667969 10.664062-10.667969h234.667969c5.886719 0 10.667969 4.78125 10.667969 10.667969s-4.78125 10.667969-10.667969 10.667969zm0 0"/></svg>