<?xml version="1.0" encoding="iso-8859-1"?>
<!-- Generator: Adobe Illustrator 19.0.0, SVG Export Plug-In . SVG Version: 6.00 Build 0)  -->
<svg version="1.1" id="Capa_1" xmlns="http://www.w3.org/2000/svg" xmlns:xlink="http://www.w3.org/1999/xlink" x="0px" y="0px"
	 viewBox="0 0 480 480" style="enable-background:new 0 0 480 480;" xml:space="preserve">
<g>
	<path style="fill:#FFCD00;" d="M264,120H8v240c0,61.856,50.144,112,112,112h144c61.856,0,112-50.144,112-112V120H264z M312,360h-96
		V256l32-24h32l32,24V360z"/>
	<path style="fill:#FFCD00;" d="M440,120h-64v32h48c8.837,0,16,7.163,16,16v64c0,8.837-7.163,16-16,16h-48v32h64
		c17.673,0,32-14.327,32-32v-96C472,134.327,457.673,120,440,120z"/>
</g>
<path style="fill:#64C37D;" d="M216,256v104h96V256l-32-24h-16h-16L216,256z"/>
<path d="M176.32,96h16c0-4.592,1.672-6.528,5.456-10.472c11.898-10.206,13.27-28.126,3.064-40.024
	c-0.942-1.098-1.966-2.122-3.064-3.064c-3.784-3.944-5.456-5.88-5.456-10.44s1.672-6.504,5.448-10.44
	c6.249-5.428,9.86-13.283,9.912-21.56h-16c0,4.576-1.672,6.504-5.448,10.448c-11.892,10.187-13.274,28.085-3.087,39.977
	c0.948,1.107,1.98,2.139,3.087,3.087c3.784,3.944,5.456,5.88,5.456,10.472s-1.672,6.528-5.456,10.472
	C179.996,79.887,176.387,87.731,176.32,96z"/>
<path d="M96.32,96h16c0-4.592,1.672-6.528,5.456-10.472c11.898-10.206,13.27-28.126,3.064-40.024
	c-0.942-1.098-1.966-2.122-3.064-3.064c-3.784-3.944-5.456-5.88-5.456-10.44s1.672-6.504,5.448-10.44
	c6.249-5.428,9.86-13.283,9.912-21.56h-16c0,4.576-1.672,6.504-5.448,10.448c-11.892,10.187-13.274,28.085-3.087,39.977
	c0.948,1.107,1.98,2.139,3.087,3.087c3.784,3.944,5.456,5.88,5.456,10.472s-1.672,6.528-5.456,10.472
	C99.996,79.887,96.387,87.731,96.32,96z"/>
<path d="M256.32,96h16c0-4.592,1.672-6.528,5.456-10.472c11.898-10.206,13.27-28.126,3.064-40.024
	c-0.942-1.098-1.966-2.122-3.064-3.064c-3.784-3.944-5.456-5.88-5.456-10.44s1.672-6.504,5.448-10.44
	c6.249-5.428,9.86-13.283,9.912-21.56h-16c0,4.576-1.672,6.504-5.448,10.448c-11.892,10.187-13.274,28.085-3.087,39.977
	c0.948,1.107,1.98,2.139,3.087,3.087c3.784,3.944,5.456,5.88,5.456,10.472s-1.672,6.528-5.456,10.472
	C259.996,79.887,256.387,87.731,256.32,96z"/>
<path d="M440,112H8c-4.418,0-8,3.582-8,8v240c0.052,42.979,23.084,82.648,60.384,104H0v16h408v-16h-84.384
	c37.3-21.352,60.332-61.021,60.384-104v-72h56c22.08-0.026,39.974-17.92,40-40v-96C479.974,129.92,462.08,112.026,440,112z M384,160
	h40c4.418,0,8,3.582,8,8v64c0,4.418-3.582,8-8,8h-40V160z M368,360c-0.066,57.41-46.59,103.934-104,104H120
	c-57.41-0.066-103.934-46.59-104-104V128h240v96h-8c-1.731,0-3.415,0.561-4.8,1.6l-32,24c-2.014,1.511-3.2,3.882-3.2,6.4v104
	c0,4.418,3.582,8,8,8h96c4.418,0,8-3.582,8-8V256c0-2.518-1.186-4.889-3.2-6.4l-32-24c-1.385-1.039-3.069-1.6-4.8-1.6h-8v-96h96V360
	z M277.336,240L304,260v92h-80v-92l26.664-20H277.336z M464,248c0,13.255-10.745,24-24,24h-56v-16h40c13.255,0,24-10.745,24-24v-64
	c0-13.255-10.745-24-24-24h-40v-16h56c13.255,0,24,10.745,24,24V248z"/>
<g>
</g>
<g>
</g>
<g>
</g>
<g>
</g>
<g>
</g>
<g>
</g>
<g>
</g>
<g>
</g>
<g>
</g>
<g>
</g>
<g>
</g>
<g>
</g>
<g>
</g>
<g>
</g>
<g>
</g>
</svg>
