<svg id="_x33_0" enable-background="new 0 0 64 64" height="512" viewBox="0 0 64 64" width="512" xmlns="http://www.w3.org/2000/svg"><g><g><path d="m26.279 20h6.228c.964-1.846 1.493-3.902 1.493-6 0-7.168-5.832-13-13-13s-13 5.832-13 13 5.832 13 13 13v-5c-4.418 0-8-3.582-8-8s3.582-8 8-8 8 3.582 8 8c0 2.393-1.056 4.534-2.721 6z" fill="#f0bc5e"/></g><g><path d="m40 37c-1.042 0-2.047.208-3 .595v1.739c0 .433-.14.854-.4 1.2l-2 2.667c-.378.503-.97.799-1.6.799h-.929c-.041.331-.071.666-.071 1 0 4.411 3.589 8 8 8s8-3.589 8-8-3.589-8-8-8z" fill="#f0bc5e"/></g><g><path d="m54 19h-4v-4h-2v4h-19.532c.982-1.468 1.532-3.201 1.532-5 0-4.962-4.037-9-9-9s-9 4.038-9 9c0 4.624 3.507 8.442 8 8.941v31.059c0 4.962 4.037 9 9 9h18c4.963 0 9-4.038 9-9v-33c0-1.103-.897-2-2-2zm0 2v2h-4v-2zm-6 2h-26v-2h26zm-32.599-4.816c-.685-.915-1.151-2.001-1.321-3.184h4.506zm11.203.006-3.19-3.19h4.505c-.168 1.158-.617 2.255-1.315 3.19zm-4.604-1.776 2.586 2.586h-2.586zm1.414-3.414 3.184-3.184c.686.915 1.151 2.001 1.322 3.184zm-1.414-1.414v-4.506c1.183.17 2.269.636 3.185 1.322zm-2 0-3.185-3.184c.916-.686 2.002-1.152 3.185-1.322zm-1.414 1.414h-4.506c.17-1.183.636-2.269 1.322-3.184zm-1.771 6.598 3.185-3.184v4.506c-1.183-.17-2.269-.636-3.185-1.322zm37.185 34.402c0 3.86-3.141 7-7 7h-18c-3.859 0-7-3.14-7-7v-.356c1.651 2.044 4.174 3.356 7 3.356h18c2.826 0 5.349-1.312 7-3.356zm-7 1h-18c-3.859 0-7-3.14-7-7v-23h26v1.101c0 6.117-2.382 11.868-6.707 16.192l1.414 1.414c4.703-4.702 7.293-10.955 7.293-17.606v-1.101h4v23c0 3.86-3.141 7-7 7z"/><path d="m35.949 34.595-4.018-1.339c-.51-.17-1.042-.256-1.58-.256h-1.351c-1.654 0-3 1.346-3 3v6c0 1.654 1.346 3 3 3h4c.94 0 1.837-.449 2.399-1.2l2-2.667c.388-.516.601-1.155.601-1.8v-1.892c0-1.293-.824-2.436-2.051-2.846zm.051 4.738c0 .214-.071.427-.2.6l-2.001 2.667c-.187.251-.486.4-.799.4h-4c-.552 0-1-.449-1-1v-6c0-.551.448-1 1-1h1.351c.323 0 .643.052.949.154l4.017 1.339c.409.136.683.517.683.948z"/><path d="m30.586 38h2.828v2h-2.828z" transform="matrix(.707 -.707 .707 .707 -18.205 34.05)"/><path d="m45.371 28.928-.742-1.856-3.488 1.395c-1.631.652-3.461.706-5.126.151l-3.539-1.18c-2.12-.707-4.511-.536-6.513.463l-2.41 1.205.895 1.789 2.41-1.205c1.531-.765 3.361-.896 4.985-.354l3.54 1.18c.966.321 1.971.484 2.989.484 1.208 0 2.389-.228 3.511-.676z"/></g></g></svg>