<?xml version="1.0" encoding="iso-8859-1"?>
<!-- Generator: Adobe Illustrator 19.0.0, SVG Export Plug-In . SVG Version: 6.00 Build 0)  -->
<svg version="1.1" id="Capa_1" xmlns="http://www.w3.org/2000/svg" xmlns:xlink="http://www.w3.org/1999/xlink" x="0px" y="0px"
	 viewBox="0 0 512 512" style="enable-background:new 0 0 512 512;" xml:space="preserve">
<polygon style="fill:#B2D7F3;" points="365.54,439.271 178.577,439.271 115.353,377.862 115.353,174.094 428.763,174.094 
	428.763,377.862 "/>
<polygon style="fill:#78B8EA;" points="222.777,404.272 180.353,363.065 180.353,252.157 423.765,252.157 423.765,363.065 
	381.34,404.272 "/>
<polygon style="fill:#FF9711;" points="192.777,404.272 150.353,363.065 150.353,252.157 393.765,252.157 393.765,363.065 
	351.34,404.272 "/>
<polygon style="fill:#57A3FF;" points="476.457,493.843 504.492,465.808 504.499,439.271 39.618,439.271 39.618,465.808 
	67.653,493.843 "/>
<polygon style="fill:#B2D7F3;" points="115.353,206.691 115.353,240.282 41.093,240.282 41.093,280.84 78.166,317.914 
	115.353,317.914 115.353,351.505 64.252,351.505 7.502,294.755 7.502,206.691 "/>
<g>
	<path style="fill:#FFE377;" d="M115.353,18.158L115.353,18.158c57.414,0,103.957,46.543,103.957,103.957v51.979l0,0
		c-57.414,0-103.957-46.543-103.957-103.957V18.158z"/>
	<path style="fill:#FFE377;" d="M287.711,71.492L287.711,71.492c-37.777,0-68.402,30.625-68.402,68.402v34.201l0,0
		c37.777,0,68.402-30.625,68.402-68.402V71.492z"/>
</g>
<polygon style="fill:#78B8EA;" points="155.353,174.094 115.353,174.094 115.353,377.862 178.577,439.271 218.577,439.271 
	155.353,377.862 "/>
<polygon style="fill:#CB7400;" points="180.353,252.157 150.353,252.157 150.353,363.065 192.777,404.272 222.777,404.272 
	180.353,363.065 "/>
<polygon style="fill:#006DEF;" points="79.618,439.271 39.618,439.271 39.618,465.808 67.653,493.843 107.652,493.843 
	79.618,465.808 "/>
<polygon style="fill:#78B8EA;" points="27.502,206.691 7.502,206.691 7.502,294.755 64.252,351.505 84.252,351.505 27.502,294.755 
	"/>
<g>
	<path style="fill:#FFD944;" d="M145.353,70.137V22.56c-9.5-2.859-19.569-4.402-30-4.402l0,0v51.979
		c0,57.414,46.543,103.957,103.957,103.957l0,0v-4.402C176.523,156.816,145.353,117.119,145.353,70.137z"/>
	<path style="fill:#FFD944;" d="M239.31,139.893c0-30.818,20.384-56.869,48.402-65.424v-2.978l0,0
		c-37.777,0-68.402,30.625-68.402,68.402v34.201l0,0c6.959,0,13.673-1.047,20-2.978V139.893z"/>
</g>
<g>
	<rect x="358.828" y="272.488" style="fill:#FFFFFF;" width="15" height="15"/>
	<rect x="358.828" y="297.488" style="fill:#FFFFFF;" width="15" height="15"/>
	<rect x="358.828" y="322.488" style="fill:#FFFFFF;" width="15" height="31.667"/>
	<rect x="308.118" y="458.327" style="fill:#FFFFFF;" width="15" height="15"/>
	<rect x="333.118" y="458.327" style="fill:#FFFFFF;" width="131.329" height="15"/>
	<rect x="283.118" y="458.327" style="fill:#FFFFFF;" width="15" height="15"/>
	<rect x="389.828" y="196.659" style="fill:#FFFFFF;" width="15" height="15"/>
	<rect x="364.828" y="196.659" style="fill:#FFFFFF;" width="15" height="15"/>
	<rect x="294.788" y="196.659" style="fill:#FFFFFF;" width="60.04" height="15"/>
</g>
<g>
	<path style="fill:#1D1D1F;" d="M384.023,431.771l25.614-24.878l-10.451-10.759l-36.689,35.637H181.619l-58.768-57.08V181.593
		h13.629v-15h-28.629v32.597H81.458v15h26.395v18.591H33.592v51.166l41.466,41.467h32.795v18.59H67.358L15,291.647V214.19h51.458
		v-15H0v98.67l61.145,61.143h46.708v22.028l52.24,50.74h-39.407v15h376.312l-0.005,15.93l-23.643,23.642h-72.955v15h79.169
		l32.428-32.427L512,431.77H384.023V431.771z M81.271,310.413l-32.68-32.68v-29.953h59.261v62.633H81.271z"/>
	<polygon style="fill:#1D1D1F;" points="47.116,462.701 47.116,446.771 105.685,446.771 105.685,431.771 32.116,431.771 
		32.116,468.914 64.545,501.342 385.395,501.342 385.395,486.342 70.759,486.342 	"/>
	<rect x="149.209" y="459.057" style="fill:#1D1D1F;" width="15" height="15"/>
	<rect x="124.209" y="459.057" style="fill:#1D1D1F;" width="15" height="15"/>
	<rect x="99.209" y="459.057" style="fill:#1D1D1F;" width="15" height="15"/>
	<rect x="74.21" y="459.057" style="fill:#1D1D1F;" width="14.999" height="15"/>
	<polygon style="fill:#1D1D1F;" points="196.95,386.606 245.051,386.656 245.051,371.706 196.95,371.656 	"/>
	<polygon style="fill:#1D1D1F;" points="174.63,196.657 139.5,196.657 139.45,211.607 174.63,211.657 	"/>
	<path style="fill:#1D1D1F;" d="M163.517,166.593H151.48v15h60.328v63.08l-68.958-0.016v121.559l46.87,45.54l164.658,0.01
		l46.87-45.52l0.011-0.01V244.707l-31.011-0.05v14.95l16.011,0.05v100.239l-37.961,36.87H195.82l-37.97-36.88V259.656h53.958v21.167
		h15v-21.167h128.541v-14.95l-128.541-0.03v-63.083h194.455v193.097l-11.318,10.992l10.45,10.76l15.868-15.41V166.594H264.553
		c18.591-13.848,30.656-35.991,30.656-60.902V63.991h-7.5c-26.517,0-49.887,13.678-63.464,34.34
		c-10.927-50.068-55.598-87.671-108.894-87.672h-7.5v59.479C107.853,111.279,130.263,147.284,163.517,166.593z M280.211,79.45
		v26.242c0,28.289-19.394,52.127-45.581,58.941l35.619-53.425l0.021-0.04l-12.48-8.32l-30.979,46.477v-9.515
		C226.852,108.805,250.183,83.156,280.211,79.45z M122.853,25.947c49.697,3.838,88.957,45.505,88.957,96.168v17.755
		c0,0.008-0.001,0.015-0.001,0.023v9.431l-40.865-61.299l-12.481,8.321l46.077,69.115c-46.202-7.128-81.687-47.159-81.687-95.324
		L122.853,25.947L122.853,25.947z"/>
	
		<rect x="133.639" y="49.333" transform="matrix(-0.8321 0.5547 -0.5547 -0.8321 290.1 25.8353)" style="fill:#1D1D1F;" width="15.001" height="15.001"/>
	
		<rect x="147.491" y="70.136" transform="matrix(-0.5547 -0.8321 0.8321 -0.5547 176.3634 249.6628)" style="fill:#1D1D1F;" width="15.001" height="15.001"/>
</g>
<g>
</g>
<g>
</g>
<g>
</g>
<g>
</g>
<g>
</g>
<g>
</g>
<g>
</g>
<g>
</g>
<g>
</g>
<g>
</g>
<g>
</g>
<g>
</g>
<g>
</g>
<g>
</g>
<g>
</g>
</svg>
