<?xml version="1.0" encoding="iso-8859-1"?>
<!-- Generator: Adobe Illustrator 19.0.0, SVG Export Plug-In . SVG Version: 6.00 Build 0)  -->
<svg version="1.1" id="Capa_1" xmlns="http://www.w3.org/2000/svg" xmlns:xlink="http://www.w3.org/1999/xlink" x="0px" y="0px"
	 viewBox="0 0 512 512" style="enable-background:new 0 0 512 512;" xml:space="preserve">
<path style="fill:#883F2E;" d="M491.499,25.499l-43.2,43.2c-5.7,6-15.298,6-20.999,0c-6-5.7-6-15.298,0-20.999l43.2-43.2
	c5.7-6,15.298-6,20.999,0C497.5,10.201,497.5,19.799,491.499,25.499z"/>
<path style="fill:#6D3326;" d="M491.499,25.499l-43.2,43.2c-5.7,6-15.298,6-20.999,0L491.499,4.5
	C497.5,10.201,497.5,19.799,491.499,25.499z"/>
<path style="fill:#FF641A;" d="M466,90c0,28.2-19.799,52.8-47.401,58.801c-0.899,0-2.1,0.298-2.999,0.298L382.001,114L347.2,77.401
	C353.2,49.799,377.8,30,406,30c16.5,0,31.5,6.599,42.299,17.701C459.401,58.5,466,73.5,466,90z"/>
<path style="fill:#FF4B00;" d="M466,90c0,28.2-19.799,52.8-47.401,58.801c-0.899,0-2.1,0.298-2.999,0.298L382.001,114L448.3,47.701
	C459.401,58.5,466,73.5,466,90z"/>
<path style="fill:#77DD00;" d="M436,165v30c0,8.284-6.716,15-15,15h-15c-66.274,0-120-53.726-120-120V75c0-8.284,6.716-15,15-15h30
	c28.801,0,55.201,11.7,74.099,30.901C424.3,109.799,436,136.199,436,165z"/>
<path style="fill:#5CAC00;" d="M406,210h15c8.284,0,15-6.716,15-15v-30c0-28.801-11.7-55.201-30.901-74.099l-83.952,83.952
	C342.863,196.569,372.863,210,406,210z"/>
<path style="fill:#FDBF00;" d="M331,90h-45v120h120v-45c0-20.7-8.401-39.6-21.899-53.101C370.6,98.399,351.7,90,331,90z"/>
<path style="fill:#FF9F00;" d="M406,210v-45c0-20.7-8.401-39.6-21.899-53.101L286,210H406z"/>
<path style="fill:#FFE1BA;" d="M376,135v48.9c-12.9,2.1-25.8,36.899-37.5,44.7H85c-11.999-8.101-25.199-42.9-39-45V135
	c0-8.401,6.599-15,15-15h300C369.401,120,376,126.599,376,135z"/>
<path style="fill:#FFD396;" d="M376,135v48.9c-12.9,2.1-25.8,36.899-37.5,44.7H211V120h150C369.401,120,376,126.599,376,135z"/>
<path style="fill:#6D3326;" d="M156.7,120l-13.825,30L126.1,120l-15-77.701c-1.5-7.2-7.8-12.299-15-12.299H31
	c-8.401,0-15-6.601-15-15c0-8.401,6.599-15,15-15h65.1c21.601,0,40.201,15.3,44.401,36.599L156.7,120z"/>
<path style="fill:#883F2E;" d="M174.401,212.399c1.199,6.901-2.1,13.5-8.401,16.201c-0.901,0.899-2.401,1.199-3.6,1.5
	c-0.901,0-1.8,0.3-2.701,0.3c-2.399,0-4.799-0.601-6.599-1.8c-4.2-1.8-7.2-5.7-8.101-10.501L126.1,120h30.6L174.401,212.399z"/>
<path style="fill:#FFE1BA;" d="M316,452v30c0,16.5-13.5,30-30,30H136c-16.5,0-30-13.5-30-30v-30l21.599-30H289.6L316,452z"/>
<path style="fill:#FFD396;" d="M289.6,422l26.4,30v30c0,16.5-13.5,30-30,30h-75v-90H289.6z"/>
<path style="fill:#FF9100;" d="M376,183.9v52.8c0,11.398-0.601,22.2-1.199,33.3c-0.601,10.199-31.8,20.099-33.001,30H80.201
	C79,290.099,47.8,280.199,47.2,270c-0.599-11.1-1.2-21.901-1.2-33.3v-53.1c13.801,2.1,27.001,6.899,39,15c22.5,14.7,51,14.7,73.5,0
	c15.901-10.8,34.501-16.201,52.5-16.201c18.9,0,37.5,5.402,54,16.201c22.5,14.7,51,14.7,73.5,0C350.201,190.8,363.1,186,376,183.9z"
	/>
<path style="fill:#FF7816;" d="M376,183.9v52.8c0,11.398-0.601,22.2-1.199,33.3c-0.601,10.199-31.8,20.099-33.001,30H211V182.399
	c18.9,0,37.5,5.402,54,16.201c22.5,14.7,51,14.7,73.5,0C350.201,190.8,363.1,186,376,183.9z"/>
<path style="fill:#FF4B00;" d="M374.801,270c-0.601,10.199-1.8,20.099-3.001,30c-7.2,53.699-24.3,106.7-55.8,152H106
	c-31.5-45.3-48.6-98.301-55.8-152c-1.201-9.901-2.401-19.801-3.001-30H374.801z"/>
<path style="fill:#F03800;" d="M211,270h163.801c-0.601,10.199-1.8,20.099-3.001,30c-7.2,53.699-24.3,106.7-55.8,152H211V270z"/>
<g>
</g>
<g>
</g>
<g>
</g>
<g>
</g>
<g>
</g>
<g>
</g>
<g>
</g>
<g>
</g>
<g>
</g>
<g>
</g>
<g>
</g>
<g>
</g>
<g>
</g>
<g>
</g>
<g>
</g>
</svg>
