<?xml version="1.0" encoding="iso-8859-1"?>
<!-- Generator: Adobe Illustrator 19.0.0, SVG Export Plug-In . SVG Version: 6.00 Build 0)  -->
<svg version="1.1" id="Capa_1" xmlns="http://www.w3.org/2000/svg" xmlns:xlink="http://www.w3.org/1999/xlink" x="0px" y="0px"
	 viewBox="0 0 507 507" style="enable-background:new 0 0 507 507;" xml:space="preserve">
<path style="fill:#FDC75B;" d="M312.8,493.8H158C209.5,442.4,261.3,442.4,312.8,493.8z"/>
<path style="fill:#ED664C;" d="M260.8,77.1h53.7v142.3c0,43.7-35.4,79.1-79.1,79.1s-79.1-35.4-79.1-79.1V77.1H260.8z"/>
<path d="M151.3,487.3L132.6,507h205.6l-16.7-19.7c-24.3-24.3-53.1-39.7-73.1-42.7v-137c42-5.2,79-43.1,79-88.9V68h-49.1l23.2-47
	h72.9V0h-85.5l-34.5,68h-107v150.7c0,45.8,31,83.7,79,88.9v137C200.4,447.6,175.6,463,151.3,487.3z M169.4,218.7V90h73.7l-51,93.6
	l18.6,10.7L267,90h38.4v128.7c0,37.8-30.2,68.5-68,68.5S169.4,256.5,169.4,218.7z M284.3,483h-97.7C219.5,458,251.3,458,284.3,483z"
	/>
<g>
</g>
<g>
</g>
<g>
</g>
<g>
</g>
<g>
</g>
<g>
</g>
<g>
</g>
<g>
</g>
<g>
</g>
<g>
</g>
<g>
</g>
<g>
</g>
<g>
</g>
<g>
</g>
<g>
</g>
</svg>
