<svg height="512" viewBox="0 0 128 128" width="512" xmlns="http://www.w3.org/2000/svg"><g><g><path d="m62.893 34.517v-.677h-15.938v.677a18.279 18.279 0 0 1 -4.14 11.583 18.279 18.279 0 0 0 -4.141 11.586v40.949a3.865 3.865 0 0 0 3.865 3.865h24.77a3.864 3.864 0 0 0 3.865-3.865v-40.947a18.284 18.284 0 0 0 -4.14-11.588 18.274 18.274 0 0 1 -4.141-11.583z" fill="#b3d1d7"/><path d="m38.674 98.635a3.865 3.865 0 0 0 3.865 3.865h24.77a3.864 3.864 0 0 0 3.865-3.865v-40.947a18.268 18.268 0 0 0 -1.4-6.972c-8.616-3.592-11.19 3.617-18.517 2.451s-8.442-7.067-8.442-7.067a18.279 18.279 0 0 0 -4.141 11.586z" fill="#e1eaef"/><path d="m44.924 25.5h20v8.34h-20z" fill="#e1eaef"/><path d="m38.674 64h32.5v20h-32.5z" fill="#7c83e7"/><path d="m67.821 98.4c8.844 6.242 17.259 4.578 20.38.156a7.11 7.11 0 0 0 .941-5.594 7.236 7.236 0 0 0 -6.472-5.65 12.987 12.987 0 0 1 -9.37-6.612 7.236 7.236 0 0 0 -7.492-4.2 7.112 7.112 0 0 0 -4.955 2.76c-3.127 4.416-2.423 12.515 6.968 19.14z" fill="#ffb555"/><path d="m74.62 88.771c2.574 1.817 5.66 1.875 6.892.129a2.882 2.882 0 0 0 .5-1.682 13.286 13.286 0 0 1 -8.406-5.933 2.86 2.86 0 0 0 -1.417 1.036c-1.231 1.745-.143 4.633 2.431 6.45z" fill="#fd5"/></g><g fill="#182969"><path d="m102.5 100.75h-1.125a1.75 1.75 0 0 0 0 3.5h1.125a1.75 1.75 0 0 0 0-3.5z"/><path d="m94.625 100.75h-6a9.6 9.6 0 0 0 1.007-1.183 8.81 8.81 0 0 0 1.227-6.939 8.954 8.954 0 0 0 -8-7.053 11.261 11.261 0 0 1 -7.985-5.636 9.637 9.637 0 0 0 -1.948-2.714v-19.537a20.039 20.039 0 0 0 -1.517-7.588c-.013-.032-.025-.064-.039-.1a20.038 20.038 0 0 0 -2.983-5.013 16.445 16.445 0 0 1 -2.948-5.409 1.75 1.75 0 1 0 -3.332 1.072 19.957 19.957 0 0 0 3.573 6.556c.211.258.4.529.6.8-3.293-.317-5.746.84-7.979 1.9-2.2 1.045-4.092 1.945-6.766 1.524a9.939 9.939 0 0 1 -3.662-1.291 1.751 1.751 0 0 0 -1.83 2.985 13.444 13.444 0 0 0 4.94 1.776 12.018 12.018 0 0 0 1.871.15 15.558 15.558 0 0 0 6.946-1.976c2.732-1.3 4.923-2.339 8.634-1a16.522 16.522 0 0 1 .988 5.613v4.563h-29v-4.562a16.577 16.577 0 0 1 3.744-10.476 20.071 20.071 0 0 0 4.49-11.622h16.268a1.749 1.749 0 0 0 1.75-1.75v-8.34a1.749 1.749 0 0 0 -1.75-1.75h-3.862a1.75 1.75 0 0 0 0 3.5h2.112v4.84h-16.5v-4.84h1.909a1.75 1.75 0 0 0 0-3.5h-3.659a1.749 1.749 0 0 0 -1.75 1.75v8.34a1.749 1.749 0 0 0 1.75 1.75h.234a16.569 16.569 0 0 1 -3.7 9.4 20.085 20.085 0 0 0 -4.537 12.7v40.945a5.581 5.581 0 0 0 .417 2.115h-11.838a1.75 1.75 0 0 0 0 3.5h69.125a1.75 1.75 0 0 0 0-3.5zm-7.2-7.448a5.541 5.541 0 0 1 -.654 4.248 8.56 8.56 0 0 1 -6.706 3.182q-.233.013-.483.018h-.044a16.648 16.648 0 0 1 -7.975-2.1h-.008a24.6 24.6 0 0 1 -2.721-1.671c-8.04-5.675-9.382-12.7-6.553-16.711a5.531 5.531 0 0 1 3.784-2.039 5.37 5.37 0 0 1 5.226 2.483 4.265 4.265 0 0 0 -.527.605c-1.817 2.575-.564 6.479 2.85 8.888a8.912 8.912 0 0 0 5.053 1.728 5.066 5.066 0 0 0 4.278-2.019 4.236 4.236 0 0 0 .393-.7 5.371 5.371 0 0 1 4.087 4.086zm-7.94-5a5.472 5.472 0 0 1 -6.048-4.269 15.544 15.544 0 0 0 6.048 4.267zm-39.061 10.333v-12.885h12.743a1.75 1.75 0 0 0 0-3.5h-12.743v-16.5h29v9.343a8.436 8.436 0 0 0 -3.879-.33 8.8 8.8 0 0 0 -6.127 3.482c-3.832 5.429-2.523 14.588 7.394 21.588.4.282.794.541 1.185.79a2.091 2.091 0 0 1 -.687.127h-24.771a2.118 2.118 0 0 1 -2.115-2.115z"/><path d="m54.812 27.25h.688a1.75 1.75 0 0 0 0-3.5h-.688a1.75 1.75 0 0 0 0 3.5z"/></g></g></svg>