<?xml version="1.0" encoding="iso-8859-1"?>
<!-- Generator: Adobe Illustrator 19.0.0, SVG Export Plug-In . SVG Version: 6.00 Build 0)  -->
<svg version="1.1" id="Capa_1" xmlns="http://www.w3.org/2000/svg" xmlns:xlink="http://www.w3.org/1999/xlink" x="0px" y="0px"
	 viewBox="0 0 474.412 474.412" style="enable-background:new 0 0 474.412 474.412;" xml:space="preserve">
<path style="fill:#4DCFE0;" d="M128.275,255.506C128.275,255.506,127.753,255.506,128.275,255.506l8.882,194.351v0.522
	c1.045,14.106,12.016,24.033,26.122,24.033h146.286c14.629,0,26.122-10.971,26.122-25.078l9.927-193.829H128.275z"/>
<path style="fill:#D4E1F4;" d="M345.614,172.436c4.702,0,9.927,1.045,14.106,2.09c-3.657-42.841-29.78-79.935-66.351-98.743
	l-3.657,13.061c-2.09,6.792-8.359,11.494-15.151,11.494c-1.567,0-2.612,0-4.18-0.522c-8.359-2.09-13.061-10.971-10.971-19.331
	l4.18-15.151c-8.359-2.09-17.241-2.612-26.122-2.612c-64.261,0-116.506,49.11-122.253,111.804c4.18-1.567,8.882-2.09,13.584-2.09
	H345.614z"/>
<path style="fill:#3A2C51;" d="M270.381,99.816c1.567,0.522,2.612,0.522,4.18,0.522c6.792,0,13.061-4.702,15.151-11.494
	l3.657-12.539l12.016-43.886l32.392-1.045c8.882,0,15.673-7.314,15.151-16.196c0-8.882-7.314-15.673-16.196-15.151l-43.886,1.045
	c-6.792,0-13.061,4.702-14.629,11.494L263.59,65.334l-4.18,15.151C257.32,88.845,262.022,97.204,270.381,99.816z"/>
<path style="fill:#00BBD3;" d="M359.72,170.869c-4.702-1.567-9.404-2.09-14.106-2.09H128.798c-4.702,0-9.404,0.522-13.584,2.09
	c-6.792,2.09-13.061,5.747-17.763,10.971c-8.359,8.359-13.061,19.853-13.061,31.347c0,24.555,19.853,43.886,43.886,44.408h0.522
	h217.339l0,0c11.494,0,22.465-4.702,30.824-13.061l0.522-0.522c7.314-7.837,11.494-18.808,12.539-29.78c0-0.522,0-0.522,0-1.045
	C390.022,193.857,377.484,177.138,359.72,170.869z"/>
<g>
</g>
<g>
</g>
<g>
</g>
<g>
</g>
<g>
</g>
<g>
</g>
<g>
</g>
<g>
</g>
<g>
</g>
<g>
</g>
<g>
</g>
<g>
</g>
<g>
</g>
<g>
</g>
<g>
</g>
</svg>
