<svg height="511pt" viewBox="-61 0 511 511.99929" width="511pt" xmlns="http://www.w3.org/2000/svg"><path d="m345.484375 81.964844c-2.546875 0-5.125-.648438-7.488281-2.011719-7.171875-4.140625-9.632813-13.316406-5.488282-20.488281l30-51.960938c4.140626-7.175781 13.316407-9.632812 20.488282-5.492187 7.175781 4.140625 9.632812 13.316406 5.492187 20.492187l-30 51.960938c-2.777343 4.808594-7.820312 7.5-13.003906 7.5zm0 0" fill="#805142"/><path d="m352.996094 53.972656c-10.410156-6.011718-22.535156-7.605468-34.144532-4.496094-11.609374 3.113282-21.3125 10.558594-27.324218 20.96875-5.753906 9.964844-7.242188 21.238282-5.046875 31.703126-10.558594 3.445312-19.355469 10.566406-24.953125 20.257812-9.789063 16.957031-7.5625 38.113281 5.546875 52.644531 2.964843 3.28125 7.046875 4.949219 11.144531 4.949219 3.582031 0 7.175781-1.273438 10.042969-3.863281 6.152343-5.546875 6.640625-15.03125 1.089843-21.183594-4.367187-4.839844-5.109374-11.894531-1.84375-17.546875 2.003907-3.472656 5.238282-5.953125 9.109376-6.988281 3.871093-1.039063 7.910156-.507813 11.382812 1.496093 7.160156 4.136719 9.625 13.328126 5.488281 20.496094-.53125.917969-1.15625 1.777344-1.855469 2.554688-5.542968 6.15625-5.046874 15.640625 1.109376 21.183594 6.15625 5.542968 15.640624 5.046874 21.183593-1.109376 2.101563-2.332031 3.96875-4.902343 5.542969-7.632812 5.753906-9.96875 7.242188-21.242188 5.050781-31.707031 10.554688-3.445313 19.355469-10.5625 24.949219-20.253907 12.40625-21.492187 5.015625-49.066406-16.472656-61.472656zm-9.507813 46.472656c-4.136719 7.160157-13.328125 9.625-20.492187 5.488282-7.160156-4.136719-9.625-13.328125-5.488282-20.488282 2.003907-3.472656 5.238282-5.953124 9.109376-6.992187 1.289062-.34375 2.601562-.515625 3.90625-.515625 2.597656 0 5.164062.679688 7.472656 2.015625 7.164062 4.136719 9.628906 13.328125 5.492187 20.492187zm0 0" fill="#10bb67"/><path d="m135.496094 180.003906c-6.28125 0-12.132813-3.972656-14.226563-10.257812l-26.582031-79.746094h-79.1875c-8.285156 0-15-6.714844-15-15 0-8.28125 6.714844-15 15-15h90c6.457031 0 12.1875 4.132812 14.230469 10.257812l30 90c2.617187 7.859376-1.628907 16.355469-9.488281 18.972657-1.574219.523437-3.171876.773437-4.746094.773437zm0 0" fill="#fea832"/><path d="m195.5 452c-8.285156 0-15-6.714844-15-15v-92c0-8.285156 6.714844-15 15-15 8.28125 0 15 6.714844 15 15v92c0 8.285156-6.71875 15-15 15zm0 0" fill="#dfccbf"/><path d="m303.496094 240h-215.996094c-8.285156 0-15-6.714844-15-15 0-8.28125 6.714844-15 15-15h215.996094c8.285156 0 15 6.71875 15 15 0 8.285156-6.714844 15-15 15zm0 0" fill="#4a7aff"/><g fill="#efe6de"><path d="m195.5 360c-3.839844 0-7.679688-1.464844-10.609375-4.394531l-179.996094-180c-4.289062-4.289063-5.574219-10.738281-3.253906-16.34375 2.324219-5.605469 7.792969-9.261719 13.859375-9.261719h359.996094c6.066406 0 11.539062 3.65625 13.859375 9.261719 2.320312 5.605469 1.039062 12.054687-3.253907 16.34375l-179.996093 180c-2.929688 2.929687-6.769531 4.394531-10.605469 4.394531zm-143.789062-180 143.789062 143.785156 143.785156-143.785156zm0 0"/><path d="m285.496094 512h-179.996094c-6.609375 0-12.441406-4.328125-14.355469-10.652344-1.917969-6.328125.535157-13.164062 6.035157-16.828125l90-60c5.035156-3.359375 11.601562-3.359375 16.640624 0l90 60c5.5 3.664063 7.949219 10.5 6.035157 16.828125-1.917969 6.324219-7.746094 10.652344-14.359375 10.652344zm-130.457032-30h80.917969l-40.457031-26.972656zm0 0"/></g></svg>