<svg id="Capa_1" enable-background="new 0 0 512 512" height="512" viewBox="0 0 512 512" width="512" xmlns="http://www.w3.org/2000/svg"><g><g><path d="m127.976 262.769h-55.404c-24.349 0-44.159-19.81-44.159-44.16s19.81-44.16 44.159-44.16h39.484v-28.412h-39.484c-40.08.001-72.572 32.492-72.572 72.573 0 40.08 32.492 72.572 72.572 72.572h70.777c-5.885-8.976-11.038-18.475-15.373-28.413z" fill="#daf1f4"/></g><g><path d="m244.105 372.825h88.688c84.574-20.012 147.502-96.005 147.502-186.695v-83.015c0-1.352-1.096-2.448-2.447-2.448h-378.798c-1.352 0-2.448 1.096-2.448 2.448v83.015c.001 90.69 62.929 166.683 147.503 186.695z" fill="#ecf9f9"/></g><g><path d="m477.848 100.668h-38.76v64.859c0 1.26-.012 2.516-.036 3.77-1.964 101.894-86.376 182.925-188.29 182.925h-47.865c-6.859-1.623-13.576-3.615-20.129-5.953 18.46 12.207 39.153 21.307 61.336 26.556l45.375 16.335 43.313-16.335c84.574-20.012 147.502-96.005 147.502-186.695v-83.015c.002-1.352-1.094-2.447-2.446-2.447z" fill="#daf1f4"/></g><g><path d="m287.994 347.07c-88.962-.248-160.486-73.536-160.486-162.499v-22.131c0-1.351 1.095-2.446 2.446-2.446h316.991c1.351 0 2.446 1.095 2.446 2.446v23.69c-.001 88.895-72.445 161.188-161.397 160.94z" fill="#e4936b"/></g><g><path d="m449.39 186.13v-23.69c0-1.351-1.095-2.446-2.446-2.446h-7.856v5.531c0 1.26-.012 2.516-.036 3.77-1.669 86.566-62.846 158.073-143.707 177.628 85.558-3.622 154.045-74.36 154.045-160.793z" fill="#e27d47"/></g><g><path d="m321.855 288.175c-22.158 12.793-50.277 5.574-62.804-16.124s-4.72-49.659 17.438-62.452 83.315-17.568 92.776-1.18-25.252 66.963-47.41 79.756z" fill="#c8ea73"/></g><g><path d="m369.265 208.419c-3.7-6.408-15.303-9.58-29.388-10.302 1.851 19.959-28.746 62.954-48.928 74.606-8.535 4.927-17.953 6.885-27.025 6.191 14.003 16.223 38.304 20.593 57.93 9.261 22.159-12.793 56.872-63.368 47.411-79.756z" fill="#b7e445"/></g><g><path d="m175.811 267.78c-2.514 0-4.979-1.225-6.463-3.483-15.338-23.33-23.57-50.469-23.807-78.482-.036-4.267 3.394-7.756 7.661-7.791.022-.001.044-.001.066-.001 4.237 0 7.689 3.417 7.725 7.661.211 25.034 7.564 49.283 21.266 70.124 2.344 3.566 1.354 8.357-2.211 10.701-1.308.859-2.78 1.271-4.237 1.271z" fill="#ffc3ac"/></g><path d="m344.404 222.772c-2.135-3.696-6.86-4.962-10.554-2.828l-24.473 14.13 2.804-10.464c1.105-4.122-1.341-8.359-5.463-9.463-4.123-1.101-8.359 1.342-9.463 5.463l-6.803 25.39-20.919 12.078c-18.65 10.767-32.165 28.192-38.054 49.066-1.159 4.107 1.23 8.375 5.337 9.534.702.198 1.407.292 2.103.292 3.372 0 6.471-2.225 7.432-5.63 4.791-16.975 15.768-31.138 30.909-39.88l3.675-2.122 26.577 7.121c.67.179 1.343.265 2.005.265 3.411 0 6.533-2.277 7.458-5.729 1.105-4.122-1.341-8.358-5.463-9.463l-11.651-3.122 41.716-24.085c3.695-2.132 4.961-6.857 2.827-10.553z" fill="#e2f4b4"/><g fill="#d8f1a0"><path d="m263.925 278.914c.261.302.526.6.794.894.283-.268.569-.534.857-.798-.552-.022-1.102-.054-1.651-.096z"/><path d="m292.875 271.538 14.638 3.922c.67.179 1.343.265 2.005.265 3.411 0 6.533-2.277 7.458-5.729 1.105-4.122-1.341-8.358-5.463-9.463l-4.497-1.205c-4.85 5.068-9.703 9.314-14.141 12.21z"/><path d="m341.576 233.326c3.695-2.133 4.962-6.859 2.828-10.554-2.009-3.477-6.311-4.803-9.89-3.17-4.173 9.072-10.366 18.895-17.225 27.746z"/></g><g><path d="m460.695 411.332h-344.491c-17.469 0-33.776-8.754-43.43-23.314l-7.446-11.232c-1.125-1.696.092-3.962 2.127-3.962h441.99c2.035 0 3.251 2.265 2.127 3.962l-7.446 11.232c-9.655 14.56-25.962 23.314-43.431 23.314z" fill="#ecf9f9"/></g></g></svg>