<svg height="512" viewBox="0 0 60 60" width="512" xmlns="http://www.w3.org/2000/svg"><g id="Page-1" fill="none" fill-rule="evenodd"><g id="015---Pints" fill-rule="nonzero"><g id="Icons" transform="translate(1 1)"><path id="Shape" d="m19.24 48.61c-.38-1.12-4.2-2.99-9.06-4.37-4.84-1.38-9.06-1.8-9.99-1.04 1.92648434-3.0989293 3.17076059-6.5726758 3.65-10.19.03 1.1 4.58 1.99 10.18 1.99 5.23 0 9.52-.78 10.11-1.77 0 .01.01 0 .01 0-3.1838639 4.4969137-4.8957314 9.8700813-4.9 15.38z" fill="#fec108"/><path id="Shape" d="m24.63 15.56c-.0016387.0336447.0017315.0673461.01.1.18 1.39.58 4.13 1.3 7.39v.03c.03.1.05.2.07.3 0 .01.01.01.01.02.35 1.59.78 3.29 1.3 5.02-.6255712 1.2076942-1.3549858 2.3586971-2.18 3.44-.35.46-.69.91-1 1.37 0 0-.01.01-.01 0 .0470337-.0673521.0715377-.1478653.07-.23 0-1.1-4.55-2-10.18-2-5.41 0-9.84.83-10.16 1.88.32103757-2.333598.35797371-4.6975112.11-7.04-.95-9.16 4.43-21.85 6-25.32-.3 1.06 4.69 3.41 11.15 5.24s11.94 2.47 12.24 1.41c-.12.91-.33 2.38-.66 4.2-4.7 1.57-8.05 3.28-8.07 4.19z" fill="#0377bc"/><path id="Shape" d="m19.25 48.9c-.3 1.06-4.85.7-10.16-.81s-9.38-3.6-9.07-4.66c0 0 .05-.08.15-.21v-.01l.01-.01h.01c.93-.76 5.15-.34 9.99 1.04 4.86 1.38 8.68 3.25 9.06 4.37v.02c.01.17.01.27.01.27z" fill="#ff9801"/><path id="Shape" d="m33.37 7.06c.0021145.03695926-.0012554.07402793-.01.11-.3 1.06-5.78.43-12.24-1.41s-11.45-4.18-11.15-5.24c.00908686-.03171281.02254973-.06200426.04-.09.6-.94 5.94-.29 12.2 1.49s11.13 4.04 11.16 5.14z" fill="#02a9f4"/><path id="Shape" d="m52.89 22.93c-.36-1.55-6.25-2.78-13.46-2.78-7.4 0-13.41 1.29-13.49 2.9-.72-3.26-1.12-6-1.3-7.39.3 1.06 5.78.43 12.24-1.4s11.45-4.19 11.15-5.25c2.0210666 4.4900997 3.6472115 9.1476998 4.86 13.92z" fill="#02a9f4"/><path id="Shape" d="m48.03 9.01c.127.448-.7 1.128-2.176 1.9 1.4023367 3.3213828 2.5930502 6.7281928 3.565 10.2 2.019.485 3.309 1.116 3.471 1.814-1.2131209-4.7702564-2.839261-9.4258353-4.86-13.914z" fill="#0377bc"/><path id="Shape" d="m57.8 51.67c-.94-.73-5.15-.31-9.98 1.07-4.86 1.38-8.68 3.24-9.06 4.37-.0216572-6.0919336-2.1007251-11.9978961-5.9-16.76-2.47-3.21-4.27-7.64-5.54-11.93-.52-1.73-.95-3.43-1.3-5.02.74 1.46 6.46 2.6 13.41 2.6 7.44 0 13.48-1.31 13.48-2.92-.0017383-.0505343-.0084371-.1007756-.02-.15 1.0101354 3.7137938 1.3953944 7.5697641 1.14 11.41-.7301517 6.0363582.5981858 12.1424826 3.77 17.33z" fill="#fec108"/><path id="Shape" d="m54.03 34.34c.2553944-3.8402359-.1298646-7.6962062-1.14-11.41.0115629.0492244.0182617.0994657.02.15 0 .642-.973 1.235-2.6 1.718.7186522 3.1263357.9620519 6.3431235.722 9.542-.7042309 5.920454.555672 11.9083307 3.586 17.043 1.591-.141 2.746-.053 3.184.287-3.1725095-5.1872731-4.5015554-11.2934142-3.772-17.33z" fill="#ff9801"/><path id="Shape" d="m48.91 56.58c-5.31 1.51-9.86 1.87-10.16.81 0 0 0-.09.01-.26v-.02c.38-1.13 4.2-2.99 9.06-4.37 4.83-1.38 9.04-1.8 9.98-1.07.01.01.01.02.02.02l.01.01v.01c.1.14.15.22.15.22.31 1.05-3.76 3.14-9.07 4.65z" fill="#ff9801"/><path id="Shape" d="m48.03 9.01c.3 1.06-4.69 3.41-11.15 5.25s-11.94 2.46-12.24 1.4c-.0082685-.0326539-.0116387-.0663553-.01-.1.02-.91 3.37-2.62 8.07-4.19.98-.33 2.01-.65 3.09-.96 6.26-1.77 11.6-2.42 12.2-1.49.0174503.02799574.0309131.05828719.04.09z" fill="#02a9f4"/><path id="Shape" d="m52.91 23.08c0 1.61-6.04 2.92-13.48 2.92-6.95 0-12.67-1.14-13.41-2.6 0-.01-.01-.01-.01-.02-.02-.1-.04-.2-.07-.3v-.03c.08-1.61 6.09-2.9 13.49-2.9 7.21 0 13.1 1.23 13.46 2.78.0115629.0492244.0182617.0994657.02.15z" fill="#ffdc00"/><path id="Shape" d="m52.89 22.93c-.36-1.55-6.25-2.78-13.46-2.78-.51 0-1.0116667.0063333-1.505.019 6.512.157 11.63 1.32 11.965 2.761.0115629.0492244.0182617.0994657.02.15 0 1.5-5.241 2.737-11.971 2.9.491.011.986.019 1.491.019 7.44 0 13.48-1.31 13.48-2.92-.0018033-.0501991-.0085017-.1001023-.02-.149z" fill="#fec108"/><path id="Shape" d="m24.2 33c0 1.1-4.55 2-10.18 2-5.6 0-10.15-.89-10.18-1.99v-.01c.01-.04.01-.08.02-.12.32-1.05 4.75-1.88 10.16-1.88 5.63 0 10.18.9 10.18 2z" fill="#ffdc00"/><path id="Shape" d="m38.76 57.13c-.01-.01-.01-.01 0-.01" fill="#02a9f4"/><g fill="#f5f5f5"><circle id="Oval" cx="48" cy="32" r="1"/><circle id="Oval" cx="48" cy="40" r="1"/><circle id="Oval" cx="50" cy="36" r="1"/><circle id="Oval" cx="48" cy="46" r="1"/><circle id="Oval" cx="16.083" cy="41.823" r="1"/><circle id="Oval" cx="51" cy="48" r="1"/><circle id="Oval" cx="51" cy="43" r="1"/></g></g><g id="Layer_10" fill="#000"><path id="Shape" d="m38.838 58.787c.352.887 1.581 1.2 3.141 1.2 2.7832227-.1557616 5.5381403-.6411534 8.207-1.446 2.349675-.6414839 4.6340105-1.501918 6.823-2.57 1.509-.776 3.163-1.828 2.955-3.147-.0475682-.2853572-.1739968-.5517231-.365-.769-3.0058034-4.987978-4.2647161-10.8349905-3.578-16.618.2576299-3.9152204-.1274632-7.8462094-1.14-11.637-.0115972-.0600502-.0262834-.1194624-.044-.178-1.2150089-4.7946266-2.8461991-9.4740513-4.875-13.985-.0248315-.05526118-.0528796-.10901996-.084-.161-.469-.924-1.886-1.174-4.772-.845-2.9056482.38331165-5.7772381.99112985-8.589 1.818-.487.139-1.012.294-1.552.458.169-1.041.3-1.928.38-2.557.0518584-.25216931.0166025-.51447329-.1-.744-.914-2.242-7.556-4.455-11.763-5.65s-10.99-2.801-12.963-1.391c-.2181657.13422551-.386398.3361745-.479.575-1.689 3.743-7.03 16.485-6.06 25.807.68808554 5.7802101-.56910435 11.6249292-3.573 16.611-.19013485.2218037-.31844513.4898066-.372.777-.206 1.318 1.447 2.371 2.956 3.145 2.18849937 1.0694781 4.47293666 1.9302854 6.823 2.571 2.6686224.8063412 5.4235996 1.2927506 8.207 1.449 1.548 0 2.769-.312 3.132-1.183.0750867-.2517289.1038863-.5149909.085-.777.0610486-5.8390517 2.0636064-11.4917391 5.692-16.067.385-.5.757-1.027 1.121-1.6 1.1225004 3.6095975 2.8177805 7.0153514 5.021 10.087 3.6240352 4.550459 5.6295391 10.1781844 5.7 15.995-.0325054.278983-.0100838.5616311.066.832zm10.8-2.166c-2.7263948.8826556-5.5723396 1.340678-8.438 1.358 2.4477937-1.4895847 5.1093284-2.5954099 7.892-3.279 2.7284684-.8795265 5.5744055-1.3407564 8.441-1.368-2.4449922 1.4987896-5.1081245 2.6083718-7.894 3.289zm-9.21-36.469c-1.159 0-9.357.068-12.88 1.919-.3-1.5-.522-2.836-.685-3.911.189.013.391.02.608.02.7020533-.00772 1.4031348-.0544588 2.1-.14 2.9059119-.3841718 5.7777937-.9923154 8.59-1.819 3.373-.959 8.308-2.573 10.608-4.331 1.354559 3.1680348 2.5166719 6.4149381 3.48 9.723-3.89-1.403-10.767-1.461-11.821-1.461zm12.392 3.924c-.836.724-5.02 1.924-12.392 1.924s-11.556-1.2-12.392-1.924c.836-.722 5.02-1.924 12.392-1.924s11.556 1.202 12.392 1.924zm-15.757-11.7c3.336269-1.0589095 6.7929911-1.6919251 10.288-1.884-3.0725067 1.677003-6.3457467 2.9565943-9.741 3.808-3.3347903 1.0648321-6.792275 1.6979873-10.288 1.884 2.1226031-1.1961177 4.3691875-2.1574546 6.7-2.867l.037-.012c.92-.305 1.91-.621 3.004-.932zm-14.126-8.497c3.3951182.8518287 6.6683057 2.13139941 9.741 3.808-3.4956179-.18899972-6.952851-.82311702-10.288-1.887-3.3948765-.84886851-6.6681018-2.12576576-9.741-3.8 3.4951409.18750786 6.9522274.81891003 10.288 1.879zm-12.576 44.248c-2.78505324-.6817068-5.4474139-1.791586-7.892-3.29 2.86659831.0147182 5.71352298.4745308 8.439 1.363 2.7869503.6863926 5.4531626 1.7930713 7.907 3.282-2.8708778-.0146636-5.7223474-.4716947-8.454-1.355zm8.944-.7c-2.4861804-1.349504-5.1204324-2.406225-7.85-3.149-2.71354257-.8042515-5.5112608-1.2908404-8.337-1.45 1.11218233-2.227949 1.92392806-4.5935791 2.414-7.035 2.487 1.055 7.106 1.207 9.491 1.207 2.5654244.0339054 5.1280895-.1811013 7.652-.642-1.8715125 3.4194644-3.0186779 7.1877496-3.37 11.07zm-12.954-13.427c2.82239315-.7754958 5.7471784-1.1127635 8.672-1 2.9264858-.1132141 5.8529871.224057 8.677 1-2.8227268.7755353-5.7478475 1.1128028-8.673 1-2.9261549.1131748-5.8523207-.2240965-8.676-1zm19-1.752c-.071.092-.131.184-.2.277-2.244-1.343-7.52-1.525-10.128-1.525-2.225 0-6.394.133-8.964 1.006.12366152-1.7545982.09354665-3.5166522-.09-5.266-.821-7.897 3.231-18.584 5.266-23.34 2.3 1.758 7.234 3.372 10.608 4.331 2.8120983.82688169 5.6840215 1.43469965 8.59 1.818.696801.08635358 1.3979093.133428 2.1.141.216 0 .4183333-.00666667.607-.02-.086.571-.193 1.223-.316 1.928-3.623 1.223-7.385 2.852-8.064 4.5-.1174258.2260326-.1527699.4858115-.1.735.192 1.472.6 4.2 1.31 7.425.0119568.1080103.0347379.2145456.068.318.335 1.5.741 3.1 1.215 4.724-.5542874 1.0323108-1.191023 2.0181807-1.904 2.948zm9.306 8.493c-2.391-3.1-4.131-7.4-5.375-11.575-.007-.024-.012-.047-.02-.07-.258-.871-.49-1.73-.706-2.577 3.874 1.424 10.813 1.481 11.872 1.481 1.164 0 9.418-.069 12.918-1.941.6820745 3.0074396.9129348 6.0996197.685 9.175-.6068947 5.5255785.3835919 11.109299 2.854 16.089-2.8267737.1587134-5.6255366.6453089-8.34 1.45-2.730734.7430477-5.366024 1.8004524-7.853 3.151-.5191782-5.5341323-2.6143032-10.8033525-6.037-15.183z"/></g></g></g></svg>