<svg height="512" viewBox="0 0 256 256" width="512" xmlns="http://www.w3.org/2000/svg"><path d="m81.392 12.44a44.657 44.657 0 0 0 -47.93 62.91h.01a14.9 14.9 0 0 1 7.44-19.27 14.162 14.162 0 0 1 3.39-1.11 14.922 14.922 0 0 1 16.14 7.8l.03-.01a14.879 14.879 0 0 1 26.95-12.57l.03-.01a14.891 14.891 0 0 1 5.52-18.2 15.2 15.2 0 0 1 1.9-1.06 14.872 14.872 0 0 1 19.1 5.92c.06.09.12.19.18.29.09.15.17.31.26.47h.01a44.57 44.57 0 0 0 -33.03-25.16z" fill="#ff4a73"/><path d="m217.976 141.639-28.34 20.62-27.48-20-27.49 20-27.48-20-27.48 20-27.46-19.98a4.967 4.967 0 0 1 .96-2.5l32.12-43.33a5.691 5.691 0 0 1 3.66-1.34h4.33a1.74 1.74 0 0 0 -.06.45c0 4.48 18.03 5.33 19.64 9.22 1.68 4.04-10.41 17.38-7.37 20.42s16.39-9.04 20.42-7.37c3.89 1.61 4.75 19.65 9.22 19.65s5.33-18.04 9.22-19.65c4.03-1.67 17.38 10.41 20.41 7.37s-9.04-16.38-7.36-20.42c1.61-3.89 19.64-4.74 19.64-9.22a1.74 1.74 0 0 0 -.06-.45h4.33a5.691 5.691 0 0 1 3.66 1.34l32.119 43.33a4.979 4.979 0 0 1 .851 1.86z" fill="#ffe2e2"/><path d="m74.2 139.78a4.967 4.967 0 0 0 -.96 2.5l16.96 12.34-10.5 7.64-27.46-19.98a4.967 4.967 0 0 1 .96-2.5l32.12-43.33a5.691 5.691 0 0 1 3.66-1.34h4.33a1.74 1.74 0 0 0 -.06.45c0 2.36 5.01 3.72 9.99 5.04z" fill="#ffefee"/><path d="m217.972 141.64-28.34 20.62-10-7.28 18.34-13.34a4.993 4.993 0 0 0 -.85-1.86l-29.21-39.41c4.69-1.25 9.16-2.58 9.16-4.81a1.74 1.74 0 0 0 -.06-.45h4.33a5.691 5.691 0 0 1 3.658 1.34l32.12 43.33a4.993 4.993 0 0 1 .852 1.86z" fill="#ffcfcf"/><path d="m157.432 104.78c-1.68 4.04 10.4 17.38 7.36 20.42-2.54 2.55-12.32-5.52-17.8-7.22a4.006 4.006 0 0 0 -2.61-.15c-3.89 1.61-4.75 19.65-9.22 19.65s-5.33-18.04-9.22-19.65c-.92-.38-2.33-.04-4 .67-5.6 2.4-14.08 9.04-16.42 6.7-3.04-3.04 9.05-16.38 7.37-20.42-1.61-3.89-19.64-4.74-19.64-9.22a1.74 1.74 0 0 1 .06-.45c1.17-4.08 18.03-5 19.58-8.76 1.68-4.04-10.41-17.38-7.37-20.42 2.34-2.34 10.82 4.3 16.42 6.7 1.67.71 3.08 1.05 4 .67 3.89-1.61 4.75-19.65 9.22-19.65 3.96 0 5.09 14.18 8 18.52a2.927 2.927 0 0 0 1.22 1.13c4.03 1.67 17.38-10.41 20.41-7.37s-9.04 16.38-7.36 20.42c1.55 3.76 18.41 4.68 19.58 8.76a1.74 1.74 0 0 1 .06.45c0 4.48-18.03 5.33-19.64 9.22z" fill="#ff4a73"/><path d="m157.432 104.78c-1.68 4.04 10.4 17.38 7.36 20.42-2.54 2.55-12.32-5.52-17.8-7.22-2.7-5.79-5.16-11.75-4.56-13.2 1.61-3.89 19.64-4.74 19.64-9.22a1.74 1.74 0 0 0 -.06-.45c-1.17-4.08-18.03-5-19.58-8.76-.65-1.56-.27-8.17.73-14.18a2.927 2.927 0 0 0 1.22 1.13c4.03 1.67 17.38-10.41 20.41-7.37s-9.04 16.38-7.36 20.42c1.55 3.76 18.41 4.68 19.58 8.76a1.74 1.74 0 0 1 .06.45c0 4.48-18.03 5.33-19.64 9.22z" fill="#ea2a6a"/><path d="m127.892 104.78c1.05 2.53-3.3 8.71-5.95 13.72-5.6 2.4-14.08 9.04-16.42 6.7-3.04-3.04 9.05-16.38 7.37-20.42-1.61-3.89-19.64-4.74-19.64-9.22a1.74 1.74 0 0 1 .06-.45c1.17-4.08 18.03-5 19.58-8.76 1.68-4.04-10.41-17.38-7.37-20.42 2.34-2.34 10.82 4.3 16.42 6.7 2.65 5.01 7 11.19 5.95 13.72-1.55 3.76-18.41 4.68-19.58 8.76a1.74 1.74 0 0 0 -.06.45c0 4.48 18.03 5.33 19.64 9.22z" fill="#f973a3"/><path d="m147.172 95.56a12.01 12.01 0 1 1 -24.02 0c0-.15 0-.3.01-.45a12.009 12.009 0 0 1 24 0c.01.15.01.3.01.45z" fill="#f9d335"/><path d="m142.662 104.94a12.01 12.01 0 0 1 -19.51-9.38c0-.15 0-.3.01-.45a12 12 0 0 1 12-11.55 11.866 11.866 0 0 1 7.5 2.64 11.915 11.915 0 0 0 -4.5 8.91c-.01.15-.01.3-.01.45a11.976 11.976 0 0 0 4.51 9.38z" fill="#f9e27d"/><path d="m114.422 37.6h-.01c-.09-.16-.17-.32-.26-.47-.06-.1-.12-.2-.18-.29a14.872 14.872 0 0 0 -19.1-5.92 15.2 15.2 0 0 0 -1.9 1.06 35.725 35.725 0 0 0 -26.56-19.54 44.725 44.725 0 0 1 48.01 25.16z" fill="#ea2a6a"/><path d="m81.392 12.44a44.72 44.72 0 0 0 -37.092 42.53 14.162 14.162 0 0 0 -3.39 1.11 14.9 14.9 0 0 0 -7.44 19.27h-.01a44.657 44.657 0 0 1 47.93-62.91z" fill="#f973a3"/><path d="m218.1 142.76v28.51a79.163 79.163 0 0 1 -79.17 79.17h-7.54a79.171 79.171 0 0 1 -79.18-79.17v-28.51a3.866 3.866 0 0 1 .03-.48l27.46 19.98 27.48-20 27.48 20 27.49-20 27.48 20 28.34-20.62a4.7 4.7 0 0 1 .13 1.12z" fill="#44c7b6"/><path d="m218.1 142.76v28.51a79.163 79.163 0 0 1 -79.17 79.17h-7.54q-3.4 0-6.73-.29a79.16 79.16 0 0 0 72.44-78.88v-14.45l20.87-15.18a4.7 4.7 0 0 1 .13 1.12z" fill="#3bb2a0"/><path d="m145.662 250.15q-3.33.285-6.73.29h-7.54a79.171 79.171 0 0 1 -79.18-79.17v-28.51a3.866 3.866 0 0 1 .03-.48l20.97 15.26v13.73a79.169 79.169 0 0 0 72.45 78.88z" fill="#4bdbc3"/><g fill="#5f266d"><path d="m135.161 111.57a16.005 16.005 0 1 0 -16.01-16.01 16.027 16.027 0 0 0 16.01 16.01zm-8.009-16.2c0-.039 0-.078.006-.116a8.009 8.009 0 0 1 16.006 0c0 .047 0 .083.007.13v.177a8.011 8.011 0 0 1 -16.021 0z"/><path d="m229.254 35.018-22.254-18.275a8.994 8.994 0 0 0 -14.3 4.279l-20.733 66.716c-3.479-1.041-8.25-2.1-10.487-3.11a51.9 51.9 0 0 1 3.281-6.3c3.4-5.9 6.617-11.47 2.864-15.223s-9.332-.546-15.236 2.861a52.473 52.473 0 0 1 -6.281 3.278c-2.82-6.179-3.188-19.6-10.947-19.6-5.453 0-7.143 6.361-8.932 13.1a54.512 54.512 0 0 1 -2 6.486c-.2-.07-.432-.16-.709-.279-6.813-2.919-15.68-11-20.825-5.852-5.411 5.411 3.837 15.093 6.15 21.528-3.1 1.4-9.847 2.573-13.989 4.339l-21.2-42.856a10.862 10.862 0 0 1 10.214 5.909 4.017 4.017 0 0 0 7.273-3.394 10.867 10.867 0 0 1 5.424-14.081c4.466-2.081 10.288-1.288 14.075 4.5 3.036 5.394 9.458 1.255 7.411-3.138a48.688 48.688 0 0 0 -60.981-25.078l-3.245-6.957a4 4 0 1 0 -7.25 3.381l3.25 6.967a48.731 48.731 0 0 0 -19.99 62.822c2.172 4.659 9.343 1.579 7.324-3.241a10.891 10.891 0 0 1 19.725-9.2c2.371 4.6 9.213 1.219 7.273-3.392a10.849 10.849 0 0 1 2.2-11.789l20.726 41.887a8.86 8.86 0 0 0 -4.973 2.761l-32.123 43.333a8.947 8.947 0 0 0 -1.65 4.035c-.217 1-.127.379-.127 29.835a83.269 83.269 0 0 0 83.18 83.17h7.54a83.264 83.264 0 0 0 83.17-83.17v-28.51a9.03 9.03 0 0 0 -1.763-5.363c-.434-.585-32.2-43.54-32.756-44.007-3.037-2.56-6.044-2.281-8.286-2.281l21.04-67.717a.986.986 0 0 1 1.58-.472l22.261 18.28a4 4 0 1 0 5.076-6.182zm-124.864 59.351c5.973-1.585 10.692-2.837 12.195-6.483 1.926-4.632-2.562-10.533-5.951-16.846 3.237 1.737 6.67 3.955 9.742 5.271 2.009.853 4.63 1.7 7.095.685 4.678-1.936 5.458-9.3 7.69-16.469 1.524 4.892 2.514 10.643 4.682 13.877a6.765 6.765 0 0 0 3.008 2.596c4.611 1.912 10.508-2.558 16.832-5.953-3.4 6.325-7.867 12.22-5.949 16.833 1.927 4.675 9.241 5.449 16.459 7.689-7.127 2.218-14.527 3.023-16.457 7.686-1.917 4.623 2.544 10.5 5.944 16.834-2.567-1.379-4.957-2.884-7.591-4.246-13.252-6.825-13.617 4.125-16.926 14.759-2.334-7.516-3.084-15.181-8.331-16.684-4.5-1.281-10.117 2.914-16.193 6.174 3.375-6.291 7.877-12.209 5.953-16.838-1.511-3.648-6.221-4.9-12.184-6.483-1.629-.432-2.881-.77-4.273-1.2 1.44-.455 3.043-.881 4.255-1.202zm-48.627-41.609a18.876 18.876 0 0 0 -22.481 4.021 40.734 40.734 0 0 1 23.465-37.158h.011l.013-.008a40.648 40.648 0 0 1 43.546 5.915 18.92 18.92 0 0 0 -17.549 14.621 18.928 18.928 0 0 0 -27.005 12.609zm83.169 193.68h-7.54a75.26 75.26 0 0 1 -75.18-75.17v-21.154l21.136 15.378a4.006 4.006 0 0 0 4.711 0l25.124-18.285 25.125 18.286a4 4 0 0 0 4.711 0l25.134-18.285 25.125 18.286a4.006 4.006 0 0 0 4.711 0l22.111-16.096v21.87a75.255 75.255 0 0 1 -75.168 75.17zm43.222-147.121 30.546 41.209-23.067 16.783-25.126-18.286a4 4 0 0 0 -4.711 0l-25.134 18.285-25.125-18.286a4 4 0 0 0 -4.711 0l-25.126 18.287-22.419-16.311 30.9-41.678c.541-.3.99-.21 2.255-.21 3.306 4.305 13.615 5.236 18.41 7.4-2.314 6.429-11.558 16.115-6.15 21.524 5.394 5.392 15.277-3.91 21.535-6.129 2.717 6.064 3.631 22.305 12.814 19.293 5.885-1.925 6.571-13.735 9.06-19.294 6.268 2.219 16.135 11.537 21.523 6.129 5.409-5.408-3.826-15.085-6.14-21.523 4.819-2.171 15.086-3.061 18.416-7.4 1.26-.003 1.709-.093 2.25.207z"/></g></svg>