<svg id="Layer_1" enable-background="new 0 0 256 256" height="512" viewBox="0 0 256 256" width="512" xmlns="http://www.w3.org/2000/svg"><g><g><g><path d="m47.643 104.214c-.974 11.564-13.024 13.39-13.024 13.39 10.347.487 12.925 14.059 12.925 14.059.221-9.677 13.321-14.202 13.321-14.202-9.813-.587-13.222-13.247-13.222-13.247z" fill="#d7e057"/></g></g><g><g><path d="m60.955 115.964c-8.604-.516-11.832-12.025-11.863-12.142-.19-.702-.853-1.165-1.584-1.102-.725.066-1.298.642-1.359 1.367-.859 10.216-11.312 11.964-11.754 12.032-.763.116-1.313.791-1.273 1.561.04.771.657 1.385 1.428 1.421 9.027.426 11.498 12.719 11.521 12.843.138.712.76 1.218 1.473 1.218.042 0 .084-.002.126-.005.765-.064 1.357-.693 1.375-1.46.193-8.509 12.191-12.777 12.312-12.819.676-.234 1.092-.914.994-1.622s-.682-1.249-1.396-1.292zm-13.566 10.345c-1.356-3.13-3.708-6.907-7.586-8.876 2.931-1.404 6.408-3.913 8.201-8.273 1.551 3.071 4.2 6.881 8.334 8.723-3.008 1.639-6.923 4.404-8.949 8.426z" fill="#3a312a"/></g></g><g><g><path d="m25.945 121.195c-.689 8.179-9.212 9.471-9.212 9.471 7.318.344 9.142 9.944 9.142 9.944.156-6.844 9.422-10.045 9.422-10.045-6.942-.416-9.352-9.37-9.352-9.37z" fill="#d7e057"/></g></g><g><g><path d="m35.387 129.067c-5.767-.346-7.973-8.186-7.995-8.265-.189-.702-.86-1.168-1.581-1.102-.726.065-1.3.643-1.361 1.368-.578 6.87-7.646 8.065-7.941 8.112-.763.116-1.313.791-1.273 1.561.04.771.657 1.385 1.428 1.421 6.035.284 7.723 8.645 7.738 8.727.136.712.759 1.22 1.473 1.22.041 0 .083-.002.124-.005.765-.063 1.359-.693 1.377-1.461.131-5.708 8.332-8.633 8.413-8.661.676-.234 1.093-.913.996-1.622-.099-.709-.684-1.25-1.398-1.293zm-9.585 6.795c-.924-1.886-2.34-3.947-4.447-5.28 1.855-1.041 3.697-2.63 4.87-4.916 1.058 1.874 2.654 3.954 4.942 5.224-1.85 1.1-3.989 2.74-5.365 4.972z" fill="#3a312a"/></g></g><g><g><path d="m25.945 94.537c-.689 8.179-9.212 9.471-9.212 9.471 7.318.344 9.142 9.944 9.142 9.944.156-6.844 9.422-10.045 9.422-10.045-6.942-.416-9.352-9.37-9.352-9.37z" fill="#d7e057"/></g></g><g><g><path d="m35.387 102.41c-5.767-.346-7.973-8.187-7.995-8.266-.189-.702-.86-1.167-1.581-1.102-.726.065-1.3.643-1.361 1.368-.578 6.871-7.646 8.066-7.941 8.113-.763.116-1.313.791-1.273 1.561.04.771.657 1.385 1.428 1.421 6.035.284 7.723 8.645 7.738 8.727.136.712.759 1.22 1.473 1.22.041 0 .083-.002.124-.005.766-.063 1.359-.693 1.377-1.461.131-5.709 8.332-8.633 8.412-8.661.677-.233 1.094-.913.997-1.622-.099-.709-.684-1.25-1.398-1.293zm-9.585 6.794c-.924-1.885-2.34-3.947-4.447-5.279 1.855-1.041 3.697-2.63 4.87-4.917 1.058 1.874 2.654 3.955 4.942 5.225-1.851 1.1-3.989 2.739-5.365 4.971z" fill="#3a312a"/></g></g><g><g><path d="m238.042 169.741c-6.266-30.435-8.497-61.562-5.319-92.473l3.856-37.512h-148.099l3.856 37.512c3.178 30.91.947 62.038-5.32 92.473-.805 3.911-1.226 7.939-1.226 12.054 0 21.2 11.149 40.112 28.578 52.465 4.825 3.42 10.625 5.195 16.538 5.195h63.245c5.914 0 11.714-1.774 16.538-5.195 17.429-12.353 28.578-31.265 28.578-52.465.001-4.114-.42-8.143-1.225-12.054z" fill="#fce8cb"/></g></g><g><g><path d="m239.511 169.438c-6.53-31.718-8.312-62.676-5.296-92.017l3.855-37.512c.043-.422-.094-.843-.379-1.158-.284-.315-.688-.495-1.113-.495h-77.876c-.828 0-1.5.672-1.5 1.5s.672 1.5 1.5 1.5h76.214l-3.686 35.858c-3.048 29.646-1.25 60.911 5.343 92.929.792 3.853 1.194 7.807 1.194 11.751 0 19.977-10.186 38.654-27.945 51.242-4.539 3.218-9.958 4.918-15.671 4.918h-63.245c-5.712 0-11.131-1.7-15.671-4.918-17.76-12.588-27.945-31.266-27.945-51.242 0-3.944.402-7.898 1.194-11.751 6.594-32.021 8.392-63.286 5.344-92.929l-3.687-35.858h53.478c.828 0 1.5-.672 1.5-1.5s-.672-1.5-1.5-1.5h-55.14c-.425 0-.829.18-1.113.495-.285.315-.422.736-.379 1.158l3.856 37.512c3.017 29.338 1.234 60.297-5.297 92.017-.834 4.053-1.257 8.21-1.257 12.356 0 20.963 10.646 40.531 29.211 53.689 5.049 3.579 11.068 5.471 17.405 5.471h63.245c6.338 0 12.357-1.892 17.405-5.471 18.564-13.158 29.211-32.727 29.211-53.689.002-4.146-.421-8.303-1.255-12.356z" fill="#3a312a"/></g></g><g><g><path d="m238.042 169.742c-4.203-20.415-6.579-41.141-6.737-61.905h-137.552c-.158 20.763-2.534 41.49-6.737 61.905-.805 3.911-1.226 7.939-1.226 12.053 0 21.201 11.15 40.112 28.578 52.466 4.825 3.42 10.624 5.194 16.538 5.194h63.245c5.914 0 11.714-1.775 16.538-5.194 17.429-12.354 28.578-31.264 28.578-52.466.001-4.115-.42-8.143-1.225-12.053z" fill="#8ac6dd"/></g></g><g><g><path d="m239.511 169.439c-4.298-20.879-6.555-41.608-6.706-61.614-.006-.823-.676-1.488-1.5-1.488h-137.552c-.824 0-1.494.665-1.5 1.488-.151 20.011-2.408 40.74-6.706 61.614-.834 4.052-1.257 8.208-1.257 12.355 0 20.963 10.646 40.531 29.211 53.689 5.049 3.579 11.068 5.471 17.405 5.471h63.245c6.338 0 12.357-1.892 17.405-5.471 18.564-13.158 29.211-32.727 29.211-53.689.001-4.147-.422-8.303-1.256-12.355zm-29.689 63.598c-4.539 3.218-9.958 4.918-15.671 4.918h-63.245c-5.712 0-11.131-1.7-15.671-4.918-17.76-12.588-27.945-31.266-27.945-51.242 0-3.944.402-7.897 1.194-11.75 4.232-20.549 6.503-40.964 6.753-60.708h134.583c.25 19.739 2.521 40.154 6.753 60.708.792 3.853 1.194 7.806 1.194 11.75.001 19.976-10.185 38.654-27.945 51.242z" fill="#3a312a"/></g></g><g><g><path d="m175.221 164.082c-.191-2.485-2.36-4.344-4.844-4.154l-20.407 1.566c-2.485.191-4.345 2.36-4.154 4.844l1.566 20.407c.191 2.485 2.36 4.344 4.845 4.154l20.407-1.566c2.485-.191 4.345-2.36 4.154-4.844z" fill="#fce8cb"/></g></g><g><g><path d="m178.282 184.374-1.565-20.406c-.123-1.602-.862-3.059-2.081-4.104-1.22-1.046-2.774-1.559-4.374-1.431l-20.406 1.565c-1.602.123-3.06.862-4.105 2.081-1.045 1.22-1.553 2.772-1.43 4.375l1.565 20.406c.123 1.602.862 3.06 2.081 4.104 1.1.942 2.471 1.448 3.903 1.448.156 0 .313-.006.471-.018l20.406-1.565c.001-.001.001-.001.001-.001 3.305-.253 5.788-3.148 5.534-6.454zm-5.764 3.465-20.406 1.565c-.795.062-1.58-.193-2.191-.717-.61-.523-.981-1.254-1.043-2.057l-1.565-20.406c-.062-.803.192-1.581.717-2.192.523-.61 1.254-.981 2.057-1.043l20.406-1.565c.079-.007.157-.01.235-.01.718 0 1.405.254 1.956.727.61.523.981 1.254 1.043 2.057l1.565 20.406c.126 1.656-1.118 3.107-2.774 3.235z" fill="#3a312a"/></g></g><g><g><path d="m211.86 146.255-11.927-16.633c-1.452-2.025-4.271-2.49-6.297-1.038l-16.633 11.927c-2.025 1.452-2.49 4.271-1.037 6.297l11.927 16.633c1.452 2.025 4.271 2.49 6.297 1.038l16.633-11.927c2.025-1.453 2.489-4.272 1.037-6.297z" fill="#fce8cb"/></g></g><g><g><path d="m213.079 145.381-11.927-16.633c-.936-1.306-2.323-2.168-3.908-2.429-1.585-.262-3.176.11-4.481 1.047l-16.633 11.927c-2.694 1.932-3.314 5.694-1.383 8.389l11.928 16.634c1.173 1.635 3.021 2.506 4.894 2.506 1.213 0 2.437-.365 3.495-1.124l16.633-11.927c1.306-.936 2.168-2.323 2.429-3.908.261-1.586-.11-3.176-1.047-4.482zm-1.914 3.993c-.131.794-.562 1.49-1.217 1.959l-16.633 11.927c-1.351.967-3.234.657-4.203-.692l-11.928-16.634c-.469-.654-.654-1.451-.523-2.245.131-.793.562-1.489 1.217-1.958l16.633-11.927c.518-.371 1.125-.565 1.75-.565.164 0 .33.014.496.041.794.131 1.489.563 1.958 1.217l11.927 16.633c.468.653.654 1.45.523 2.244z" fill="#3a312a"/></g></g><g><g><path d="m205.245 16.681-18.921 48.583-5.695 14.621-10.886 27.952h21.666l35.503-91.156z" fill="#87796f"/></g></g><g><g><path d="m228.15 15.834c-.279-.409-.743-.653-1.238-.653h-21.667c-.618 0-1.173.38-1.397.956l-18.922 48.583c-.301.771.081 1.641.854 1.941.771.303 1.642-.08 1.941-.854l18.55-47.627h18.447l-34.334 88.156h-18.446l10.089-25.907c.301-.771-.081-1.641-.854-1.941-.769-.302-1.641.08-1.941.854l-10.886 27.951c-.18.461-.12.981.159 1.391s.743.653 1.238.653h21.666c.618 0 1.173-.38 1.397-.956l35.503-91.156c.18-.461.121-.982-.159-1.391z" fill="#3a312a"/></g></g><g><g><path d="m218.362 38.257h-22.104c-.828 0-1.5.672-1.5 1.5s.672 1.5 1.5 1.5h22.104c.828 0 1.5-.672 1.5-1.5s-.672-1.5-1.5-1.5z" fill="#3a312a"/></g></g><g><g><path d="m218.947 41.251-.69 1.781-3.51 34.08c-.98 9.58-1.45 19.34-1.43 29.229h16.48c-.02-9.89.45-19.65 1.43-29.229l3.69-35.86h-15.97z" fill="#decaad"/></g></g><g><g><path d="m236.578 170.042c-4.24-20.55-6.51-40.96-6.76-60.7h-16.48c.25 19.74 2.52 40.15 6.75 60.7.8 3.86 1.2 7.81 1.2 11.75 0 19.98-10.19 38.66-27.95 51.25-4.54 3.21-9.96 4.91-15.67 4.91h16.48c5.72 0 11.14-1.7 15.68-4.91 17.75-12.59 27.94-31.27 27.94-51.25-.001-3.941-.401-7.891-1.19-11.75z" fill="#6da4bd"/></g></g><g><g><ellipse cx="90.673" cy="52.12" fill="#d7e057" rx="35.575" ry="35.576" transform="matrix(.055 -.999 .999 .055 33.618 139.772)"/></g></g><g><g><path d="m90.673 15.045c-20.443 0-37.075 16.632-37.075 37.076 0 20.443 16.632 37.075 37.075 37.075s37.075-16.632 37.075-37.075c0-20.444-16.632-37.076-37.075-37.076zm0 71.151c-18.789 0-34.075-15.286-34.075-34.075 0-18.79 15.286-34.076 34.075-34.076s34.075 15.286 34.075 34.076c0 18.789-15.286 34.075-34.075 34.075z" fill="#3a312a"/></g></g><g><g><circle cx="90.673" cy="52.121" fill="#fce8cb" r="24.77"/></g></g><g><g><path d="m90.673 25.851c-14.485 0-26.271 11.785-26.271 26.271s11.785 26.271 26.271 26.271 26.271-11.785 26.271-26.271-11.786-26.271-26.271-26.271zm0 49.541c-12.831 0-23.271-10.439-23.271-23.271s10.439-23.271 23.271-23.271 23.271 10.439 23.271 23.271-10.44 23.271-23.271 23.271z" fill="#3a312a"/></g></g><g><g><path d="m210.079 183.478-65.972 26.598c7.471 17.984 28.042 26.643 46.146 19.344 18.105-7.3 26.917-27.806 19.826-45.942z" fill="#d7e057"/></g></g><g><g><path d="m211.477 182.932c-.146-.373-.436-.673-.803-.831-.367-.159-.784-.163-1.155-.015l-65.973 26.598c-.372.15-.668.442-.823.812-.154.369-.155.785-.001 1.155 5.899 14.201 19.78 22.832 34.342 22.832 4.592 0 9.253-.859 13.75-2.672 18.758-7.563 28.027-29.041 20.663-47.879zm-21.785 45.095c-16.771 6.763-35.987-.918-43.588-17.141l63.099-25.438c5.776 16.958-2.742 35.82-19.511 42.579z" fill="#3a312a"/></g></g><g><g><path d="m200.057 187.518-45.929 18.517c5.239 12.449 19.515 18.431 32.085 13.363 12.57-5.067 18.705-19.279 13.844-31.88z" fill="#fce8cb"/></g></g><g><g><path d="m201.457 186.978c-.145-.375-.434-.676-.802-.836s-.786-.165-1.158-.016l-45.93 18.518c-.373.15-.67.444-.824.814-.154.371-.153.789.002 1.159 4.204 9.99 14.025 16.061 24.306 16.061 3.249 0 6.545-.607 9.723-1.888 13.23-5.334 19.817-20.502 14.683-33.812zm-15.805 31.029c-11.246 4.535-24.15-.468-29.505-11.169l43.013-17.341c3.564 11.425-2.264 23.978-13.508 28.51z" fill="#3a312a"/></g></g><g><g><path d="m102.646 114.669c-3.134 19.22 9.781 37.424 29.013 40.767s37.532-9.435 41.068-28.585z" fill="#d7e057"/></g></g><g><g><path d="m173.959 125.995c-.229-.329-.58-.553-.975-.621l-70.081-12.183c-.391-.071-.8.023-1.127.256-.326.231-.546.585-.61.98-3.255 19.963 10.309 39.022 30.236 42.485 2.121.369 4.231.547 6.318.547 17.517 0 33.199-12.562 36.481-30.336.074-.393-.013-.8-.242-1.128zm-42.043 27.963c-17.813-3.097-30.095-19.754-28-37.546l67.028 11.652c-4.034 17.455-21.218 28.992-39.028 25.894z" fill="#3a312a"/></g></g><g><g><path d="m113.292 116.52c-2.112 13.34 6.865 25.95 20.218 28.271s26.059-6.52 28.572-19.79z" fill="#fce8cb"/></g></g><g><g><path d="m163.315 124.146c-.229-.33-.581-.555-.977-.623l-48.79-8.481c-.392-.072-.803.023-1.129.258-.327.233-.547.588-.609.985-2.231 14.09 7.388 27.541 21.442 29.983 1.497.261 2.987.386 4.461.386 12.363 0 23.47-8.851 25.842-21.374.076-.394-.011-.802-.24-1.134zm-29.548 19.167c-11.945-2.077-20.273-13.13-19.182-25.047l45.69 7.942c-2.994 11.588-14.563 19.182-26.508 17.105z" fill="#3a312a"/></g></g><g><g><path d="m90.673 25.851c-.828 0-1.5.672-1.5 1.5v49.541c0 .828.672 1.5 1.5 1.5s1.5-.672 1.5-1.5v-49.541c0-.829-.672-1.5-1.5-1.5z" fill="#3a312a"/></g></g><g><g><path d="m115.443 50.621h-49.541c-.828 0-1.5.672-1.5 1.5s.672 1.5 1.5 1.5h49.541c.828 0 1.5-.672 1.5-1.5s-.672-1.5-1.5-1.5z" fill="#3a312a"/></g></g><g><g><path d="m109.249 33.545c-.586-.586-1.535-.586-2.121 0l-35.031 35.03c-.586.586-.586 1.535 0 2.121.293.293.677.439 1.061.439s.768-.146 1.061-.439l35.031-35.03c.585-.586.585-1.535-.001-2.121z" fill="#3a312a"/></g></g><g><g><path d="m109.249 68.575-35.031-35.03c-.586-.586-1.535-.586-2.121 0s-.586 1.535 0 2.121l35.031 35.03c.293.293.677.439 1.061.439s.768-.146 1.061-.439c.585-.586.585-1.535-.001-2.121z" fill="#3a312a"/></g></g><g><g><path d="m130.502 168.629c-6.528-3.177-22.377 11.524-26.021 19.012s-.528 16.512 6.96 20.156 16.512.528 20.156-6.96 4.429-29.52-1.095-32.208z" fill="#d7e057"/></g></g><g><g><path d="m131.158 167.281c-7.816-3.807-24.351 12.152-28.025 19.703-4 8.22-.567 18.161 7.652 22.161 2.329 1.134 4.796 1.67 7.228 1.67 6.148 0 12.066-3.433 14.934-9.322 1.861-3.824 3.083-11.286 3.041-18.568-.029-4.98-.695-13.632-4.83-15.644zm-.909 32.9c-3.276 6.73-11.417 9.543-18.151 6.268-6.731-3.276-9.543-11.419-6.268-18.151 1.752-3.598 6.489-8.94 11.521-12.992 4.471-3.6 8.497-5.619 11.046-5.619.557 0 1.043.096 1.448.293 1.531.745 3.097 5.042 3.142 12.963.039 6.755-1.087 13.844-2.738 17.238z" fill="#3a312a"/></g></g></g></svg>