<svg height="512" viewBox="0 0 256 256" width="512" xmlns="http://www.w3.org/2000/svg"><path d="m137.11 252h-106.888a10.6 10.6 0 0 1 -10.589-10.146l-10.164-237.854h148.394l-10.163 237.854a10.6 10.6 0 0 1 -10.59 10.146z" fill="#f4efed"/><path d="m147.863 4-10.163 237.854a10.6 10.6 0 0 1 -10.59 10.146h10a10.6 10.6 0 0 0 10.59-10.146l10.163-237.854z" fill="#d6d1cf"/><path d="m19.469 4 10.164 237.854a10.6 10.6 0 0 0 10.589 10.146h-10a10.6 10.6 0 0 1 -10.589-10.146l-10.164-237.854z" fill="#fff"/><path d="m148.015 234.444 8.332-194.984h-145.363l8.333 194.984z" fill="#ff4397"/><path d="m146.347 39.46-8.332 194.984h10l8.332-194.984z" fill="#e12579"/><path d="m20.984 39.46 8.333 194.984h-10l-8.333-194.984z" fill="#ff61b5"/><g fill="#690589"><path d="m137.109 254h-106.887a12.571 12.571 0 0 1 -12.587-12.06l-10.164-237.855a2 2 0 0 1 1.998-2.085h148.393a2 2 0 0 1 2 2.085l-10.162 237.855a12.571 12.571 0 0 1 -12.591 12.06zm-125.553-248 10.075 235.77a8.58 8.58 0 0 0 8.591 8.23h106.887a8.579 8.579 0 0 0 8.591-8.23l10.075-235.77z"/><path d="m155.287 41.46h-143.243a2 2 0 0 1 0-4h143.243a2 2 0 0 1 0 4z"/><path d="m22.227 70.6a2 2 0 0 1 -2-1.915l-.512-12a2 2 0 0 1 1.917-2.085 2.041 2.041 0 0 1 2.083 1.913l.512 12a2 2 0 0 1 -1.913 2.087z"/><path d="m146.955 236.444h-126.578a2 2 0 0 1 0-4h126.578a2 2 0 0 1 0 4z"/></g><path d="m246.531 145.549a106.451 106.451 0 0 1 -212.9 0z" fill="#7bac51"/><path d="m236.531 145.549a106.452 106.452 0 0 1 -101.451 106.331c1.657.076 3.324.12 5 .12a106.451 106.451 0 0 0 106.451-106.451z" fill="#5d8e33"/><path d="m43.629 145.549a106.451 106.451 0 0 0 101.451 106.331c-1.658.076-3.324.12-5 .12a106.451 106.451 0 0 1 -106.451-106.451z" fill="#99ca6f"/><path d="m226.886 145.549a86.806 86.806 0 0 1 -173.612 0z" fill="#ff4397"/><path d="m140.08 254a108.574 108.574 0 0 1 -108.451-108.451 2 2 0 0 1 2-2h212.9a2 2 0 0 1 2 2 108.574 108.574 0 0 1 -108.449 108.451zm-104.433-106.451a104.452 104.452 0 0 0 208.866 0z" fill="#690589"/><path d="m140.08 234.354a88.905 88.905 0 0 1 -88.806-88.8 2 2 0 0 1 2-2h173.612a2 2 0 0 1 2 2 88.905 88.905 0 0 1 -88.806 88.8zm-84.78-86.805a84.806 84.806 0 0 0 169.564 0z" fill="#690589"/><path d="m140.08 197.973a5.811 5.811 0 0 1 -5.033-8.717l5.033-8.718 5.033 8.718a5.811 5.811 0 0 1 -5.033 8.717z" fill="#f4efed"/><path d="m103.01 182.619a5.812 5.812 0 0 1 2.6-9.724l9.724-2.605-2.606 9.723a5.812 5.812 0 0 1 -9.723 2.606z" fill="#f4efed"/><path d="m177.15 182.619a5.812 5.812 0 0 1 -9.724-2.606l-2.6-9.723 9.723 2.605a5.812 5.812 0 0 1 2.606 9.724z" fill="#f4efed"/><path d="m140.08 199.974a7.813 7.813 0 0 1 -6.765-11.718l5.033-8.718a2 2 0 0 1 3.464 0l5.034 8.718a7.813 7.813 0 0 1 -6.766 11.718zm0-15.436-3.3 5.718a3.811 3.811 0 1 0 6.6 0z" fill="#690589"/><path d="m107.085 186.328a7.815 7.815 0 0 1 -1.987-15.364l9.723-2.606a2 2 0 0 1 2.45 2.45l-2.606 9.723a7.731 7.731 0 0 1 -5.523 5.524 7.962 7.962 0 0 1 -2.057.273zm5.426-13.21-6.378 1.709a3.812 3.812 0 1 0 4.667 4.673z" fill="#690589"/><path d="m173.075 186.328a7.968 7.968 0 0 1 -2.057-.273 7.731 7.731 0 0 1 -5.523-5.524l-2.605-9.723a2 2 0 0 1 2.449-2.45l9.722 2.606a7.81 7.81 0 0 1 3.5 13.068 7.727 7.727 0 0 1 -5.486 2.296zm-5.426-13.21 1.709 6.378a3.811 3.811 0 0 0 6.377 1.708 3.81 3.81 0 0 0 -1.709-6.377z" fill="#690589"/></svg>