<svg height="464pt" viewBox="-72 0 464 464.02044" width="464pt" xmlns="http://www.w3.org/2000/svg"><path d="m96.011719 112c0 26.507812-21.492188 48-48 48-26.511719 0-48.0000002-21.492188-48.0000002-48s21.4882812-48 48.0000002-48c26.507812 0 48 21.492188 48 48zm0 0" fill="#f9e109"/><g fill="#fcbc04"><path d="m72.011719 136c-16.304688.003906-31.496094-8.265625-40.339844-21.960938-8.84375-13.695312-10.132813-30.941406-3.421875-45.800781-19.445312 8.800781-30.742188 29.378907-27.730469 50.507813s19.613281 37.730468 40.742188 40.742187c21.128906 3.015625 41.710937-8.285156 50.507812-27.726562-6.210937 2.796875-12.945312 4.242187-19.757812 4.238281zm0 0"/><path d="m89.53125 88c-8.566406-14.835938-24.390625-23.984375-41.519531-24v48zm0 0"/><path d="m6.488281 88c-8.574219 14.851562-8.574219 33.148438 0 48l41.523438-24zm0 0"/></g><path d="m25.289062 98.878906-18.71875-10.878906c-8.726562 14.808594-8.726562 33.191406 0 48l29.039063-16.800781c-5.007813-5.855469-8.546875-12.820313-10.320313-20.320313zm0 0" fill="#e59730"/><path d="m56.011719 120h160v312c0 17.671875-14.328125 32-32 32h-96c-17.675781 0-32-14.328125-32-32zm0 0" fill="#aae1f9"/><path d="m184.011719 392c-53.019531 0-96-42.980469-96-96v-176h-32v312c0 17.671875 14.324219 32 32 32h96c17.671875 0 32-14.328125 32-32v-40zm0 0" fill="#57b7eb"/><path d="m280.011719 27.679688-16-27.679688-96 55.441406c-9.890625 5.707032-15.988281 16.257813-16 27.679688v140.878906h32v-140.878906zm0 0" fill="#7ab92d"/><path d="m135.050781 171.601562c-25.484375-8.378906-52.222656-12.300781-79.039062-11.601562v272c0 17.671875 14.324219 32 32 32h96c17.671875 0 32-14.328125 32-32v-248.640625c-27.472657.890625-54.882813-3.089844-80.960938-11.757813zm0 0" fill="#f9e109"/><path d="m184.011719 392c-53.019531 0-96-42.980469-96-96v-134.640625c-10.625-1.171875-21.316407-1.625-32-1.359375v272c0 17.671875 14.324219 32 32 32h96c17.671875 0 32-14.328125 32-32v-40zm0 0" fill="#fcbc04"/><path d="m202.171875 72.640625 77.839844-44.960937-16-27.679688-43.203125 24.960938c-9.253906 14.53125-15.585938 30.726562-18.636719 47.679687zm0 0" fill="#a1d51c"/><path d="m88.042969 401.367188 22.628906-22.625 22.628906 22.625-22.628906 22.628906zm0 0" fill="#57b7eb"/><path d="m138.730469 334.644531 22.628906-22.625 22.625 22.625-22.625 22.628907zm0 0" fill="#aae1f9"/><path d="m87.960938 271.984375 27.714843-16 16 27.714844-27.714843 16zm0 0" fill="#aae1f9"/><path d="m310.332031 372c-13.042969-22.558594-35.683593-35.121094-56-32.878906l-1.683593-3.121094c-4.417969-7.664062-14.210938-10.296875-21.878907-5.878906-7.664062 4.417968-10.296875 14.214844-5.878906 21.878906l1.757813 3.039062c-12 16-12.476563 42.320313.5625 64.882813 13.039062 22.558594 35.679687 35.117187 56 32.957031l1.757812 3.042969c4.417969 7.664063 14.214844 10.296875 21.882812 5.878906 7.664063-4.417969 10.296876-14.214843 5.878907-21.878906l-1.761719-3.042969c11.921875-16.320312 12.402344-42.238281-.636719-64.878906zm0 0" fill="#f9e109"/><path d="m310.890625 436.960938c3.097656-4.316407 5.425781-9.132813 6.878906-14.242188-4.539062.835938-9.144531 1.261719-13.757812 1.28125-38.972657-.03125-72.253907-28.140625-78.800781-66.558594-10.820313 19.648438-10.054688 43.636719 2 62.558594 13.039062 22.640625 35.679687 35.121094 56 32.960938l1.757812 3.039062c4.417969 7.664062 14.214844 10.296875 21.882812 5.878906 7.664063-4.417968 10.296876-14.214844 5.878907-21.878906zm0 0" fill="#fcbc04"/><path d="m264.351562 292.363281 13.855469-8c8.835938 15.304688 3.59375 34.875-11.714843 43.714844l-13.855469 8c-8.835938-15.308594-3.59375-34.878906 11.714843-43.714844zm0 0" fill="#aae1f9"/></svg>