<?xml version="1.0" encoding="iso-8859-1"?>
<!-- Generator: Adobe Illustrator 19.0.0, SVG Export Plug-In . SVG Version: 6.00 Build 0)  -->
<svg version="1.1" id="Layer_1" xmlns="http://www.w3.org/2000/svg" xmlns:xlink="http://www.w3.org/1999/xlink" x="0px" y="0px"
	 viewBox="0 0 511.999 511.999" style="enable-background:new 0 0 511.999 511.999;" xml:space="preserve">
<path style="fill:#FFD042;" d="M210.774,167.196L99.538,13.176c-2.017-2.792-5.071-4.656-8.477-5.174
	c-3.402-0.517-6.875,0.355-9.63,2.421l-68.452,51.34C7.308,66.015,6.16,74.06,10.413,79.731c4.253,5.671,12.299,6.818,17.969,2.567
	l57.998-43.499l103.585,143.426c2.51,3.475,6.434,5.321,10.416,5.321c2.604,0,5.232-0.79,7.505-2.431
	C213.631,180.965,214.925,172.942,210.774,167.196z"/>
<path style="fill:#FFC412;" d="M200.38,187.546c2.656,0,5.338-0.822,7.641-2.531c0.001-0.004,0.001-0.007,0.002-0.012
	L101.807,38.028c-2.835-3.923-8.356-4.716-12.181-1.749l-3.247,2.519l103.585,143.426C192.474,185.7,196.398,187.546,200.38,187.546
	z"/>
<path style="fill:#A4D64D;" d="M33.515,170.433c-12.357,28.896-17.114,60.708-17.114,94.123
	c0,132.32,107.266,239.586,239.586,239.586s239.586-107.266,239.586-239.586c0-33.415-4.756-65.227-17.114-94.123L33.515,170.433
	L33.515,170.433z"/>
<path style="fill:#EDECEB;" d="M33.515,170.433c0,47.257,38.309,85.567,85.567,85.567c34.784,0,64.697-20.768,78.077-50.568
	c11.942,20.031,33.814,33.455,58.829,33.455s46.887-13.424,58.829-33.455C328.197,235.233,358.111,256,392.894,256
	c47.257,0,85.567-38.309,85.567-85.567H33.515z"/>
<path style="fill:#8EC42F;" d="M50.629,264.556c0-33.415,4.756-65.227,17.114-94.123H33.515
	c-12.357,28.896-17.114,60.708-17.114,94.123c0,132.32,107.266,239.586,239.586,239.586c5.755,0,11.46-0.216,17.114-0.615
	C148.77,494.751,50.629,391.121,50.629,264.556z"/>
<path style="fill:#DBD9D7;" d="M67.742,170.433H33.515c0,47.257,38.309,85.567,85.567,85.567c5.852,0,11.561-0.601,17.082-1.72
	C97.124,246.338,67.742,211.818,67.742,170.433z"/>
<path style="fill:#EDECEB;" d="M178.979,333.009c0-18.903,34.227-68.453,34.227-68.453s34.227,49.55,34.227,68.453
	s-15.324,34.227-34.227,34.227S178.979,351.912,178.979,333.009z"/>
<path style="fill:#DBD9D7;" d="M196.092,333.009c0-12.734,15.533-39.375,25.67-55.408c-4.911-7.767-8.556-13.045-8.556-13.045
	s-34.227,49.55-34.227,68.453c0,18.903,15.324,34.227,34.227,34.227c2.955,0,5.821-0.375,8.556-1.078
	C207,362.358,196.092,348.957,196.092,333.009z"/>
<path style="fill:#EDECEB;" d="M110.525,401.462c0-14.177,25.67-51.34,25.67-51.34s25.67,37.163,25.67,51.34
	c0,14.177-11.493,25.67-25.67,25.67S110.525,415.64,110.525,401.462z"/>
<path style="fill:#DBD9D7;" d="M127.639,401.462c0-8.692,9.646-26.017,17.114-38.127c-4.711-7.641-8.556-13.212-8.556-13.212
	s-25.67,37.163-25.67,51.34c0,14.177,11.493,25.67,25.67,25.67c3.001,0,5.88-0.52,8.556-1.467
	C134.783,422.141,127.639,412.638,127.639,401.462z"/>
<path style="fill:#FF7161;" d="M290.431,218.723c-26.966-8.761-41.724-37.725-32.962-64.692
	c8.761-26.966,37.725-41.724,64.692-32.962c26.966,8.761,58,43.014,49.238,69.981C362.637,218.016,317.398,227.485,290.431,218.723z
	"/>
<path style="fill:#FFD8D4;" d="M328.197,116.683c0-28.354,22.985-51.34,51.34-51.34s51.34,22.985,51.34,51.34
	s-22.985,68.453-51.34,68.453C351.183,185.136,328.197,145.038,328.197,116.683z"/>
<path style="fill:#FF9A8F;" d="M466.337,225.818c16.666,22.939,11.581,55.045-11.358,71.711
	c-22.939,16.666-55.045,11.581-71.711-11.358s-21.64-68.891,1.299-85.556C407.505,183.95,449.671,202.88,466.337,225.818z"/>
<path style="fill:#FFD8D4;" d="M375.807,286.173c-16.666,22.939-48.772,28.025-71.711,11.358
	c-22.939-16.666-28.025-48.772-11.358-71.711c16.666-22.939,58.832-41.869,81.77-25.203
	C397.447,217.282,392.472,263.234,375.807,286.173z"/>
<path style="fill:#FF7161;" d="M436.913,121.069c26.966-8.761,55.93,5.996,64.692,32.962c8.762,26.966-5.996,55.93-32.962,64.692
	c-26.966,8.761-72.206-0.708-80.968-27.674C378.912,164.083,409.946,129.831,436.913,121.069z"/>
<circle style="fill:#FF9940;" cx="379.534" cy="193.699" r="34.227"/>
<circle style="fill:#FFD042;" cx="379.534" cy="193.699" r="16.486"/>
<path d="M213.205,256.703c-2.58,0-4.995,1.267-6.461,3.389c-5.948,8.611-35.619,52.594-35.619,72.917
	c0,23.203,18.877,42.079,42.079,42.079s42.079-18.877,42.079-42.079c0-20.322-29.67-64.305-35.619-72.917
	C218.2,257.97,215.784,256.703,213.205,256.703z M239.579,333.009c0,14.543-11.831,26.373-26.373,26.373
	s-26.373-11.831-26.373-26.373c0-10.084,14.283-35.526,26.374-54.289C225.297,297.477,239.579,322.915,239.579,333.009z"/>
<path d="M136.195,342.27c-2.58,0-4.995,1.267-6.461,3.389c-4.519,6.543-27.061,39.979-27.061,55.803
	c0,18.485,15.037,33.523,33.522,33.523s33.523-15.038,33.523-33.523c0-15.824-22.542-49.26-27.062-55.803
	C141.19,343.537,138.775,342.27,136.195,342.27z M154.012,401.462c0,9.824-7.993,17.818-17.818,17.818
	c-9.824,0-17.817-7.993-17.817-17.818c0-5.901,8.389-22.118,17.818-37.075C145.625,379.338,154.012,395.552,154.012,401.462z"/>
<path d="M509.072,151.605c-4.885-15.037-15.335-27.272-29.422-34.45c-12.824-6.532-27.261-8.148-41.09-4.704
	c-2.18-30.668-27.811-54.959-59.025-54.959s-56.845,24.291-59.025,54.96c-13.828-3.444-28.266-1.828-41.09,4.704
	c-14.088,7.178-24.537,19.413-29.422,34.449c-1.175,3.614-1.984,7.287-2.452,10.976h-30.421L105.904,8.578
	c-3.228-4.472-8.209-7.511-13.662-8.341C86.79-0.594,81.134,0.831,76.72,4.14L8.266,55.481C-0.86,62.325-2.714,75.318,4.13,84.443
	c6.841,9.125,19.835,10.981,28.962,4.138l51.602-38.702l22.411,31.032c2.539,3.516,7.446,4.307,10.964,1.768
	c3.515-2.539,4.306-7.447,1.767-10.963L92.746,34.201c-2.534-3.506-7.612-4.285-11.077-1.685L23.67,76.016
	c-2.2,1.649-5.326,1.202-6.975-0.996s-1.202-5.327,0.995-6.976l68.454-51.34c2.197-1.648,5.423-1.155,7.029,1.069L197.755,162.58
	h-12.376c-0.156-0.284-0.324-0.563-0.518-0.832l-45.132-62.492c-2.539-3.516-7.447-4.307-10.964-1.768
	c-3.515,2.539-4.306,7.447-1.767,10.963l39.093,54.13H33.515c-3.143,0-6.062,1.958-7.26,4.863
	C14.342,195.342,8.55,227.108,8.55,264.556c0,66.093,25.738,128.231,72.474,174.965c46.735,46.735,108.872,72.473,174.965,72.473
	c50.477,0,99.033-15.103,140.42-43.676c40.421-27.907,71.37-66.686,89.499-112.141c1.606-4.028-0.357-8.596-4.385-10.203
	c-4.028-1.608-8.597,0.356-10.203,4.385c-35.356,88.649-119.877,145.931-215.331,145.931
	c-127.778,0-231.734-103.955-231.734-231.734c0-23.005,2.291-43.654,6.949-62.423c13.01,35.955,47.49,61.72,87.878,61.72
	c32.329,0,62.125-16.79,79.067-43.685c14.371,16.636,35.546,26.57,57.841,26.57c6.965,0,13.766-0.927,20.34-2.745
	c-4.538,22.072,3.764,45.806,23.151,59.891c12.655,9.194,28.6,13.023,44.052,10.576c14.213-2.251,26.842-9.43,36.005-20.344
	c9.164,10.914,21.793,18.092,36.006,20.344c15.45,2.448,31.398-1.382,44.051-10.576c25.253-18.347,31.711-53.064,15.448-79.157
	c3.269-1.321,6.391-2.903,9.329-4.749c2.239,13.858,3.35,28.524,3.35,44.579c0,19.624-2.456,39.118-7.3,57.939
	c-1.081,4.201,1.448,8.481,5.649,9.561c0.656,0.17,1.315,0.25,1.962,0.25c3.498,0,6.688-2.355,7.6-5.898
	c5.171-20.1,7.794-40.909,7.794-61.853c0-20.556-1.715-39.042-5.241-56.513c-0.009-0.044-0.023-0.086-0.032-0.13
	c2.83-3.391,5.312-7.113,7.366-11.146C512.696,182.681,513.958,166.642,509.072,151.605z M472.52,131.149
	c10.351,5.274,18.027,14.262,21.617,25.309c3.589,11.047,2.661,22.831-2.611,33.181c-5.274,10.35-14.263,18.027-25.31,21.616
	c-13.688,4.446-32.606,3.442-47.538-2.143c1.889-4.779,2.939-9.976,2.939-15.418c0-14.89-7.781-27.989-19.484-35.47
	c8.824-13.401,23.433-25.211,37.206-29.686C450.385,124.947,462.171,125.875,472.52,131.149z M379.537,220.067
	c-14.543,0-26.373-11.831-26.373-26.374c0-14.543,11.831-26.373,26.373-26.373c14.542,0,26.373,11.831,26.373,26.373
	C405.911,208.235,394.079,220.067,379.537,220.067z M379.537,73.196c23.979,0,43.487,19.508,43.487,43.487
	c0,0.611-0.017,1.239-0.042,1.871c-14.119,7.532-27.391,19.96-35.719,33.782c-2.507-0.467-5.086-0.723-7.727-0.723
	c-10.151,0-19.474,3.613-26.75,9.62c-9.998-12.533-16.737-30.154-16.737-44.551C336.05,92.704,355.557,73.196,379.537,73.196z
	 M264.938,156.457c3.59-11.047,11.266-20.036,21.617-25.309c10.35-5.274,22.134-6.2,33.183-2.61c0.595,0.193,1.19,0.407,1.788,0.628
	c2.813,15.723,10.536,32.214,21.079,44.383c-2.454,4.481-4.105,9.459-4.786,14.736c-15.669,3.647-31.625,12.462-43.14,23.519
	c-0.622-0.175-1.23-0.358-1.82-0.55c-11.047-3.589-20.036-11.266-25.309-21.616C262.275,179.289,261.348,167.505,264.938,156.457z
	 M203.905,201.409c-3.194-5.354-11.356-4.882-13.909,0.805c-12.528,27.903-40.363,45.933-70.914,45.933
	c-40.201,0-73.369-30.684-77.318-69.861h205.922c0.916,6.358,2.868,12.593,5.87,18.483c6.499,12.755,17.151,22.512,30.267,27.873
	c-0.681,0.118-1.358,0.32-2.013,0.629c-8.098,3.824-16.785,5.762-25.82,5.762C234.755,231.034,214.798,219.682,203.905,201.409z
	 M341.074,298.947c-11.472,1.817-22.967-0.942-32.364-7.769c-19.398-14.095-23.714-41.345-9.62-60.744
	c8.439-11.615,24.266-21.93,39.707-26.199c4.691,18.117,21.178,31.536,40.741,31.536c0.863,0,1.718-0.035,2.568-0.086
	c0.731,16.025-4.149,34.167-12.651,45.87C362.626,290.954,352.547,297.131,341.074,298.947z M450.363,291.178
	c-9.398,6.827-20.89,9.587-32.363,7.77c-11.473-1.818-21.552-7.994-28.378-17.388c-0.365-0.504-0.72-1.027-1.073-1.556
	c6.989-14.388,10.426-32.237,9.042-48.307c4.714-2.248,8.939-5.353,12.491-9.105c11.107,4.679,24.153,7.135,36.692,7.135
	c4.105,0,8.151-0.271,12.061-0.804c0.397,0.502,0.782,1.006,1.151,1.513C474.079,249.834,469.763,277.084,450.363,291.178z"/>
<g>
</g>
<g>
</g>
<g>
</g>
<g>
</g>
<g>
</g>
<g>
</g>
<g>
</g>
<g>
</g>
<g>
</g>
<g>
</g>
<g>
</g>
<g>
</g>
<g>
</g>
<g>
</g>
<g>
</g>
</svg>
