<svg height="420pt" viewBox="-82 0 420 420.992" width="420pt" xmlns="http://www.w3.org/2000/svg"><path d="m193.496094 412.992188h-130c-8.449219.015624-15.457032-6.535157-16-14.96875l-15-233.03125h192l-15.03125 233.03125c-.546875 8.417968-7.53125 14.96875-15.96875 14.96875zm0 0" fill="#834b10"/><path d="m211.59375 364.992188 9.804688-152h-185.804688l9.804688 152zm0 0" fill="#fbd699"/><path d="m97.386719 257.875c12.496093-12.496094 32.757812-12.496094 45.253906 0l16.972656 16.972656c12.496094 12.496094 12.496094 32.757813 0 45.253906-12.5 12.496094-32.761719 12.496094-45.257812 0l-16.96875-16.972656c-12.496094-12.496094-12.496094-32.757812 0-45.253906zm0 0" fill="#834b10"/><path d="m159.609375 274.847656-16.96875-16.96875c-12.496094-12.496094-32.757813-12.496094-45.257813 0-.796874.871094-1.542968 1.789063-2.238281 2.746094l21.75 24.992188c4.011719 3.941406 9.519531 5.980468 15.128907 5.597656 5.613281-.378906 11.117187 1.660156 15.128906 5.601562l17.480468 16.589844c7.25-12.507812 5.1875-28.324219-5.023437-38.558594zm0 0" fill="#985713"/><path d="m16.496094 116.992188h224c4.417968 0 8 3.582031 8 8v32c0 4.417968-3.582032 8-8 8h-224c-4.417969 0-8-3.582032-8-8v-32c0-4.417969 3.582031-8 8-8zm0 0" fill="#5e8569"/><path d="m224.496094 116.992188h-192l16.800781-40h158.398437zm0 0" fill="#6b9777"/><path d="m176.496094 52.992188h-.160156c-4.417969-.085938-7.929688-3.742188-7.839844-8.160157.136718-8.96875 3.886718-17.5 10.398437-23.664062 3.914063-3.339844 6.21875-8.1875 6.335938-13.328125.089843-4.355469 3.644531-7.839844 8-7.839844h.160156c2.125.0390625 4.144531.921875 5.617187 2.453125 1.472657 1.53125 2.273438 3.582031 2.230469 5.707031-.140625 8.964844-3.886719 17.496094-10.398437 23.664063-3.917969 3.335937-6.226563 8.183593-6.34375 13.328125-.085938 4.355468-3.644532 7.839844-8 7.839844zm0 0" fill="#fbd699"/><path d="m217.609375 52.992188h-.167969c-4.421875-.085938-7.929687-3.742188-7.839844-8.160157.144532-8.964843 3.890626-17.496093 10.398438-23.664062 3.914062-3.339844 6.21875-8.1875 6.335938-13.328125.085937-4.355469 3.644531-7.839844 8-7.839844h.167968c4.417969.0859375 7.929688 3.742188 7.839844 8.160156-.136719 8.964844-3.886719 17.5-10.398438 23.664063-3.914062 3.339843-6.21875 8.1875-6.335937 13.328125-.089844 4.355468-3.644531 7.839844-8 7.839844zm0 0" fill="#fbd699"/><path d="m108.695312 325.792969c8.707032 8.9375 21.121094 13.234375 33.488282 11.589843 12.367187-1.644531 23.230468-9.039062 29.296875-19.941406 0-.042968.070312-.066406.09375-.105468.128906-.222657.203125-.464844.320312-.6875 3.039063-5.492188 4.734375-11.625 4.953125-17.894532v-.1875c.007813-1.496094-.066406-2.992187-.222656-4.476562-.082031-.890625-.128906-1.769532-.257812-2.648438-.199219-1.296875-.496094-2.554687-.800782-3.824218-.269531-1.097657-.589844-2.167969-.957031-3.203126-.371094-1.03125-.800781-2.183593-1.265625-3.253906-.589844-1.285156-1.246094-2.535156-1.96875-3.753906-.480469-.796875-.902344-1.644531-1.445312-2.398438-1.375-2.046874-2.9375-3.957031-4.664063-5.710937l-16.96875-17.105469c-15.632813-15.59375-40.9375-15.59375-56.570313 0-.828124.855469-1.601562 1.761719-2.3125 2.71875l-.519531.683594c-.046875.0625-.0625.132812-.109375.199219-12.59375 15.847656-11.328125 38.613281 2.941406 52.96875zm-2.214843-65.03125c.488281-.335938 1-.59375 1.511719-.890625.773437-.472656 1.574218-.898438 2.398437-1.277344.5625-.242188 1.144531-.433594 1.722656-.632812.820313-.292969 1.65625-.539063 2.503907-.746094.589843-.136719 1.191406-.230469 1.796874-.328125.859376-.125 1.722657-.207031 2.585938-.238281.601562 0 1.191406-.039063 1.792969 0 .886719.03125 1.769531.113281 2.648437.246093.574219.089844 1.152344.160157 1.710938.289063.90625.210937 1.796875.476562 2.671875.800781.519531.183594 1.046875.328125 1.601562.542969.945313.421875 1.859375.90625 2.742188 1.449218.40625.230469.800781.421876 1.222656.6875 1.292969.859376 2.5 1.84375 3.601563 2.9375l16.96875 16.964844c1.1875 1.199219 2.25 2.515625 3.160156 3.9375.09375.152344.160156.328125.253906.480469.785156 1.269531 1.449219 2.609375 1.984375 4 0 .078125.046875.160156.074219.238281.546875 1.488282.945312 3.027344 1.191406 4.59375.242188 1.628906.316406 3.277344.230469 4.917969l-8.183594-7.773437c-5.167969-4.960938-12.035156-7.757813-19.199219-7.816407-.695312 0-1.394531 0-2.097656.085938-3.082031.242187-6.128906-.78125-8.4375-2.839844l-16.800781-19.328125c.09375-.125.214843-.246094.34375-.335938zm-9.664063 13.957031 14.574219 16.671875c5.667969 5.488281 13.40625 8.300781 21.273437 7.730469 3.339844-.199219 6.605469 1.035156 8.984376 3.390625l12.449218 11.808593-.105468.128907c-9.375 9.375-24.570313 9.375-33.945313 0l-16.96875-16.96875c-5.945313-5.957031-8.324219-14.601563-6.261719-22.761719zm0 0"/><path d="m16.496094 172.992188h8.496094l5.550781 86.023437 6.871093 106.488281 2.128907 33.023438c.839843 12.621094 11.304687 22.4375 23.953125 22.464844h130c12.644531-.027344 23.109375-9.839844 23.953125-22.457032l2.125-33.023437 6.875-106.488281 5.550781-86.03125h8.496094c8.835937 0 16-7.164063 16-16v-32c0-8.835938-7.164063-16-16-16h-10.6875l-14.738282-35.097657c-1.246093-2.96875-4.152343-4.902343-7.375-4.902343h-158.398437c-3.222656 0-6.128906 1.933593-7.375 4.902343l-14.738281 35.097657h-10.6875c-8.835938 0-16 7.164062-16 16v32c0 8.835937 7.164062 16 16 16zm184.984375 224.511718c-.269531 4.21875-3.773438 7.496094-8 7.488282h-129.984375c-4.226563.007812-7.730469-3.269532-8-7.488282l-1.558594-24.511718h149.117188zm10.902343-169.039062-8.292968 128.527344h-151.203125l-8.277344-128.527344-.480469-7.472656h168.734375zm1.511719-23.472656h-170.796875l-2.074218-32h174.945312zm-159.277343-120h147.757812l10.082031 24h-167.921875zm-38.121094 40h224v32h-224zm0 0"/><path d="m176.335938 52.992188h.160156c4.355468 0 7.914062-3.484376 8-7.839844.117187-5.144532 2.421875-9.992188 6.335937-13.328125 6.507813-6.167969 10.257813-14.699219 10.398438-23.664063.042969-2.125-.757813-4.175781-2.230469-5.707031s-3.492188-2.4140625-5.617188-2.453125h-.160156c-4.355468 0-7.910156 3.484375-8 7.839844-.113281 5.140625-2.417968 9.988281-6.328125 13.328125-6.511719 6.164062-10.261719 14.695312-10.398437 23.664062-.089844 4.417969 3.421875 8.074219 7.839844 8.160157zm0 0"/><path d="m217.441406 52.992188h.167969c4.355469 0 7.910156-3.484376 8-7.839844.117187-5.140625 2.421875-9.988282 6.335937-13.328125 6.5-6.160157 10.246094-14.675781 10.390626-23.632813.089843-4.417968-3.421876-8.070312-7.839844-8.160156h-.167969c-4.355469 0-7.914063 3.484375-8 7.839844-.117187 5.144531-2.421875 9.992187-6.335937 13.328125-6.507813 6.171875-10.253907 14.699219-10.398438 23.664062-.074219 4.410157 3.4375 8.046875 7.847656 8.128907zm0 0"/></svg>