<svg height="512" viewBox="0 0 256 256" width="512" xmlns="http://www.w3.org/2000/svg"><path d="m210.344 88.766a25.616 25.616 0 0 0 -9.944-20.287 9.572 9.572 0 0 1 -3.609-8.395l2.9-33.8h-143.379l2.9 33.8a9.572 9.572 0 0 1 -3.609 8.395 25.669 25.669 0 0 0 3.697 42.969 9.566 9.566 0 0 1 4.98 7.652l11.027 128.471a4.844 4.844 0 0 0 4.826 4.429h95.734a4.844 4.844 0 0 0 4.826-4.429l11.027-128.471a9.566 9.566 0 0 1 4.982-7.655 25.666 25.666 0 0 0 13.642-22.679z" fill="#fcc24c"/><path d="m200.4 68.479a9.572 9.572 0 0 1 -3.609-8.395l2.9-33.8h-10l-2.9 33.8a9.572 9.572 0 0 0 3.609 8.395 25.669 25.669 0 0 1 -3.693 42.969 9.566 9.566 0 0 0 -4.982 7.655l-11.032 128.468a4.844 4.844 0 0 1 -4.826 4.429h10a4.844 4.844 0 0 0 4.826-4.429l11.027-128.471a9.566 9.566 0 0 1 4.982-7.655 25.669 25.669 0 0 0 3.698-42.966z" fill="#dea42e"/><path d="m55.605 68.479a9.572 9.572 0 0 0 3.609-8.395l-2.9-33.8h10l2.9 33.8a9.572 9.572 0 0 1 -3.609 8.395 25.669 25.669 0 0 0 3.695 42.969 9.566 9.566 0 0 1 4.98 7.652l11.027 128.471a4.844 4.844 0 0 0 4.826 4.429h-10a4.844 4.844 0 0 1 -4.826-4.429l-11.027-128.471a9.566 9.566 0 0 0 -4.982-7.655 25.669 25.669 0 0 1 -3.693-42.969z" fill="#fce06a"/><path d="m199.687 26.281h-143.375l2.079 24.219h139.218z" fill="#f4efed"/><path d="m189.687 26.281-2.078 24.219h10l2.078-24.219z" fill="#d6d1cf"/><path d="m66.312 26.281 2.079 24.219h-10l-2.079-24.219z" fill="#fff"/><path d="m74.274 235.531 1.033 12.04a4.844 4.844 0 0 0 4.826 4.429h95.734a4.844 4.844 0 0 0 4.826-4.429l1.033-12.04z" fill="#f4efed"/><path d="m171.726 235.531-1.033 12.04a4.844 4.844 0 0 1 -4.826 4.429h10a4.844 4.844 0 0 0 4.826-4.429l1.033-12.04z" fill="#d6d1cf"/><path d="m84.274 235.531 1.033 12.04a4.844 4.844 0 0 0 4.826 4.429h-10a4.844 4.844 0 0 1 -4.826-4.429l-1.033-12.04z" fill="#fff"/><path d="m175.867 254h-95.734a6.805 6.805 0 0 1 -6.819-6.258l-11.027-128.469a7.527 7.527 0 0 0 -3.928-6.059 27.669 27.669 0 0 1 -3.98-46.314 7.532 7.532 0 0 0 2.842-6.644l-2.9-33.8a2 2 0 0 1 1.992-2.171h143.374a2 2 0 0 1 1.993 2.171l-2.9 33.8a7.532 7.532 0 0 0 2.842 6.644 27.668 27.668 0 0 1 -3.981 46.315 7.525 7.525 0 0 0 -3.927 6.059l-11.029 128.467a6.8 6.8 0 0 1 -6.818 6.259zm-117.375-225.719 2.714 31.632a11.513 11.513 0 0 1 -4.375 10.146 23.669 23.669 0 0 0 3.4 39.623 11.505 11.505 0 0 1 6.036 9.25l11.033 128.468a2.827 2.827 0 0 0 2.833 2.6h95.734a2.828 2.828 0 0 0 2.833-2.6l11.027-128.467a11.511 11.511 0 0 1 6.036-9.25 23.669 23.669 0 0 0 3.406-39.623 11.516 11.516 0 0 1 -4.376-10.146l2.715-31.632z" fill="#690589"/><path d="m75.521 135.591a2 2 0 0 1 -1.99-1.829l-1.03-12a2 2 0 1 1 3.985-.342l1.03 12a2 2 0 0 1 -1.822 2.164c-.058.004-.115.007-.173.007z" fill="#690589"/><path d="m78.594 4h98.813a22.281 22.281 0 0 1 22.281 22.281 0 0 0 0 1 0 0h-143.376a0 0 0 0 1 0 0 22.281 22.281 0 0 1 22.282-22.281z" fill="#f4efed"/><path d="m177.406 4h-10a22.281 22.281 0 0 1 22.281 22.281h10a22.281 22.281 0 0 0 -22.281-22.281z" fill="#d6d1cf"/><path d="m78.594 4h10a22.282 22.282 0 0 0 -22.282 22.281h-10a22.282 22.282 0 0 1 22.282-22.281z" fill="#fff"/><path d="m199.687 28.281h-143.375a2 2 0 0 1 -2-2 24.309 24.309 0 0 1 24.282-24.281h98.812a24.309 24.309 0 0 1 24.281 24.281 2 2 0 0 1 -2 2zm-141.277-4h139.18a20.311 20.311 0 0 0 -20.184-18.281h-98.812a20.311 20.311 0 0 0 -20.184 18.281z" fill="#690589"/><path d="m180.726 237.531h-105.452a2 2 0 0 1 0-4h105.452a2 2 0 0 1 0 4z" fill="#690589"/><path d="m196.608 52.5h-137.216a2 2 0 1 1 0-4h137.216a2 2 0 0 1 0 4z" fill="#690589"/><path d="m129 74.769a2 2 0 0 0 -2 0 22.7 22.7 0 0 0 0 39.311 2 2 0 0 0 2 0 22.7 22.7 0 0 0 0-39.311z" fill="#f4efed"/><path d="m123.356 114.189a22.784 22.784 0 0 0 -21.924-5.874 2 2 0 0 0 -1.417 1.417 22.717 22.717 0 0 0 27.8 27.8 2 2 0 0 0 1.417-1.417 22.784 22.784 0 0 0 -5.876-21.926z" fill="#f4efed"/><path d="m155.985 109.732a2 2 0 0 0 -1.417-1.417 22.7 22.7 0 0 0 -27.8 27.8 2 2 0 0 0 1.417 1.417 22.7 22.7 0 0 0 27.8-27.8z" fill="#f4efed"/><path d="m123.356 145.351a22.784 22.784 0 0 0 -21.924-5.874 2 2 0 0 0 -1.417 1.417 22.717 22.717 0 0 0 27.8 27.8 2 2 0 0 0 1.417-1.417 22.784 22.784 0 0 0 -5.876-21.926z" fill="#f4efed"/><path d="m155.985 140.894a2 2 0 0 0 -1.417-1.417 22.7 22.7 0 0 0 -27.8 27.8 2 2 0 0 0 1.417 1.417 22.7 22.7 0 0 0 27.8-27.8z" fill="#f4efed"/><g fill="#690589"><path d="m128 183.5a2 2 0 0 1 -2-2v-69.15a2 2 0 0 1 4 0v69.15a2 2 0 0 1 -2 2z"/><path d="m121.974 138.294a22.684 22.684 0 0 1 -21.958-28.563 2 2 0 0 1 1.417-1.416 22.7 22.7 0 0 1 27.8 27.8 2 2 0 0 1 -1.417 1.417 22.613 22.613 0 0 1 -5.842.762zm-18.361-26.382a18.691 18.691 0 0 0 22.02 22.02 18.692 18.692 0 0 0 -22.02-22.02z"/><path d="m128 114.35a2 2 0 0 1 -1-.269 22.7 22.7 0 0 1 0-39.312 2 2 0 0 1 2 0 22.7 22.7 0 0 1 0 39.312 2 2 0 0 1 -1 .269zm0-35.5a18.692 18.692 0 0 0 0 31.15 18.692 18.692 0 0 0 0-31.142z"/><path d="m134.026 138.294a22.621 22.621 0 0 1 -5.84-.765 2 2 0 0 1 -1.417-1.417 22.7 22.7 0 0 1 27.8-27.8 2 2 0 0 1 1.417 1.416 22.684 22.684 0 0 1 -21.958 28.563zm-3.659-4.362a18.691 18.691 0 0 0 22.02-22.02 18.691 18.691 0 0 0 -22.02 22.02z"/><path d="m121.974 169.456a22.684 22.684 0 0 1 -21.958-28.562 2 2 0 0 1 1.417-1.417 22.7 22.7 0 0 1 27.8 27.8 2 2 0 0 1 -1.417 1.417 22.613 22.613 0 0 1 -5.842.762zm-18.361-26.382a18.691 18.691 0 0 0 22.02 22.02 18.692 18.692 0 0 0 -22.02-22.02z"/><path d="m134.026 169.456a22.621 22.621 0 0 1 -5.84-.765 2 2 0 0 1 -1.417-1.417 22.7 22.7 0 0 1 27.8-27.8 2 2 0 0 1 1.417 1.417 22.684 22.684 0 0 1 -21.958 28.562zm-3.659-4.362a18.691 18.691 0 0 0 22.02-22.02 18.691 18.691 0 0 0 -22.02 22.02z"/></g></svg>