<svg height="512pt" viewBox="-114 0 512 512" width="512pt" xmlns="http://www.w3.org/2000/svg"><path d="m82.675781 67.488281c-15.035156-23.472656-3.519531-50.894531-3.023437-52.050781l6.648437-15.4375 12.398438 11.351562c7.039062 6.441407 19.941406 7.097657 23.90625 6.824219l.441406-.03125h.441406c11.0625.046875 21.675781 4.71875 29.121094 12.820313 5.734375 6.242187 12.269531 17.398437 10.835937 35.125zm0 0" fill="#fd7eb8"/><path d="m152.609375 30.964844c-7.445313-8.101563-18.058594-12.773438-29.121094-12.820313h-.441406l-.441406.03125c-1.234375.085938-3.332031.078125-5.847657-.160156v48.882813l46.683594-.808594c1.433594-17.726563-5.097656-28.886719-10.832031-35.125zm0 0" fill="#fc6097"/><path d="m208.859375 140.65625-29.488281-5.808594 26.53125-134.628906h77.148437v30.050781h-52.441406zm0 0" fill="#fc105c"/><path d="m43.796875 120.496094-.476563-14.988282.003907-.246093c.050781-13.054688 5.179687-25.304688 14.445312-34.5 9.21875-9.148438 21.433594-14.175781 34.414063-14.175781h.195312l48.890625.398437c12.992188.050781 25.835938 6.410156 35.175781 17.449219 8.507813 10.054687 13.394532 23.019531 13.441407 35.632812l.453125 10.039063zm0 0" fill="#fc6097"/><path d="m116.761719 512c-24.824219 0-45.023438-20.195312-45.023438-45.019531s20.195313-45.023438 45.023438-45.023438c24.824219 0 45.019531 20.195313 45.019531 45.023438 0 24.824219-20.195312 45.019531-45.019531 45.019531zm0 0" fill="#deecf1"/><path d="m116.761719 421.960938v90.039062c24.824219 0 45.019531-20.195312 45.019531-45.019531 0-24.828125-20.195312-45.019531-45.019531-45.019531zm0 0" fill="#c6e2e7"/><path d="m189.886719 110.066406c-.046875-12.613281-4.933594-25.578125-13.441407-35.632812-9.339843-11.039063-22.183593-17.398438-35.175781-17.449219l-24.507812-.203125v63.519531l73.578125-.195312zm0 0" fill="#ea588b"/><path d="m41.628906 481.945312h152.484375v30.054688h-152.484375zm0 0" fill="#c6e2e7"/><path d="m116.761719 481.945312h77.355469v30.054688h-77.355469zm0 0" fill="#a8d3d8"/><path d="m218.199219 184.710938-202.964844-.605469.085937-26.089844c.09375-23.910156 19.566407-43.289063 43.441407-43.289063h.175781l116.070312.453126c23.953126.09375 43.367188 19.660156 43.273438 43.617187zm0 0" fill="#fd7eb8"/><path d="m218.28125 158.796875c.09375-23.957031-19.320312-43.523437-43.273438-43.613281l-58.246093-.230469v69.457031l101.4375.300782zm0 0" fill="#fc6097"/><path d="m117.929688 452.011719c-20.359376 0-40.101563-7.28125-55.582032-20.5-15.484375-13.21875-25.773437-31.570313-28.964844-51.679688l-33.382812-210.195312h235.859375l-33.382813 210.195312c-3.195312 20.109375-13.480468 38.460938-28.964843 51.679688s-35.222657 20.5-55.582031 20.5zm0 0" fill="#deecf1"/><path d="m116.761719 169.636719v282.347656c.386719.003906.777343.027344 1.167969.027344 20.359374 0 40.097656-7.28125 55.582031-20.5s25.769531-31.574219 28.964843-51.679688l33.382813-210.195312zm0 0" fill="#c6e2e7"/><path d="m9.523438 229.601562 23.859374 150.230469c3.191407 20.105469 13.476563 38.460938 28.964844 51.679688 15.480469 13.21875 35.222656 20.5 55.582032 20.5 20.359374 0 40.097656-7.28125 55.582031-20.5s25.769531-31.574219 28.964843-51.679688l23.859376-150.230469zm0 0" fill="#ba5529"/><path d="m116.761719 229.601562v222.382813c.386719.003906.777343.027344 1.167969.027344 20.359374 0 40.097656-7.28125 55.582031-20.5s25.769531-31.574219 28.964843-51.679688l23.859376-150.230469zm0 0" fill="#8b4728"/></svg>